<svg width="116" height="32" viewBox="0 0 116 32" fill="none" xmlns="http://www.w3.org/2000/svg">
<rect x="0.5" y="0.5" width="115" height="31" rx="3.5" fill="white" fill-opacity="0.7"/>
<rect x="0.5" y="0.5" width="115" height="31" rx="3.5" stroke="url(#paint0_linear_107610_281877)"/>
<path d="M19.0479 12.2363H16.2178V21H15.0693V12.2363H12.2461V11.1973H19.0479V12.2363ZM24.7148 17.7461H19.752C19.7656 18.5436 19.973 19.1543 20.374 19.5781C20.7751 20.002 21.3265 20.2139 22.0283 20.2139C22.3564 20.2139 22.6777 20.1592 22.9922 20.0498C23.3112 19.9404 23.6211 19.7718 23.9219 19.5439L24.4961 20.2959C24.1178 20.583 23.7236 20.7995 23.3135 20.9453C22.9033 21.0911 22.4453 21.1641 21.9395 21.1641C20.9004 21.1641 20.0824 20.8519 19.4854 20.2275C18.8929 19.5986 18.5967 18.7168 18.5967 17.582C18.5921 16.4655 18.8883 15.5632 19.4854 14.875C20.0869 14.1823 20.8639 13.8359 21.8164 13.8359C22.737 13.8359 23.4502 14.1322 23.9561 14.7246C24.4619 15.3171 24.7148 16.1374 24.7148 17.1855V17.7461ZM23.5664 16.8232C23.5618 16.1852 23.4023 15.6862 23.0879 15.3262C22.778 14.9661 22.3473 14.7861 21.7959 14.7861C21.2581 14.7861 20.8047 14.973 20.4355 15.3467C20.0664 15.7158 19.8431 16.208 19.7656 16.8232H23.5664ZM31.5029 14L29.1514 17.541L31.4619 21H30.1562L28.7822 18.7441C28.7367 18.6712 28.6888 18.5915 28.6387 18.5049C28.5885 18.4183 28.5339 18.3203 28.4746 18.2109H28.4473C28.4336 18.2292 28.3994 18.2839 28.3447 18.375C28.2946 18.4661 28.2194 18.5892 28.1191 18.7441L26.7178 21H25.4326L27.8184 17.5684L25.5352 14H26.834L28.1943 16.3721C28.2445 16.4632 28.2923 16.5544 28.3379 16.6455C28.388 16.7367 28.4382 16.8278 28.4883 16.9189H28.5156C28.5703 16.8278 28.6227 16.7367 28.6729 16.6455C28.7275 16.5544 28.7845 16.4632 28.8438 16.3721L30.2656 14H31.5029ZM36.1787 20.8975C35.9873 20.984 35.7936 21.0501 35.5977 21.0957C35.4062 21.1413 35.1898 21.1641 34.9482 21.1641C34.3877 21.1641 33.9502 21.0023 33.6357 20.6787C33.3213 20.3506 33.1641 19.8675 33.1641 19.2295V14.957H31.9609V14H33.1641V12.2979L34.2852 11.9561V14H36.0625V14.957H34.2852V19.0586C34.2852 19.4779 34.3649 19.7764 34.5244 19.9541C34.6839 20.1318 34.9072 20.2207 35.1943 20.2207C35.3219 20.2207 35.445 20.2025 35.5635 20.166C35.6865 20.1296 35.7936 20.0885 35.8848 20.043L36.1787 20.8975Z" fill="black" fill-opacity="0.8956"/>
<path d="M93.998 14.5C93.998 14.4297 94.0117 14.3652 94.0391 14.3066C94.0664 14.2441 94.1016 14.1914 94.1445 14.1484C94.1914 14.1016 94.2441 14.0645 94.3027 14.0371C94.3652 14.0098 94.4316 13.9961 94.502 13.9961C94.5762 13.9961 94.6406 14.0098 94.6953 14.0371C94.75 14.0605 94.8027 14.0977 94.8535 14.1484L98 17.2949L101.146 14.1484C101.248 14.0469 101.365 13.9961 101.498 13.9961C101.568 13.9961 101.633 14.0098 101.691 14.0371C101.754 14.0645 101.807 14.1016 101.85 14.1484C101.896 14.1914 101.934 14.2441 101.961 14.3066C101.988 14.3652 102.002 14.4297 102.002 14.5C102.002 14.6367 101.953 14.7539 101.855 14.8516L98.3516 18.3555C98.2539 18.4531 98.1367 18.502 98 18.502C97.8633 18.502 97.7461 18.4531 97.6484 18.3555L94.1445 14.8516C94.0469 14.7539 93.998 14.6367 93.998 14.5Z" fill="black" fill-opacity="0.6063"/>
<defs>
<linearGradient id="paint0_linear_107610_281877" x1="58" y1="1" x2="58" y2="31" gradientUnits="userSpaceOnUse">
<stop offset="0.905762" stop-opacity="0.0578"/>
<stop offset="1" stop-opacity="0.1622"/>
</linearGradient>
</defs>
</svg>
