<svg width="160" height="32" viewBox="0 0 160 32" fill="none" xmlns="http://www.w3.org/2000/svg">
<rect x="1" y="1" width="158" height="30" rx="3" fill="white"/>
<g clip-path="url(#clip0_107751_283853)">
<rect x="0.5" y="0.5" width="159" height="31" rx="3.5" stroke="black" stroke-opacity="0.0578"/>
<mask id="mask0_107751_283853" style="mask-type:alpha" maskUnits="userSpaceOnUse" x="-2" y="-2" width="164" height="34">
<rect x="-1" y="-1" width="162" height="32" stroke="url(#paint0_linear_107751_283853)" stroke-width="2"/>
</mask>
<g mask="url(#mask0_107751_283853)">
<rect x="1" y="1" width="158" height="30" rx="3" stroke="#005FB8" stroke-width="2"/>
</g>
</g>
<path d="M142 16.709L138.854 19.8555C138.756 19.9531 138.639 20.002 138.502 20.002C138.361 20.002 138.242 19.9531 138.145 19.8555C138.047 19.7578 137.998 19.6387 137.998 19.498C137.998 19.3613 138.047 19.2441 138.145 19.1465L141.291 16L138.145 12.8535C138.047 12.7559 137.998 12.6367 137.998 12.4961C137.998 12.4258 138.012 12.3613 138.039 12.3027C138.066 12.2402 138.102 12.1875 138.145 12.1445C138.191 12.0977 138.244 12.0625 138.303 12.0391C138.365 12.0117 138.432 11.998 138.502 11.998C138.639 11.998 138.756 12.0469 138.854 12.1445L142 15.291L145.146 12.1445C145.244 12.0469 145.361 11.998 145.498 11.998C145.639 11.998 145.758 12.0469 145.855 12.1445C145.953 12.2422 146.002 12.3613 146.002 12.502C146.002 12.6387 145.953 12.7559 145.855 12.8535L142.709 16L145.855 19.1465C145.953 19.2441 146.002 19.3633 146.002 19.5039C146.002 19.5742 145.988 19.6406 145.961 19.7031C145.934 19.7617 145.896 19.8145 145.85 19.8613C145.807 19.9043 145.754 19.9395 145.691 19.9668C145.633 19.9902 145.568 20.002 145.498 20.002C145.361 20.002 145.244 19.9531 145.146 19.8555L142 16.709Z" fill="black" fill-opacity="0.6063"/>
<path d="M14.1807 24.2949H13.1689V10.2949H14.1807V24.2949ZM22.3838 12.2363H19.5537V21H18.4053V12.2363H15.582V11.1973H22.3838V12.2363ZM28.0508 17.7461H23.0879C23.1016 18.5436 23.3089 19.1543 23.71 19.5781C24.111 20.002 24.6624 20.2139 25.3643 20.2139C25.6924 20.2139 26.0137 20.1592 26.3281 20.0498C26.6471 19.9404 26.957 19.7718 27.2578 19.5439L27.832 20.2959C27.4538 20.583 27.0596 20.7995 26.6494 20.9453C26.2393 21.0911 25.7812 21.1641 25.2754 21.1641C24.2363 21.1641 23.4183 20.8519 22.8213 20.2275C22.2288 19.5986 21.9326 18.7168 21.9326 17.582C21.9281 16.4655 22.2243 15.5632 22.8213 14.875C23.4229 14.1823 24.1999 13.8359 25.1523 13.8359C26.0729 13.8359 26.7861 14.1322 27.292 14.7246C27.7979 15.3171 28.0508 16.1374 28.0508 17.1855V17.7461ZM26.9023 16.8232C26.8978 16.1852 26.7383 15.6862 26.4238 15.3262C26.1139 14.9661 25.6833 14.7861 25.1318 14.7861C24.5941 14.7861 24.1406 14.973 23.7715 15.3467C23.4023 15.7158 23.179 16.208 23.1016 16.8232H26.9023ZM34.8389 14L32.4873 17.541L34.7979 21H33.4922L32.1182 18.7441C32.0726 18.6712 32.0247 18.5915 31.9746 18.5049C31.9245 18.4183 31.8698 18.3203 31.8105 18.2109H31.7832C31.7695 18.2292 31.7354 18.2839 31.6807 18.375C31.6305 18.4661 31.5553 18.5892 31.4551 18.7441L30.0537 21H28.7686L31.1543 17.5684L28.8711 14H30.1699L31.5303 16.3721C31.5804 16.4632 31.6283 16.5544 31.6738 16.6455C31.724 16.7367 31.7741 16.8278 31.8242 16.9189H31.8516C31.9062 16.8278 31.9587 16.7367 32.0088 16.6455C32.0635 16.5544 32.1204 16.4632 32.1797 16.3721L33.6016 14H34.8389ZM39.5146 20.8701C39.3187 20.9658 39.125 21.0365 38.9336 21.082C38.7422 21.1276 38.5234 21.1504 38.2773 21.1504C37.7214 21.1504 37.2861 20.9886 36.9717 20.665C36.6572 20.3415 36.5 19.8652 36.5 19.2363V14.957H35.2969V14H36.5V12.2979L37.6211 11.9561V14H39.3984V14.957H37.6211V19.1133C37.6211 19.5052 37.6917 19.7878 37.833 19.9609C37.9743 20.1341 38.1862 20.2207 38.4688 20.2207C38.6055 20.2207 38.7376 20.2048 38.8652 20.1729C38.9928 20.1364 39.1045 20.0885 39.2002 20.0293L39.5146 20.8701Z" fill="black" fill-opacity="0.8956"/>
<defs>
<linearGradient id="paint0_linear_107751_283853" x1="80" y1="0" x2="80" y2="30" gradientUnits="userSpaceOnUse">
<stop offset="0.939453" stop-color="white" stop-opacity="0"/>
<stop offset="0.941406" stop-color="white"/>
</linearGradient>
<clipPath id="clip0_107751_283853">
<rect width="160" height="32" fill="white"/>
</clipPath>
</defs>
</svg>
