<svg width="305" height="382" viewBox="0 0 305 382" fill="none" xmlns="http://www.w3.org/2000/svg">
<rect x="0.5" y="0.5" width="304" height="381" rx="4.5" stroke="#9747FF" stroke-dasharray="10 5"/>
<path d="M33.6475 36H32.499V31.5293H27.4268V36H26.2783V26.1973H27.4268V30.4971H32.499V26.1973H33.6475V36ZM41.6934 32.7461H36.7305C36.7441 33.5436 36.9515 34.1543 37.3525 34.5781C37.7536 35.002 38.305 35.2139 39.0068 35.2139C39.335 35.2139 39.6562 35.1592 39.9707 35.0498C40.2897 34.9404 40.5996 34.7718 40.9004 34.5439L41.4746 35.2959C41.0964 35.583 40.7021 35.7995 40.292 35.9453C39.8818 36.0911 39.4238 36.1641 38.918 36.1641C37.8789 36.1641 37.0609 35.8519 36.4639 35.2275C35.8714 34.5986 35.5752 33.7168 35.5752 32.582C35.5706 31.4655 35.8669 30.5632 36.4639 29.875C37.0654 29.1823 37.8424 28.8359 38.7949 28.8359C39.7155 28.8359 40.4287 29.1322 40.9346 29.7246C41.4404 30.3171 41.6934 31.1374 41.6934 32.1855V32.7461ZM40.5449 31.8232C40.5404 31.1852 40.3809 30.6862 40.0664 30.3262C39.7565 29.9661 39.3258 29.7861 38.7744 29.7861C38.2367 29.7861 37.7832 29.973 37.4141 30.3467C37.0449 30.7158 36.8216 31.208 36.7441 31.8232H40.5449ZM48.3242 36H47.2031V34.9268H47.1758C46.9342 35.3369 46.6357 35.6468 46.2803 35.8564C45.9248 36.0615 45.5146 36.1641 45.0498 36.1641C44.389 36.1641 43.8558 35.9749 43.4502 35.5967C43.0492 35.2139 42.8486 34.7103 42.8486 34.0859C42.8486 33.4798 43.0537 32.9831 43.4639 32.5957C43.874 32.2083 44.4528 31.96 45.2002 31.8506L47.2031 31.5908V31.3926C47.2031 30.8184 47.0664 30.4082 46.793 30.1621C46.5195 29.9115 46.1549 29.7861 45.6992 29.7861C45.3255 29.7861 44.9746 29.859 44.6465 30.0049C44.3184 30.1462 44.0153 30.3626 43.7373 30.6543L43.0332 30.0117C43.4069 29.6152 43.8171 29.3213 44.2637 29.1299C44.7103 28.9339 45.2116 28.8359 45.7676 28.8359C46.6107 28.8359 47.2464 29.0547 47.6748 29.4922C48.1077 29.9251 48.3242 30.57 48.3242 31.4268V36ZM47.2031 33.1562V32.4863L45.4805 32.7188C44.9746 32.7871 44.5941 32.917 44.3389 33.1084C44.0882 33.2952 43.9629 33.5846 43.9629 33.9766C43.9629 34.3867 44.0837 34.7035 44.3252 34.9268C44.5713 35.1455 44.8721 35.2549 45.2275 35.2549C45.8291 35.2549 46.3076 35.0566 46.6631 34.6602C47.0231 34.2637 47.2031 33.7624 47.2031 33.1562ZM55.3037 34.8311C55.0439 35.2731 54.7135 35.6058 54.3125 35.8291C53.916 36.0524 53.4466 36.1641 52.9043 36.1641C52.0111 36.1641 51.3001 35.8519 50.7715 35.2275C50.2474 34.5986 49.9854 33.7441 49.9854 32.6641C49.9854 31.502 50.277 30.5745 50.8604 29.8818C51.4482 29.1846 52.2275 28.8359 53.1982 28.8359C53.6813 28.8359 54.0983 28.9294 54.4492 29.1162C54.8001 29.3031 55.085 29.5811 55.3037 29.9502H55.3311V25.6367H56.4521V36H55.3311V34.8311H55.3037ZM51.1338 32.6094C51.1338 33.416 51.3206 34.0518 51.6943 34.5166C52.068 34.9814 52.5716 35.2139 53.2051 35.2139C53.8431 35.2139 54.3558 34.9906 54.7432 34.5439C55.1351 34.0928 55.3311 33.5231 55.3311 32.835V31.8027C55.3311 31.2376 55.1419 30.7614 54.7637 30.374C54.3854 29.9821 53.9092 29.7861 53.335 29.7861C52.6514 29.7861 52.1136 30.0345 51.7217 30.5312C51.3298 31.028 51.1338 31.7207 51.1338 32.6094ZM64.3477 32.7461H59.3848C59.3984 33.5436 59.6058 34.1543 60.0068 34.5781C60.4079 35.002 60.9593 35.2139 61.6611 35.2139C61.9893 35.2139 62.3105 35.1592 62.625 35.0498C62.944 34.9404 63.2539 34.7718 63.5547 34.5439L64.1289 35.2959C63.7507 35.583 63.3564 35.7995 62.9463 35.9453C62.5361 36.0911 62.0781 36.1641 61.5723 36.1641C60.5332 36.1641 59.7152 35.8519 59.1182 35.2275C58.5257 34.5986 58.2295 33.7168 58.2295 32.582C58.2249 31.4655 58.5212 30.5632 59.1182 29.875C59.7197 29.1823 60.4967 28.8359 61.4492 28.8359C62.3698 28.8359 63.083 29.1322 63.5889 29.7246C64.0947 30.3171 64.3477 31.1374 64.3477 32.1855V32.7461ZM63.1992 31.8232C63.1947 31.1852 63.0352 30.6862 62.7207 30.3262C62.4108 29.9661 61.9801 29.7861 61.4287 29.7861C60.891 29.7861 60.4375 29.973 60.0684 30.3467C59.6992 30.7158 59.4759 31.208 59.3984 31.8232H63.1992ZM69.4883 29.9707C69.4017 29.9388 69.3197 29.916 69.2422 29.9023C69.1647 29.8887 69.0713 29.8818 68.9619 29.8818C68.4014 29.8818 67.957 30.1257 67.6289 30.6133C67.3053 31.0964 67.1436 31.7025 67.1436 32.4316V36H66.0225V29H67.1436V30.374H67.1709C67.3304 29.8864 67.5742 29.515 67.9023 29.2598C68.2305 29.0046 68.6064 28.877 69.0303 28.877C69.1761 28.877 69.3014 28.8861 69.4062 28.9043C69.5111 28.918 69.6113 28.943 69.707 28.9795L69.4883 29.9707Z" fill="black" fill-opacity="0.8956"/>
<rect x="25.5" y="48.5" width="117" height="31" rx="3.5" fill="white" fill-opacity="0.7"/>
<rect x="25.5" y="48.5" width="117" height="31" rx="3.5" stroke="url(#paint0_linear_107610_281774)"/>
<path d="M44.0479 60.2363H41.2178V69H40.0693V60.2363H37.2461V59.1973H44.0479V60.2363ZM49.7148 65.7461H44.752C44.7656 66.5436 44.973 67.1543 45.374 67.5781C45.7751 68.002 46.3265 68.2139 47.0283 68.2139C47.3564 68.2139 47.6777 68.1592 47.9922 68.0498C48.3112 67.9404 48.6211 67.7718 48.9219 67.5439L49.4961 68.2959C49.1178 68.583 48.7236 68.7995 48.3135 68.9453C47.9033 69.0911 47.4453 69.1641 46.9395 69.1641C45.9004 69.1641 45.0824 68.8519 44.4854 68.2275C43.8929 67.5986 43.5967 66.7168 43.5967 65.582C43.5921 64.4655 43.8883 63.5632 44.4854 62.875C45.0869 62.1823 45.8639 61.8359 46.8164 61.8359C47.737 61.8359 48.4502 62.1322 48.9561 62.7246C49.4619 63.3171 49.7148 64.1374 49.7148 65.1855V65.7461ZM48.5664 64.8232C48.5618 64.1852 48.4023 63.6862 48.0879 63.3262C47.778 62.9661 47.3473 62.7861 46.7959 62.7861C46.2581 62.7861 45.8047 62.973 45.4355 63.3467C45.0664 63.7158 44.8431 64.208 44.7656 64.8232H48.5664ZM56.5029 62L54.1514 65.541L56.4619 69H55.1562L53.7822 66.7441C53.7367 66.6712 53.6888 66.5915 53.6387 66.5049C53.5885 66.4183 53.5339 66.3203 53.4746 66.2109H53.4473C53.4336 66.2292 53.3994 66.2839 53.3447 66.375C53.2946 66.4661 53.2194 66.5892 53.1191 66.7441L51.7178 69H50.4326L52.8184 65.5684L50.5352 62H51.834L53.1943 64.3721C53.2445 64.4632 53.2923 64.5544 53.3379 64.6455C53.388 64.7367 53.4382 64.8278 53.4883 64.9189H53.5156C53.5703 64.8278 53.6227 64.7367 53.6729 64.6455C53.7275 64.5544 53.7845 64.4632 53.8438 64.3721L55.2656 62H56.5029ZM61.1787 68.8701C60.9827 68.9658 60.7891 69.0365 60.5977 69.082C60.4062 69.1276 60.1875 69.1504 59.9414 69.1504C59.3854 69.1504 58.9502 68.9886 58.6357 68.665C58.3213 68.3415 58.1641 67.8652 58.1641 67.2363V62.957H56.9609V62H58.1641V60.2979L59.2852 59.9561V62H61.0625V62.957H59.2852V67.1133C59.2852 67.5052 59.3558 67.7878 59.4971 67.9609C59.6383 68.1341 59.8503 68.2207 60.1328 68.2207C60.2695 68.2207 60.4017 68.2048 60.5293 68.1729C60.6569 68.1364 60.7686 68.0885 60.8643 68.0293L61.1787 68.8701Z" fill="black" fill-opacity="0.6063"/>
<path d="M118.998 62.5C118.998 62.4297 119.012 62.3652 119.039 62.3066C119.066 62.2441 119.102 62.1914 119.145 62.1484C119.191 62.1016 119.244 62.0645 119.303 62.0371C119.365 62.0098 119.432 61.9961 119.502 61.9961C119.576 61.9961 119.641 62.0098 119.695 62.0371C119.75 62.0605 119.803 62.0977 119.854 62.1484L123 65.2949L126.146 62.1484C126.248 62.0469 126.365 61.9961 126.498 61.9961C126.568 61.9961 126.633 62.0098 126.691 62.0371C126.754 62.0645 126.807 62.1016 126.85 62.1484C126.896 62.1914 126.934 62.2441 126.961 62.3066C126.988 62.3652 127.002 62.4297 127.002 62.5C127.002 62.6367 126.953 62.7539 126.855 62.8516L123.352 66.3555C123.254 66.4531 123.137 66.502 123 66.502C122.863 66.502 122.746 66.4531 122.648 66.3555L119.145 62.8516C119.047 62.7539 118.998 62.6367 118.998 62.5Z" fill="black" fill-opacity="0.6063"/>
<path d="M33.6475 137H32.499V132.529H27.4268V137H26.2783V127.197H27.4268V131.497H32.499V127.197H33.6475V137ZM41.6934 133.746H36.7305C36.7441 134.544 36.9515 135.154 37.3525 135.578C37.7536 136.002 38.305 136.214 39.0068 136.214C39.335 136.214 39.6562 136.159 39.9707 136.05C40.2897 135.94 40.5996 135.772 40.9004 135.544L41.4746 136.296C41.0964 136.583 40.7021 136.799 40.292 136.945C39.8818 137.091 39.4238 137.164 38.918 137.164C37.8789 137.164 37.0609 136.852 36.4639 136.228C35.8714 135.599 35.5752 134.717 35.5752 133.582C35.5706 132.465 35.8669 131.563 36.4639 130.875C37.0654 130.182 37.8424 129.836 38.7949 129.836C39.7155 129.836 40.4287 130.132 40.9346 130.725C41.4404 131.317 41.6934 132.137 41.6934 133.186V133.746ZM40.5449 132.823C40.5404 132.185 40.3809 131.686 40.0664 131.326C39.7565 130.966 39.3258 130.786 38.7744 130.786C38.2367 130.786 37.7832 130.973 37.4141 131.347C37.0449 131.716 36.8216 132.208 36.7441 132.823H40.5449ZM48.3242 137H47.2031V135.927H47.1758C46.9342 136.337 46.6357 136.647 46.2803 136.856C45.9248 137.062 45.5146 137.164 45.0498 137.164C44.389 137.164 43.8558 136.975 43.4502 136.597C43.0492 136.214 42.8486 135.71 42.8486 135.086C42.8486 134.48 43.0537 133.983 43.4639 133.596C43.874 133.208 44.4528 132.96 45.2002 132.851L47.2031 132.591V132.393C47.2031 131.818 47.0664 131.408 46.793 131.162C46.5195 130.911 46.1549 130.786 45.6992 130.786C45.3255 130.786 44.9746 130.859 44.6465 131.005C44.3184 131.146 44.0153 131.363 43.7373 131.654L43.0332 131.012C43.4069 130.615 43.8171 130.321 44.2637 130.13C44.7103 129.934 45.2116 129.836 45.7676 129.836C46.6107 129.836 47.2464 130.055 47.6748 130.492C48.1077 130.925 48.3242 131.57 48.3242 132.427V137ZM47.2031 134.156V133.486L45.4805 133.719C44.9746 133.787 44.5941 133.917 44.3389 134.108C44.0882 134.295 43.9629 134.585 43.9629 134.977C43.9629 135.387 44.0837 135.703 44.3252 135.927C44.5713 136.146 44.8721 136.255 45.2275 136.255C45.8291 136.255 46.3076 136.057 46.6631 135.66C47.0231 135.264 47.2031 134.762 47.2031 134.156ZM55.3037 135.831C55.0439 136.273 54.7135 136.606 54.3125 136.829C53.916 137.052 53.4466 137.164 52.9043 137.164C52.0111 137.164 51.3001 136.852 50.7715 136.228C50.2474 135.599 49.9854 134.744 49.9854 133.664C49.9854 132.502 50.277 131.575 50.8604 130.882C51.4482 130.185 52.2275 129.836 53.1982 129.836C53.6813 129.836 54.0983 129.929 54.4492 130.116C54.8001 130.303 55.085 130.581 55.3037 130.95H55.3311V126.637H56.4521V137H55.3311V135.831H55.3037ZM51.1338 133.609C51.1338 134.416 51.3206 135.052 51.6943 135.517C52.068 135.981 52.5716 136.214 53.2051 136.214C53.8431 136.214 54.3558 135.991 54.7432 135.544C55.1351 135.093 55.3311 134.523 55.3311 133.835V132.803C55.3311 132.238 55.1419 131.761 54.7637 131.374C54.3854 130.982 53.9092 130.786 53.335 130.786C52.6514 130.786 52.1136 131.035 51.7217 131.531C51.3298 132.028 51.1338 132.721 51.1338 133.609ZM64.3477 133.746H59.3848C59.3984 134.544 59.6058 135.154 60.0068 135.578C60.4079 136.002 60.9593 136.214 61.6611 136.214C61.9893 136.214 62.3105 136.159 62.625 136.05C62.944 135.94 63.2539 135.772 63.5547 135.544L64.1289 136.296C63.7507 136.583 63.3564 136.799 62.9463 136.945C62.5361 137.091 62.0781 137.164 61.5723 137.164C60.5332 137.164 59.7152 136.852 59.1182 136.228C58.5257 135.599 58.2295 134.717 58.2295 133.582C58.2249 132.465 58.5212 131.563 59.1182 130.875C59.7197 130.182 60.4967 129.836 61.4492 129.836C62.3698 129.836 63.083 130.132 63.5889 130.725C64.0947 131.317 64.3477 132.137 64.3477 133.186V133.746ZM63.1992 132.823C63.1947 132.185 63.0352 131.686 62.7207 131.326C62.4108 130.966 61.9801 130.786 61.4287 130.786C60.891 130.786 60.4375 130.973 60.0684 131.347C59.6992 131.716 59.4759 132.208 59.3984 132.823H63.1992ZM69.4883 130.971C69.4017 130.939 69.3197 130.916 69.2422 130.902C69.1647 130.889 69.0713 130.882 68.9619 130.882C68.4014 130.882 67.957 131.126 67.6289 131.613C67.3053 132.096 67.1436 132.702 67.1436 133.432V137H66.0225V130H67.1436V131.374H67.1709C67.3304 130.886 67.5742 130.515 67.9023 130.26C68.2305 130.005 68.6064 129.877 69.0303 129.877C69.1761 129.877 69.3014 129.886 69.4062 129.904C69.5111 129.918 69.6113 129.943 69.707 129.979L69.4883 130.971Z" fill="black" fill-opacity="0.8956"/>
<rect x="25.5" y="149.5" width="117" height="31" rx="3.5" fill="white" fill-opacity="0.7"/>
<rect x="25.5" y="149.5" width="117" height="31" rx="3.5" stroke="url(#paint1_linear_107610_281774)"/>
<path d="M44.0479 161.236H41.2178V170H40.0693V161.236H37.2461V160.197H44.0479V161.236ZM49.7148 166.746H44.752C44.7656 167.544 44.973 168.154 45.374 168.578C45.7751 169.002 46.3265 169.214 47.0283 169.214C47.3564 169.214 47.6777 169.159 47.9922 169.05C48.3112 168.94 48.6211 168.772 48.9219 168.544L49.4961 169.296C49.1178 169.583 48.7236 169.799 48.3135 169.945C47.9033 170.091 47.4453 170.164 46.9395 170.164C45.9004 170.164 45.0824 169.852 44.4854 169.228C43.8929 168.599 43.5967 167.717 43.5967 166.582C43.5921 165.465 43.8883 164.563 44.4854 163.875C45.0869 163.182 45.8639 162.836 46.8164 162.836C47.737 162.836 48.4502 163.132 48.9561 163.725C49.4619 164.317 49.7148 165.137 49.7148 166.186V166.746ZM48.5664 165.823C48.5618 165.185 48.4023 164.686 48.0879 164.326C47.778 163.966 47.3473 163.786 46.7959 163.786C46.2581 163.786 45.8047 163.973 45.4355 164.347C45.0664 164.716 44.8431 165.208 44.7656 165.823H48.5664ZM56.5029 163L54.1514 166.541L56.4619 170H55.1562L53.7822 167.744C53.7367 167.671 53.6888 167.591 53.6387 167.505C53.5885 167.418 53.5339 167.32 53.4746 167.211H53.4473C53.4336 167.229 53.3994 167.284 53.3447 167.375C53.2946 167.466 53.2194 167.589 53.1191 167.744L51.7178 170H50.4326L52.8184 166.568L50.5352 163H51.834L53.1943 165.372C53.2445 165.463 53.2923 165.554 53.3379 165.646C53.388 165.737 53.4382 165.828 53.4883 165.919H53.5156C53.5703 165.828 53.6227 165.737 53.6729 165.646C53.7275 165.554 53.7845 165.463 53.8438 165.372L55.2656 163H56.5029ZM61.1787 169.87C60.9827 169.966 60.7891 170.036 60.5977 170.082C60.4062 170.128 60.1875 170.15 59.9414 170.15C59.3854 170.15 58.9502 169.989 58.6357 169.665C58.3213 169.341 58.1641 168.865 58.1641 168.236V163.957H56.9609V163H58.1641V161.298L59.2852 160.956V163H61.0625V163.957H59.2852V168.113C59.2852 168.505 59.3558 168.788 59.4971 168.961C59.6383 169.134 59.8503 169.221 60.1328 169.221C60.2695 169.221 60.4017 169.205 60.5293 169.173C60.6569 169.136 60.7686 169.089 60.8643 169.029L61.1787 169.87Z" fill="black" fill-opacity="0.8956"/>
<path d="M118.998 163.5C118.998 163.43 119.012 163.365 119.039 163.307C119.066 163.244 119.102 163.191 119.145 163.148C119.191 163.102 119.244 163.064 119.303 163.037C119.365 163.01 119.432 162.996 119.502 162.996C119.576 162.996 119.641 163.01 119.695 163.037C119.75 163.061 119.803 163.098 119.854 163.148L123 166.295L126.146 163.148C126.248 163.047 126.365 162.996 126.498 162.996C126.568 162.996 126.633 163.01 126.691 163.037C126.754 163.064 126.807 163.102 126.85 163.148C126.896 163.191 126.934 163.244 126.961 163.307C126.988 163.365 127.002 163.43 127.002 163.5C127.002 163.637 126.953 163.754 126.855 163.852L123.352 167.355C123.254 167.453 123.137 167.502 123 167.502C122.863 167.502 122.746 167.453 122.648 167.355L119.145 163.852C119.047 163.754 118.998 163.637 118.998 163.5Z" fill="black" fill-opacity="0.6063"/>
<path d="M33.6475 238H32.499V233.529H27.4268V238H26.2783V228.197H27.4268V232.497H32.499V228.197H33.6475V238ZM41.6934 234.746H36.7305C36.7441 235.544 36.9515 236.154 37.3525 236.578C37.7536 237.002 38.305 237.214 39.0068 237.214C39.335 237.214 39.6562 237.159 39.9707 237.05C40.2897 236.94 40.5996 236.772 40.9004 236.544L41.4746 237.296C41.0964 237.583 40.7021 237.799 40.292 237.945C39.8818 238.091 39.4238 238.164 38.918 238.164C37.8789 238.164 37.0609 237.852 36.4639 237.228C35.8714 236.599 35.5752 235.717 35.5752 234.582C35.5706 233.465 35.8669 232.563 36.4639 231.875C37.0654 231.182 37.8424 230.836 38.7949 230.836C39.7155 230.836 40.4287 231.132 40.9346 231.725C41.4404 232.317 41.6934 233.137 41.6934 234.186V234.746ZM40.5449 233.823C40.5404 233.185 40.3809 232.686 40.0664 232.326C39.7565 231.966 39.3258 231.786 38.7744 231.786C38.2367 231.786 37.7832 231.973 37.4141 232.347C37.0449 232.716 36.8216 233.208 36.7441 233.823H40.5449ZM48.3242 238H47.2031V236.927H47.1758C46.9342 237.337 46.6357 237.647 46.2803 237.856C45.9248 238.062 45.5146 238.164 45.0498 238.164C44.389 238.164 43.8558 237.975 43.4502 237.597C43.0492 237.214 42.8486 236.71 42.8486 236.086C42.8486 235.48 43.0537 234.983 43.4639 234.596C43.874 234.208 44.4528 233.96 45.2002 233.851L47.2031 233.591V233.393C47.2031 232.818 47.0664 232.408 46.793 232.162C46.5195 231.911 46.1549 231.786 45.6992 231.786C45.3255 231.786 44.9746 231.859 44.6465 232.005C44.3184 232.146 44.0153 232.363 43.7373 232.654L43.0332 232.012C43.4069 231.615 43.8171 231.321 44.2637 231.13C44.7103 230.934 45.2116 230.836 45.7676 230.836C46.6107 230.836 47.2464 231.055 47.6748 231.492C48.1077 231.925 48.3242 232.57 48.3242 233.427V238ZM47.2031 235.156V234.486L45.4805 234.719C44.9746 234.787 44.5941 234.917 44.3389 235.108C44.0882 235.295 43.9629 235.585 43.9629 235.977C43.9629 236.387 44.0837 236.703 44.3252 236.927C44.5713 237.146 44.8721 237.255 45.2275 237.255C45.8291 237.255 46.3076 237.057 46.6631 236.66C47.0231 236.264 47.2031 235.762 47.2031 235.156ZM55.3037 236.831C55.0439 237.273 54.7135 237.606 54.3125 237.829C53.916 238.052 53.4466 238.164 52.9043 238.164C52.0111 238.164 51.3001 237.852 50.7715 237.228C50.2474 236.599 49.9854 235.744 49.9854 234.664C49.9854 233.502 50.277 232.575 50.8604 231.882C51.4482 231.185 52.2275 230.836 53.1982 230.836C53.6813 230.836 54.0983 230.929 54.4492 231.116C54.8001 231.303 55.085 231.581 55.3037 231.95H55.3311V227.637H56.4521V238H55.3311V236.831H55.3037ZM51.1338 234.609C51.1338 235.416 51.3206 236.052 51.6943 236.517C52.068 236.981 52.5716 237.214 53.2051 237.214C53.8431 237.214 54.3558 236.991 54.7432 236.544C55.1351 236.093 55.3311 235.523 55.3311 234.835V233.803C55.3311 233.238 55.1419 232.761 54.7637 232.374C54.3854 231.982 53.9092 231.786 53.335 231.786C52.6514 231.786 52.1136 232.035 51.7217 232.531C51.3298 233.028 51.1338 233.721 51.1338 234.609ZM64.3477 234.746H59.3848C59.3984 235.544 59.6058 236.154 60.0068 236.578C60.4079 237.002 60.9593 237.214 61.6611 237.214C61.9893 237.214 62.3105 237.159 62.625 237.05C62.944 236.94 63.2539 236.772 63.5547 236.544L64.1289 237.296C63.7507 237.583 63.3564 237.799 62.9463 237.945C62.5361 238.091 62.0781 238.164 61.5723 238.164C60.5332 238.164 59.7152 237.852 59.1182 237.228C58.5257 236.599 58.2295 235.717 58.2295 234.582C58.2249 233.465 58.5212 232.563 59.1182 231.875C59.7197 231.182 60.4967 230.836 61.4492 230.836C62.3698 230.836 63.083 231.132 63.5889 231.725C64.0947 232.317 64.3477 233.137 64.3477 234.186V234.746ZM63.1992 233.823C63.1947 233.185 63.0352 232.686 62.7207 232.326C62.4108 231.966 61.9801 231.786 61.4287 231.786C60.891 231.786 60.4375 231.973 60.0684 232.347C59.6992 232.716 59.4759 233.208 59.3984 233.823H63.1992ZM69.4883 231.971C69.4017 231.939 69.3197 231.916 69.2422 231.902C69.1647 231.889 69.0713 231.882 68.9619 231.882C68.4014 231.882 67.957 232.126 67.6289 232.613C67.3053 233.096 67.1436 233.702 67.1436 234.432V238H66.0225V231H67.1436V232.374H67.1709C67.3304 231.886 67.5742 231.515 67.9023 231.26C68.2305 231.005 68.6064 230.877 69.0303 230.877C69.1761 230.877 69.3014 230.886 69.4062 230.904C69.5111 230.918 69.6113 230.943 69.707 230.979L69.4883 231.971Z" fill="black" fill-opacity="0.8956"/>
<rect x="25.5" y="250.5" width="117" height="31" rx="3.5" fill="white" fill-opacity="0.7"/>
<rect x="25.5" y="250.5" width="117" height="31" rx="3.5" stroke="url(#paint2_linear_107610_281774)"/>
<rect width="29" height="22" transform="translate(35 255)" fill="#0078D4"/>
<path d="M44.0479 262.236H41.2178V271H40.0693V262.236H37.2461V261.197H44.0479V262.236ZM49.7148 267.746H44.752C44.7656 268.544 44.973 269.154 45.374 269.578C45.7751 270.002 46.3265 270.214 47.0283 270.214C47.3564 270.214 47.6777 270.159 47.9922 270.05C48.3112 269.94 48.6211 269.772 48.9219 269.544L49.4961 270.296C49.1178 270.583 48.7236 270.799 48.3135 270.945C47.9033 271.091 47.4453 271.164 46.9395 271.164C45.9004 271.164 45.0824 270.852 44.4854 270.228C43.8929 269.599 43.5967 268.717 43.5967 267.582C43.5921 266.465 43.8883 265.563 44.4854 264.875C45.0869 264.182 45.8639 263.836 46.8164 263.836C47.737 263.836 48.4502 264.132 48.9561 264.725C49.4619 265.317 49.7148 266.137 49.7148 267.186V267.746ZM48.5664 266.823C48.5618 266.185 48.4023 265.686 48.0879 265.326C47.778 264.966 47.3473 264.786 46.7959 264.786C46.2581 264.786 45.8047 264.973 45.4355 265.347C45.0664 265.716 44.8431 266.208 44.7656 266.823H48.5664ZM56.5029 264L54.1514 267.541L56.4619 271H55.1562L53.7822 268.744C53.7367 268.671 53.6888 268.591 53.6387 268.505C53.5885 268.418 53.5339 268.32 53.4746 268.211H53.4473C53.4336 268.229 53.3994 268.284 53.3447 268.375C53.2946 268.466 53.2194 268.589 53.1191 268.744L51.7178 271H50.4326L52.8184 267.568L50.5352 264H51.834L53.1943 266.372C53.2445 266.463 53.2923 266.554 53.3379 266.646C53.388 266.737 53.4382 266.828 53.4883 266.919H53.5156C53.5703 266.828 53.6227 266.737 53.6729 266.646C53.7275 266.554 53.7845 266.463 53.8438 266.372L55.2656 264H56.5029ZM61.1787 270.87C60.9827 270.966 60.7891 271.036 60.5977 271.082C60.4062 271.128 60.1875 271.15 59.9414 271.15C59.3854 271.15 58.9502 270.989 58.6357 270.665C58.3213 270.341 58.1641 269.865 58.1641 269.236V264.957H56.9609V264H58.1641V262.298L59.2852 261.956V264H61.0625V264.957H59.2852V269.113C59.2852 269.505 59.3558 269.788 59.4971 269.961C59.6383 270.134 59.8503 270.221 60.1328 270.221C60.2695 270.221 60.4017 270.205 60.5293 270.173C60.6569 270.136 60.7686 270.089 60.8643 270.029L61.1787 270.87Z" fill="white"/>
<path d="M118.998 264.5C118.998 264.43 119.012 264.365 119.039 264.307C119.066 264.244 119.102 264.191 119.145 264.148C119.191 264.102 119.244 264.064 119.303 264.037C119.365 264.01 119.432 263.996 119.502 263.996C119.576 263.996 119.641 264.01 119.695 264.037C119.75 264.061 119.803 264.098 119.854 264.148L123 267.295L126.146 264.148C126.248 264.047 126.365 263.996 126.498 263.996C126.568 263.996 126.633 264.01 126.691 264.037C126.754 264.064 126.807 264.102 126.85 264.148C126.896 264.191 126.934 264.244 126.961 264.307C126.988 264.365 127.002 264.43 127.002 264.5C127.002 264.637 126.953 264.754 126.855 264.852L123.352 268.355C123.254 268.453 123.137 268.502 123 268.502C122.863 268.502 122.746 268.453 122.648 268.355L119.145 264.852C119.047 264.754 118.998 264.637 118.998 264.5Z" fill="black" fill-opacity="0.6063"/>
<path d="M170.647 36H169.499V31.5293H164.427V36H163.278V26.1973H164.427V30.4971H169.499V26.1973H170.647V36ZM178.693 32.7461H173.73C173.744 33.5436 173.951 34.1543 174.353 34.5781C174.754 35.002 175.305 35.2139 176.007 35.2139C176.335 35.2139 176.656 35.1592 176.971 35.0498C177.29 34.9404 177.6 34.7718 177.9 34.5439L178.475 35.2959C178.096 35.583 177.702 35.7995 177.292 35.9453C176.882 36.0911 176.424 36.1641 175.918 36.1641C174.879 36.1641 174.061 35.8519 173.464 35.2275C172.871 34.5986 172.575 33.7168 172.575 32.582C172.571 31.4655 172.867 30.5632 173.464 29.875C174.065 29.1823 174.842 28.8359 175.795 28.8359C176.715 28.8359 177.429 29.1322 177.935 29.7246C178.44 30.3171 178.693 31.1374 178.693 32.1855V32.7461ZM177.545 31.8232C177.54 31.1852 177.381 30.6862 177.066 30.3262C176.757 29.9661 176.326 29.7861 175.774 29.7861C175.237 29.7861 174.783 29.973 174.414 30.3467C174.045 30.7158 173.822 31.208 173.744 31.8232H177.545ZM185.324 36H184.203V34.9268H184.176C183.934 35.3369 183.636 35.6468 183.28 35.8564C182.925 36.0615 182.515 36.1641 182.05 36.1641C181.389 36.1641 180.856 35.9749 180.45 35.5967C180.049 35.2139 179.849 34.7103 179.849 34.0859C179.849 33.4798 180.054 32.9831 180.464 32.5957C180.874 32.2083 181.453 31.96 182.2 31.8506L184.203 31.5908V31.3926C184.203 30.8184 184.066 30.4082 183.793 30.1621C183.52 29.9115 183.155 29.7861 182.699 29.7861C182.326 29.7861 181.975 29.859 181.646 30.0049C181.318 30.1462 181.015 30.3626 180.737 30.6543L180.033 30.0117C180.407 29.6152 180.817 29.3213 181.264 29.1299C181.71 28.9339 182.212 28.8359 182.768 28.8359C183.611 28.8359 184.246 29.0547 184.675 29.4922C185.108 29.9251 185.324 30.57 185.324 31.4268V36ZM184.203 33.1562V32.4863L182.48 32.7188C181.975 32.7871 181.594 32.917 181.339 33.1084C181.088 33.2952 180.963 33.5846 180.963 33.9766C180.963 34.3867 181.084 34.7035 181.325 34.9268C181.571 35.1455 181.872 35.2549 182.228 35.2549C182.829 35.2549 183.308 35.0566 183.663 34.6602C184.023 34.2637 184.203 33.7624 184.203 33.1562ZM192.304 34.8311C192.044 35.2731 191.714 35.6058 191.312 35.8291C190.916 36.0524 190.447 36.1641 189.904 36.1641C189.011 36.1641 188.3 35.8519 187.771 35.2275C187.247 34.5986 186.985 33.7441 186.985 32.6641C186.985 31.502 187.277 30.5745 187.86 29.8818C188.448 29.1846 189.228 28.8359 190.198 28.8359C190.681 28.8359 191.098 28.9294 191.449 29.1162C191.8 29.3031 192.085 29.5811 192.304 29.9502H192.331V25.6367H193.452V36H192.331V34.8311H192.304ZM188.134 32.6094C188.134 33.416 188.321 34.0518 188.694 34.5166C189.068 34.9814 189.572 35.2139 190.205 35.2139C190.843 35.2139 191.356 34.9906 191.743 34.5439C192.135 34.0928 192.331 33.5231 192.331 32.835V31.8027C192.331 31.2376 192.142 30.7614 191.764 30.374C191.385 29.9821 190.909 29.7861 190.335 29.7861C189.651 29.7861 189.114 30.0345 188.722 30.5312C188.33 31.028 188.134 31.7207 188.134 32.6094ZM201.348 32.7461H196.385C196.398 33.5436 196.606 34.1543 197.007 34.5781C197.408 35.002 197.959 35.2139 198.661 35.2139C198.989 35.2139 199.311 35.1592 199.625 35.0498C199.944 34.9404 200.254 34.7718 200.555 34.5439L201.129 35.2959C200.751 35.583 200.356 35.7995 199.946 35.9453C199.536 36.0911 199.078 36.1641 198.572 36.1641C197.533 36.1641 196.715 35.8519 196.118 35.2275C195.526 34.5986 195.229 33.7168 195.229 32.582C195.225 31.4655 195.521 30.5632 196.118 29.875C196.72 29.1823 197.497 28.8359 198.449 28.8359C199.37 28.8359 200.083 29.1322 200.589 29.7246C201.095 30.3171 201.348 31.1374 201.348 32.1855V32.7461ZM200.199 31.8232C200.195 31.1852 200.035 30.6862 199.721 30.3262C199.411 29.9661 198.98 29.7861 198.429 29.7861C197.891 29.7861 197.438 29.973 197.068 30.3467C196.699 30.7158 196.476 31.208 196.398 31.8232H200.199ZM206.488 29.9707C206.402 29.9388 206.32 29.916 206.242 29.9023C206.165 29.8887 206.071 29.8818 205.962 29.8818C205.401 29.8818 204.957 30.1257 204.629 30.6133C204.305 31.0964 204.144 31.7025 204.144 32.4316V36H203.022V29H204.144V30.374H204.171C204.33 29.8864 204.574 29.515 204.902 29.2598C205.23 29.0046 205.606 28.877 206.03 28.877C206.176 28.877 206.301 28.8861 206.406 28.9043C206.511 28.918 206.611 28.943 206.707 28.9795L206.488 29.9707Z" fill="black" fill-opacity="0.8956"/>
<rect x="162.5" y="48.5" width="117" height="31" rx="3.5" fill="white" fill-opacity="0.7"/>
<rect x="162.5" y="48.5" width="117" height="31" rx="3.5" stroke="url(#paint3_linear_107610_281774)"/>
<g clip-path="url(#clip0_107610_281774)">
<path d="M181.048 60.2363H178.218V69H177.069V60.2363H174.246V59.1973H181.048V60.2363ZM186.715 65.7461H181.752C181.766 66.5436 181.973 67.1543 182.374 67.5781C182.775 68.002 183.326 68.2139 184.028 68.2139C184.356 68.2139 184.678 68.1592 184.992 68.0498C185.311 67.9404 185.621 67.7718 185.922 67.5439L186.496 68.2959C186.118 68.583 185.724 68.7995 185.313 68.9453C184.903 69.0911 184.445 69.1641 183.939 69.1641C182.9 69.1641 182.082 68.8519 181.485 68.2275C180.893 67.5986 180.597 66.7168 180.597 65.582C180.592 64.4655 180.888 63.5632 181.485 62.875C182.087 62.1823 182.864 61.8359 183.816 61.8359C184.737 61.8359 185.45 62.1322 185.956 62.7246C186.462 63.3171 186.715 64.1374 186.715 65.1855V65.7461ZM185.566 64.8232C185.562 64.1852 185.402 63.6862 185.088 63.3262C184.778 62.9661 184.347 62.7861 183.796 62.7861C183.258 62.7861 182.805 62.973 182.436 63.3467C182.066 63.7158 181.843 64.208 181.766 64.8232H185.566ZM193.503 62L191.151 65.541L193.462 69H192.156L190.782 66.7441C190.737 66.6712 190.689 66.5915 190.639 66.5049C190.589 66.4183 190.534 66.3203 190.475 66.2109H190.447C190.434 66.2292 190.399 66.2839 190.345 66.375C190.295 66.4661 190.219 66.5892 190.119 66.7441L188.718 69H187.433L189.818 65.5684L187.535 62H188.834L190.194 64.3721C190.244 64.4632 190.292 64.5544 190.338 64.6455C190.388 64.7367 190.438 64.8278 190.488 64.9189H190.516C190.57 64.8278 190.623 64.7367 190.673 64.6455C190.728 64.5544 190.785 64.4632 190.844 64.3721L192.266 62H193.503ZM198.179 68.8701C197.983 68.9658 197.789 69.0365 197.598 69.082C197.406 69.1276 197.188 69.1504 196.941 69.1504C196.385 69.1504 195.95 68.9886 195.636 68.665C195.321 68.3415 195.164 67.8652 195.164 67.2363V62.957H193.961V62H195.164V60.2979L196.285 59.9561V62H198.062V62.957H196.285V67.1133C196.285 67.5052 196.356 67.7878 196.497 67.9609C196.638 68.1341 196.85 68.2207 197.133 68.2207C197.27 68.2207 197.402 68.2048 197.529 68.1729C197.657 68.1364 197.769 68.0885 197.864 68.0293L198.179 68.8701Z" fill="black" fill-opacity="0.6063"/>
</g>
<path d="M255.998 62.5C255.998 62.4297 256.012 62.3652 256.039 62.3066C256.066 62.2441 256.102 62.1914 256.145 62.1484C256.191 62.1016 256.244 62.0645 256.303 62.0371C256.365 62.0098 256.432 61.9961 256.502 61.9961C256.576 61.9961 256.641 62.0098 256.695 62.0371C256.75 62.0605 256.803 62.0977 256.854 62.1484L260 65.2949L263.146 62.1484C263.248 62.0469 263.365 61.9961 263.498 61.9961C263.568 61.9961 263.633 62.0098 263.691 62.0371C263.754 62.0645 263.807 62.1016 263.85 62.1484C263.896 62.1914 263.934 62.2441 263.961 62.3066C263.988 62.3652 264.002 62.4297 264.002 62.5C264.002 62.6367 263.953 62.7539 263.855 62.8516L260.352 66.3555C260.254 66.4531 260.137 66.502 260 66.502C259.863 66.502 259.746 66.4531 259.648 66.3555L256.145 62.8516C256.047 62.7539 255.998 62.6367 255.998 62.5Z" fill="black" fill-opacity="0.6063"/>
<path d="M170.647 137H169.499V132.529H164.427V137H163.278V127.197H164.427V131.497H169.499V127.197H170.647V137ZM178.693 133.746H173.73C173.744 134.544 173.951 135.154 174.353 135.578C174.754 136.002 175.305 136.214 176.007 136.214C176.335 136.214 176.656 136.159 176.971 136.05C177.29 135.94 177.6 135.772 177.9 135.544L178.475 136.296C178.096 136.583 177.702 136.799 177.292 136.945C176.882 137.091 176.424 137.164 175.918 137.164C174.879 137.164 174.061 136.852 173.464 136.228C172.871 135.599 172.575 134.717 172.575 133.582C172.571 132.465 172.867 131.563 173.464 130.875C174.065 130.182 174.842 129.836 175.795 129.836C176.715 129.836 177.429 130.132 177.935 130.725C178.44 131.317 178.693 132.137 178.693 133.186V133.746ZM177.545 132.823C177.54 132.185 177.381 131.686 177.066 131.326C176.757 130.966 176.326 130.786 175.774 130.786C175.237 130.786 174.783 130.973 174.414 131.347C174.045 131.716 173.822 132.208 173.744 132.823H177.545ZM185.324 137H184.203V135.927H184.176C183.934 136.337 183.636 136.647 183.28 136.856C182.925 137.062 182.515 137.164 182.05 137.164C181.389 137.164 180.856 136.975 180.45 136.597C180.049 136.214 179.849 135.71 179.849 135.086C179.849 134.48 180.054 133.983 180.464 133.596C180.874 133.208 181.453 132.96 182.2 132.851L184.203 132.591V132.393C184.203 131.818 184.066 131.408 183.793 131.162C183.52 130.911 183.155 130.786 182.699 130.786C182.326 130.786 181.975 130.859 181.646 131.005C181.318 131.146 181.015 131.363 180.737 131.654L180.033 131.012C180.407 130.615 180.817 130.321 181.264 130.13C181.71 129.934 182.212 129.836 182.768 129.836C183.611 129.836 184.246 130.055 184.675 130.492C185.108 130.925 185.324 131.57 185.324 132.427V137ZM184.203 134.156V133.486L182.48 133.719C181.975 133.787 181.594 133.917 181.339 134.108C181.088 134.295 180.963 134.585 180.963 134.977C180.963 135.387 181.084 135.703 181.325 135.927C181.571 136.146 181.872 136.255 182.228 136.255C182.829 136.255 183.308 136.057 183.663 135.66C184.023 135.264 184.203 134.762 184.203 134.156ZM192.304 135.831C192.044 136.273 191.714 136.606 191.312 136.829C190.916 137.052 190.447 137.164 189.904 137.164C189.011 137.164 188.3 136.852 187.771 136.228C187.247 135.599 186.985 134.744 186.985 133.664C186.985 132.502 187.277 131.575 187.86 130.882C188.448 130.185 189.228 129.836 190.198 129.836C190.681 129.836 191.098 129.929 191.449 130.116C191.8 130.303 192.085 130.581 192.304 130.95H192.331V126.637H193.452V137H192.331V135.831H192.304ZM188.134 133.609C188.134 134.416 188.321 135.052 188.694 135.517C189.068 135.981 189.572 136.214 190.205 136.214C190.843 136.214 191.356 135.991 191.743 135.544C192.135 135.093 192.331 134.523 192.331 133.835V132.803C192.331 132.238 192.142 131.761 191.764 131.374C191.385 130.982 190.909 130.786 190.335 130.786C189.651 130.786 189.114 131.035 188.722 131.531C188.33 132.028 188.134 132.721 188.134 133.609ZM201.348 133.746H196.385C196.398 134.544 196.606 135.154 197.007 135.578C197.408 136.002 197.959 136.214 198.661 136.214C198.989 136.214 199.311 136.159 199.625 136.05C199.944 135.94 200.254 135.772 200.555 135.544L201.129 136.296C200.751 136.583 200.356 136.799 199.946 136.945C199.536 137.091 199.078 137.164 198.572 137.164C197.533 137.164 196.715 136.852 196.118 136.228C195.526 135.599 195.229 134.717 195.229 133.582C195.225 132.465 195.521 131.563 196.118 130.875C196.72 130.182 197.497 129.836 198.449 129.836C199.37 129.836 200.083 130.132 200.589 130.725C201.095 131.317 201.348 132.137 201.348 133.186V133.746ZM200.199 132.823C200.195 132.185 200.035 131.686 199.721 131.326C199.411 130.966 198.98 130.786 198.429 130.786C197.891 130.786 197.438 130.973 197.068 131.347C196.699 131.716 196.476 132.208 196.398 132.823H200.199ZM206.488 130.971C206.402 130.939 206.32 130.916 206.242 130.902C206.165 130.889 206.071 130.882 205.962 130.882C205.401 130.882 204.957 131.126 204.629 131.613C204.305 132.096 204.144 132.702 204.144 133.432V137H203.022V130H204.144V131.374H204.171C204.33 130.886 204.574 130.515 204.902 130.26C205.23 130.005 205.606 129.877 206.03 129.877C206.176 129.877 206.301 129.886 206.406 129.904C206.511 129.918 206.611 129.943 206.707 129.979L206.488 130.971Z" fill="black" fill-opacity="0.8956"/>
<rect x="162.5" y="149.5" width="117" height="31" rx="3.5" fill="white" fill-opacity="0.7"/>
<rect x="162.5" y="149.5" width="117" height="31" rx="3.5" stroke="url(#paint4_linear_107610_281774)"/>
<g clip-path="url(#clip1_107610_281774)">
<path d="M181.048 161.236H178.218V170H177.069V161.236H174.246V160.197H181.048V161.236ZM186.715 166.746H181.752C181.766 167.544 181.973 168.154 182.374 168.578C182.775 169.002 183.326 169.214 184.028 169.214C184.356 169.214 184.678 169.159 184.992 169.05C185.311 168.94 185.621 168.772 185.922 168.544L186.496 169.296C186.118 169.583 185.724 169.799 185.313 169.945C184.903 170.091 184.445 170.164 183.939 170.164C182.9 170.164 182.082 169.852 181.485 169.228C180.893 168.599 180.597 167.717 180.597 166.582C180.592 165.465 180.888 164.563 181.485 163.875C182.087 163.182 182.864 162.836 183.816 162.836C184.737 162.836 185.45 163.132 185.956 163.725C186.462 164.317 186.715 165.137 186.715 166.186V166.746ZM185.566 165.823C185.562 165.185 185.402 164.686 185.088 164.326C184.778 163.966 184.347 163.786 183.796 163.786C183.258 163.786 182.805 163.973 182.436 164.347C182.066 164.716 181.843 165.208 181.766 165.823H185.566ZM193.503 163L191.151 166.541L193.462 170H192.156L190.782 167.744C190.737 167.671 190.689 167.591 190.639 167.505C190.589 167.418 190.534 167.32 190.475 167.211H190.447C190.434 167.229 190.399 167.284 190.345 167.375C190.295 167.466 190.219 167.589 190.119 167.744L188.718 170H187.433L189.818 166.568L187.535 163H188.834L190.194 165.372C190.244 165.463 190.292 165.554 190.338 165.646C190.388 165.737 190.438 165.828 190.488 165.919H190.516C190.57 165.828 190.623 165.737 190.673 165.646C190.728 165.554 190.785 165.463 190.844 165.372L192.266 163H193.503ZM198.179 169.87C197.983 169.966 197.789 170.036 197.598 170.082C197.406 170.128 197.188 170.15 196.941 170.15C196.385 170.15 195.95 169.989 195.636 169.665C195.321 169.341 195.164 168.865 195.164 168.236V163.957H193.961V163H195.164V161.298L196.285 160.956V163H198.062V163.957H196.285V168.113C196.285 168.505 196.356 168.788 196.497 168.961C196.638 169.134 196.85 169.221 197.133 169.221C197.27 169.221 197.402 169.205 197.529 169.173C197.657 169.136 197.769 169.089 197.864 169.029L198.179 169.87Z" fill="black" fill-opacity="0.8956"/>
</g>
<path d="M255.998 163.5C255.998 163.43 256.012 163.365 256.039 163.307C256.066 163.244 256.102 163.191 256.145 163.148C256.191 163.102 256.244 163.064 256.303 163.037C256.365 163.01 256.432 162.996 256.502 162.996C256.576 162.996 256.641 163.01 256.695 163.037C256.75 163.061 256.803 163.098 256.854 163.148L260 166.295L263.146 163.148C263.248 163.047 263.365 162.996 263.498 162.996C263.568 162.996 263.633 163.01 263.691 163.037C263.754 163.064 263.807 163.102 263.85 163.148C263.896 163.191 263.934 163.244 263.961 163.307C263.988 163.365 264.002 163.43 264.002 163.5C264.002 163.637 263.953 163.754 263.855 163.852L260.352 167.355C260.254 167.453 260.137 167.502 260 167.502C259.863 167.502 259.746 167.453 259.648 167.355L256.145 163.852C256.047 163.754 255.998 163.637 255.998 163.5Z" fill="black" fill-opacity="0.6063"/>
<path d="M170.647 238H169.499V233.529H164.427V238H163.278V228.197H164.427V232.497H169.499V228.197H170.647V238ZM178.693 234.746H173.73C173.744 235.544 173.951 236.154 174.353 236.578C174.754 237.002 175.305 237.214 176.007 237.214C176.335 237.214 176.656 237.159 176.971 237.05C177.29 236.94 177.6 236.772 177.9 236.544L178.475 237.296C178.096 237.583 177.702 237.799 177.292 237.945C176.882 238.091 176.424 238.164 175.918 238.164C174.879 238.164 174.061 237.852 173.464 237.228C172.871 236.599 172.575 235.717 172.575 234.582C172.571 233.465 172.867 232.563 173.464 231.875C174.065 231.182 174.842 230.836 175.795 230.836C176.715 230.836 177.429 231.132 177.935 231.725C178.44 232.317 178.693 233.137 178.693 234.186V234.746ZM177.545 233.823C177.54 233.185 177.381 232.686 177.066 232.326C176.757 231.966 176.326 231.786 175.774 231.786C175.237 231.786 174.783 231.973 174.414 232.347C174.045 232.716 173.822 233.208 173.744 233.823H177.545ZM185.324 238H184.203V236.927H184.176C183.934 237.337 183.636 237.647 183.28 237.856C182.925 238.062 182.515 238.164 182.05 238.164C181.389 238.164 180.856 237.975 180.45 237.597C180.049 237.214 179.849 236.71 179.849 236.086C179.849 235.48 180.054 234.983 180.464 234.596C180.874 234.208 181.453 233.96 182.2 233.851L184.203 233.591V233.393C184.203 232.818 184.066 232.408 183.793 232.162C183.52 231.911 183.155 231.786 182.699 231.786C182.326 231.786 181.975 231.859 181.646 232.005C181.318 232.146 181.015 232.363 180.737 232.654L180.033 232.012C180.407 231.615 180.817 231.321 181.264 231.13C181.71 230.934 182.212 230.836 182.768 230.836C183.611 230.836 184.246 231.055 184.675 231.492C185.108 231.925 185.324 232.57 185.324 233.427V238ZM184.203 235.156V234.486L182.48 234.719C181.975 234.787 181.594 234.917 181.339 235.108C181.088 235.295 180.963 235.585 180.963 235.977C180.963 236.387 181.084 236.703 181.325 236.927C181.571 237.146 181.872 237.255 182.228 237.255C182.829 237.255 183.308 237.057 183.663 236.66C184.023 236.264 184.203 235.762 184.203 235.156ZM192.304 236.831C192.044 237.273 191.714 237.606 191.312 237.829C190.916 238.052 190.447 238.164 189.904 238.164C189.011 238.164 188.3 237.852 187.771 237.228C187.247 236.599 186.985 235.744 186.985 234.664C186.985 233.502 187.277 232.575 187.86 231.882C188.448 231.185 189.228 230.836 190.198 230.836C190.681 230.836 191.098 230.929 191.449 231.116C191.8 231.303 192.085 231.581 192.304 231.95H192.331V227.637H193.452V238H192.331V236.831H192.304ZM188.134 234.609C188.134 235.416 188.321 236.052 188.694 236.517C189.068 236.981 189.572 237.214 190.205 237.214C190.843 237.214 191.356 236.991 191.743 236.544C192.135 236.093 192.331 235.523 192.331 234.835V233.803C192.331 233.238 192.142 232.761 191.764 232.374C191.385 231.982 190.909 231.786 190.335 231.786C189.651 231.786 189.114 232.035 188.722 232.531C188.33 233.028 188.134 233.721 188.134 234.609ZM201.348 234.746H196.385C196.398 235.544 196.606 236.154 197.007 236.578C197.408 237.002 197.959 237.214 198.661 237.214C198.989 237.214 199.311 237.159 199.625 237.05C199.944 236.94 200.254 236.772 200.555 236.544L201.129 237.296C200.751 237.583 200.356 237.799 199.946 237.945C199.536 238.091 199.078 238.164 198.572 238.164C197.533 238.164 196.715 237.852 196.118 237.228C195.526 236.599 195.229 235.717 195.229 234.582C195.225 233.465 195.521 232.563 196.118 231.875C196.72 231.182 197.497 230.836 198.449 230.836C199.37 230.836 200.083 231.132 200.589 231.725C201.095 232.317 201.348 233.137 201.348 234.186V234.746ZM200.199 233.823C200.195 233.185 200.035 232.686 199.721 232.326C199.411 231.966 198.98 231.786 198.429 231.786C197.891 231.786 197.438 231.973 197.068 232.347C196.699 232.716 196.476 233.208 196.398 233.823H200.199ZM206.488 231.971C206.402 231.939 206.32 231.916 206.242 231.902C206.165 231.889 206.071 231.882 205.962 231.882C205.401 231.882 204.957 232.126 204.629 232.613C204.305 233.096 204.144 233.702 204.144 234.432V238H203.022V231H204.144V232.374H204.171C204.33 231.886 204.574 231.515 204.902 231.26C205.23 231.005 205.606 230.877 206.03 230.877C206.176 230.877 206.301 230.886 206.406 230.904C206.511 230.918 206.611 230.943 206.707 230.979L206.488 231.971Z" fill="black" fill-opacity="0.8956"/>
<rect x="162.5" y="250.5" width="117" height="31" rx="3.5" fill="white" fill-opacity="0.7"/>
<rect x="162.5" y="250.5" width="117" height="31" rx="3.5" stroke="url(#paint5_linear_107610_281774)"/>
<g clip-path="url(#clip2_107610_281774)">
<rect width="29" height="22" transform="translate(172 255)" fill="#0078D4"/>
<path d="M181.048 262.236H178.218V271H177.069V262.236H174.246V261.197H181.048V262.236ZM186.715 267.746H181.752C181.766 268.544 181.973 269.154 182.374 269.578C182.775 270.002 183.326 270.214 184.028 270.214C184.356 270.214 184.678 270.159 184.992 270.05C185.311 269.94 185.621 269.772 185.922 269.544L186.496 270.296C186.118 270.583 185.724 270.799 185.313 270.945C184.903 271.091 184.445 271.164 183.939 271.164C182.9 271.164 182.082 270.852 181.485 270.228C180.893 269.599 180.597 268.717 180.597 267.582C180.592 266.465 180.888 265.563 181.485 264.875C182.087 264.182 182.864 263.836 183.816 263.836C184.737 263.836 185.45 264.132 185.956 264.725C186.462 265.317 186.715 266.137 186.715 267.186V267.746ZM185.566 266.823C185.562 266.185 185.402 265.686 185.088 265.326C184.778 264.966 184.347 264.786 183.796 264.786C183.258 264.786 182.805 264.973 182.436 265.347C182.066 265.716 181.843 266.208 181.766 266.823H185.566ZM193.503 264L191.151 267.541L193.462 271H192.156L190.782 268.744C190.737 268.671 190.689 268.591 190.639 268.505C190.589 268.418 190.534 268.32 190.475 268.211H190.447C190.434 268.229 190.399 268.284 190.345 268.375C190.295 268.466 190.219 268.589 190.119 268.744L188.718 271H187.433L189.818 267.568L187.535 264H188.834L190.194 266.372C190.244 266.463 190.292 266.554 190.338 266.646C190.388 266.737 190.438 266.828 190.488 266.919H190.516C190.57 266.828 190.623 266.737 190.673 266.646C190.728 266.554 190.785 266.463 190.844 266.372L192.266 264H193.503ZM198.179 270.87C197.983 270.966 197.789 271.036 197.598 271.082C197.406 271.128 197.188 271.15 196.941 271.15C196.385 271.15 195.95 270.989 195.636 270.665C195.321 270.341 195.164 269.865 195.164 269.236V264.957H193.961V264H195.164V262.298L196.285 261.956V264H198.062V264.957H196.285V269.113C196.285 269.505 196.356 269.788 196.497 269.961C196.638 270.134 196.85 270.221 197.133 270.221C197.27 270.221 197.402 270.205 197.529 270.173C197.657 270.136 197.769 270.089 197.864 270.029L198.179 270.87Z" fill="white"/>
</g>
<path d="M255.998 264.5C255.998 264.43 256.012 264.365 256.039 264.307C256.066 264.244 256.102 264.191 256.145 264.148C256.191 264.102 256.244 264.064 256.303 264.037C256.365 264.01 256.432 263.996 256.502 263.996C256.576 263.996 256.641 264.01 256.695 264.037C256.75 264.061 256.803 264.098 256.854 264.148L260 267.295L263.146 264.148C263.248 264.047 263.365 263.996 263.498 263.996C263.568 263.996 263.633 264.01 263.691 264.037C263.754 264.064 263.807 264.102 263.85 264.148C263.896 264.191 263.934 264.244 263.961 264.307C263.988 264.365 264.002 264.43 264.002 264.5C264.002 264.637 263.953 264.754 263.855 264.852L260.352 268.355C260.254 268.453 260.137 268.502 260 268.502C259.863 268.502 259.746 268.453 259.648 268.355L256.145 264.852C256.047 264.754 255.998 264.637 255.998 264.5Z" fill="black" fill-opacity="0.6063"/>
<defs>
<linearGradient id="paint0_linear_107610_281774" x1="84" y1="49" x2="84" y2="79" gradientUnits="userSpaceOnUse">
<stop offset="0.905762" stop-opacity="0.0578"/>
<stop offset="1" stop-opacity="0.1622"/>
</linearGradient>
<linearGradient id="paint1_linear_107610_281774" x1="84" y1="150" x2="84" y2="180" gradientUnits="userSpaceOnUse">
<stop offset="0.905762" stop-opacity="0.0578"/>
<stop offset="1" stop-opacity="0.1622"/>
</linearGradient>
<linearGradient id="paint2_linear_107610_281774" x1="84" y1="251" x2="84" y2="281" gradientUnits="userSpaceOnUse">
<stop offset="0.905762" stop-opacity="0.0578"/>
<stop offset="1" stop-opacity="0.1622"/>
</linearGradient>
<linearGradient id="paint3_linear_107610_281774" x1="221" y1="49" x2="221" y2="79" gradientUnits="userSpaceOnUse">
<stop offset="0.905762" stop-opacity="0.0578"/>
<stop offset="1" stop-opacity="0.1622"/>
</linearGradient>
<linearGradient id="paint4_linear_107610_281774" x1="221" y1="150" x2="221" y2="180" gradientUnits="userSpaceOnUse">
<stop offset="0.905762" stop-opacity="0.0578"/>
<stop offset="1" stop-opacity="0.1622"/>
</linearGradient>
<linearGradient id="paint5_linear_107610_281774" x1="221" y1="251" x2="221" y2="281" gradientUnits="userSpaceOnUse">
<stop offset="0.905762" stop-opacity="0.0578"/>
<stop offset="1" stop-opacity="0.1622"/>
</linearGradient>
<clipPath id="clip0_107610_281774">
<rect width="65" height="22" fill="white" transform="translate(172 53)"/>
</clipPath>
<clipPath id="clip1_107610_281774">
<rect width="65" height="22" fill="white" transform="translate(172 154)"/>
</clipPath>
<clipPath id="clip2_107610_281774">
<rect width="65" height="22" fill="white" transform="translate(172 255)"/>
</clipPath>
</defs>
</svg>
