<svg width="110" height="60" viewBox="0 0 110 60" fill="none" xmlns="http://www.w3.org/2000/svg">
<path d="M8.64746 16H7.49902V11.5293H2.42676V16H1.27832V6.19727H2.42676V10.4971H7.49902V6.19727H8.64746V16ZM16.6934 12.7461H11.7305C11.7441 13.5436 11.9515 14.1543 12.3525 14.5781C12.7536 15.002 13.305 15.2139 14.0068 15.2139C14.335 15.2139 14.6562 15.1592 14.9707 15.0498C15.2897 14.9404 15.5996 14.7718 15.9004 14.5439L16.4746 15.2959C16.0964 15.583 15.7021 15.7995 15.292 15.9453C14.8818 16.0911 14.4238 16.1641 13.918 16.1641C12.8789 16.1641 12.0609 15.8519 11.4639 15.2275C10.8714 14.5986 10.5752 13.7168 10.5752 12.582C10.5706 11.4655 10.8669 10.5632 11.4639 9.875C12.0654 9.18229 12.8424 8.83594 13.7949 8.83594C14.7155 8.83594 15.4287 9.13216 15.9346 9.72461C16.4404 10.3171 16.6934 11.1374 16.6934 12.1855V12.7461ZM15.5449 11.8232C15.5404 11.1852 15.3809 10.6862 15.0664 10.3262C14.7565 9.96615 14.3258 9.78613 13.7744 9.78613C13.2367 9.78613 12.7832 9.97298 12.4141 10.3467C12.0449 10.7158 11.8216 11.208 11.7441 11.8232H15.5449ZM23.3242 16H22.2031V14.9268H22.1758C21.9342 15.3369 21.6357 15.6468 21.2803 15.8564C20.9248 16.0615 20.5146 16.1641 20.0498 16.1641C19.389 16.1641 18.8558 15.9749 18.4502 15.5967C18.0492 15.2139 17.8486 14.7103 17.8486 14.0859C17.8486 13.4798 18.0537 12.9831 18.4639 12.5957C18.874 12.2083 19.4528 11.96 20.2002 11.8506L22.2031 11.5908V11.3926C22.2031 10.8184 22.0664 10.4082 21.793 10.1621C21.5195 9.91146 21.1549 9.78613 20.6992 9.78613C20.3255 9.78613 19.9746 9.85905 19.6465 10.0049C19.3184 10.1462 19.0153 10.3626 18.7373 10.6543L18.0332 10.0117C18.4069 9.61523 18.8171 9.32129 19.2637 9.12988C19.7103 8.93392 20.2116 8.83594 20.7676 8.83594C21.6107 8.83594 22.2464 9.05469 22.6748 9.49219C23.1077 9.92513 23.3242 10.57 23.3242 11.4268V16ZM22.2031 13.1562V12.4863L20.4805 12.7188C19.9746 12.7871 19.5941 12.917 19.3389 13.1084C19.0882 13.2952 18.9629 13.5846 18.9629 13.9766C18.9629 14.3867 19.0837 14.7035 19.3252 14.9268C19.5713 15.1455 19.8721 15.2549 20.2275 15.2549C20.8291 15.2549 21.3076 15.0566 21.6631 14.6602C22.0231 14.2637 22.2031 13.7624 22.2031 13.1562ZM30.3037 14.8311C30.0439 15.2731 29.7135 15.6058 29.3125 15.8291C28.916 16.0524 28.4466 16.1641 27.9043 16.1641C27.0111 16.1641 26.3001 15.8519 25.7715 15.2275C25.2474 14.5986 24.9854 13.7441 24.9854 12.6641C24.9854 11.502 25.277 10.5745 25.8604 9.88184C26.4482 9.18457 27.2275 8.83594 28.1982 8.83594C28.6813 8.83594 29.0983 8.92936 29.4492 9.11621C29.8001 9.30306 30.085 9.58105 30.3037 9.9502H30.3311V5.63672H31.4521V16H30.3311V14.8311H30.3037ZM26.1338 12.6094C26.1338 13.416 26.3206 14.0518 26.6943 14.5166C27.068 14.9814 27.5716 15.2139 28.2051 15.2139C28.8431 15.2139 29.3558 14.9906 29.7432 14.5439C30.1351 14.0928 30.3311 13.5231 30.3311 12.835V11.8027C30.3311 11.2376 30.1419 10.7614 29.7637 10.374C29.3854 9.9821 28.9092 9.78613 28.335 9.78613C27.6514 9.78613 27.1136 10.0345 26.7217 10.5312C26.3298 11.028 26.1338 11.7207 26.1338 12.6094ZM39.3477 12.7461H34.3848C34.3984 13.5436 34.6058 14.1543 35.0068 14.5781C35.4079 15.002 35.9593 15.2139 36.6611 15.2139C36.9893 15.2139 37.3105 15.1592 37.625 15.0498C37.944 14.9404 38.2539 14.7718 38.5547 14.5439L39.1289 15.2959C38.7507 15.583 38.3564 15.7995 37.9463 15.9453C37.5361 16.0911 37.0781 16.1641 36.5723 16.1641C35.5332 16.1641 34.7152 15.8519 34.1182 15.2275C33.5257 14.5986 33.2295 13.7168 33.2295 12.582C33.2249 11.4655 33.5212 10.5632 34.1182 9.875C34.7197 9.18229 35.4967 8.83594 36.4492 8.83594C37.3698 8.83594 38.083 9.13216 38.5889 9.72461C39.0947 10.3171 39.3477 11.1374 39.3477 12.1855V12.7461ZM38.1992 11.8232C38.1947 11.1852 38.0352 10.6862 37.7207 10.3262C37.4108 9.96615 36.9801 9.78613 36.4287 9.78613C35.891 9.78613 35.4375 9.97298 35.0684 10.3467C34.6992 10.7158 34.4759 11.208 34.3984 11.8232H38.1992ZM44.4883 9.9707C44.4017 9.9388 44.3197 9.91602 44.2422 9.90234C44.1647 9.88867 44.0713 9.88184 43.9619 9.88184C43.4014 9.88184 42.957 10.1257 42.6289 10.6133C42.3053 11.0964 42.1436 11.7025 42.1436 12.4316V16H41.0225V9H42.1436V10.374H42.1709C42.3304 9.88639 42.5742 9.51497 42.9023 9.25977C43.2305 9.00456 43.6064 8.87695 44.0303 8.87695C44.1761 8.87695 44.3014 8.88607 44.4062 8.9043C44.5111 8.91797 44.6113 8.94303 44.707 8.97949L44.4883 9.9707Z" fill="black" fill-opacity="0.8956"/>
<rect x="0.5" y="28.5" width="109" height="31" rx="3.5" fill="white" fill-opacity="0.7"/>
<rect x="0.5" y="28.5" width="109" height="31" rx="3.5" stroke="url(#paint0_linear_107610_281847)"/>
<path d="M19.0479 40.2363H16.2178V49H15.0693V40.2363H12.2461V39.1973H19.0479V40.2363ZM24.7148 45.7461H19.752C19.7656 46.5436 19.973 47.1543 20.374 47.5781C20.7751 48.002 21.3265 48.2139 22.0283 48.2139C22.3564 48.2139 22.6777 48.1592 22.9922 48.0498C23.3112 47.9404 23.6211 47.7718 23.9219 47.5439L24.4961 48.2959C24.1178 48.583 23.7236 48.7995 23.3135 48.9453C22.9033 49.0911 22.4453 49.1641 21.9395 49.1641C20.9004 49.1641 20.0824 48.8519 19.4854 48.2275C18.8929 47.5986 18.5967 46.7168 18.5967 45.582C18.5921 44.4655 18.8883 43.5632 19.4854 42.875C20.0869 42.1823 20.8639 41.8359 21.8164 41.8359C22.737 41.8359 23.4502 42.1322 23.9561 42.7246C24.4619 43.3171 24.7148 44.1374 24.7148 45.1855V45.7461ZM23.5664 44.8232C23.5618 44.1852 23.4023 43.6862 23.0879 43.3262C22.778 42.9661 22.3473 42.7861 21.7959 42.7861C21.2581 42.7861 20.8047 42.973 20.4355 43.3467C20.0664 43.7158 19.8431 44.208 19.7656 44.8232H23.5664ZM31.5029 42L29.1514 45.541L31.4619 49H30.1562L28.7822 46.7441C28.7367 46.6712 28.6888 46.5915 28.6387 46.5049C28.5885 46.4183 28.5339 46.3203 28.4746 46.2109H28.4473C28.4336 46.2292 28.3994 46.2839 28.3447 46.375C28.2946 46.4661 28.2194 46.5892 28.1191 46.7441L26.7178 49H25.4326L27.8184 45.5684L25.5352 42H26.834L28.1943 44.3721C28.2445 44.4632 28.2923 44.5544 28.3379 44.6455C28.388 44.7367 28.4382 44.8278 28.4883 44.9189H28.5156C28.5703 44.8278 28.6227 44.7367 28.6729 44.6455C28.7275 44.5544 28.7845 44.4632 28.8438 44.3721L30.2656 42H31.5029ZM36.1787 48.8701C35.9827 48.9658 35.7891 49.0365 35.5977 49.082C35.4062 49.1276 35.1875 49.1504 34.9414 49.1504C34.3854 49.1504 33.9502 48.9886 33.6357 48.665C33.3213 48.3415 33.1641 47.8652 33.1641 47.2363V42.957H31.9609V42H33.1641V40.2979L34.2852 39.9561V42H36.0625V42.957H34.2852V47.1133C34.2852 47.5052 34.3558 47.7878 34.4971 47.9609C34.6383 48.1341 34.8503 48.2207 35.1328 48.2207C35.2695 48.2207 35.4017 48.2048 35.5293 48.1729C35.6569 48.1364 35.7686 48.0885 35.8643 48.0293L36.1787 48.8701Z" fill="black" fill-opacity="0.6063"/>
<path d="M85.998 42.5C85.998 42.4297 86.0117 42.3652 86.0391 42.3066C86.0664 42.2441 86.1016 42.1914 86.1445 42.1484C86.1914 42.1016 86.2441 42.0645 86.3027 42.0371C86.3652 42.0098 86.4316 41.9961 86.502 41.9961C86.5762 41.9961 86.6406 42.0098 86.6953 42.0371C86.75 42.0605 86.8027 42.0977 86.8535 42.1484L90 45.2949L93.1465 42.1484C93.248 42.0469 93.3652 41.9961 93.498 41.9961C93.5684 41.9961 93.6328 42.0098 93.6914 42.0371C93.7539 42.0645 93.8066 42.1016 93.8496 42.1484C93.8965 42.1914 93.9336 42.2441 93.9609 42.3066C93.9883 42.3652 94.002 42.4297 94.002 42.5C94.002 42.6367 93.9531 42.7539 93.8555 42.8516L90.3516 46.3555C90.2539 46.4531 90.1367 46.502 90 46.502C89.8633 46.502 89.7461 46.4531 89.6484 46.3555L86.1445 42.8516C86.0469 42.7539 85.998 42.6367 85.998 42.5Z" fill="black" fill-opacity="0.6063"/>
<defs>
<linearGradient id="paint0_linear_107610_281847" x1="55" y1="29" x2="55" y2="59" gradientUnits="userSpaceOnUse">
<stop offset="0.905762" stop-opacity="0.0578"/>
<stop offset="1" stop-opacity="0.1622"/>
</linearGradient>
</defs>
</svg>
