<svg width="223" height="54" viewBox="0 0 223 54" fill="none" xmlns="http://www.w3.org/2000/svg">
<path d="M1.14941 10.5273H0.000976562V0.724609H1.14941V10.5273ZM6.89844 1.09375C6.77539 1.04818 6.66146 1.01628 6.55664 0.998047C6.45182 0.97526 6.34017 0.963867 6.22168 0.963867C5.84342 0.963867 5.56087 1.06641 5.37402 1.27148C5.18717 1.47656 5.09375 1.77962 5.09375 2.18066V3.52734H6.73438V4.48438H5.09375V10.5273H3.97949V4.48438H2.7832V3.52734H3.97949V2.12598C3.97949 1.46973 4.18001 0.952474 4.58105 0.574219C4.98665 0.191406 5.54264 0 6.24902 0C6.42676 0 6.59082 0.0182292 6.74121 0.0546875C6.8916 0.0865885 7.04655 0.129883 7.20605 0.18457L6.89844 1.09375ZM17.3438 7.27344H12.3809C12.3945 8.07096 12.6019 8.68164 13.0029 9.10547C13.404 9.5293 13.9554 9.74121 14.6572 9.74121C14.9854 9.74121 15.3066 9.68652 15.6211 9.57715C15.9401 9.46777 16.25 9.29915 16.5508 9.07129L17.125 9.82324C16.7467 10.1104 16.3525 10.3268 15.9424 10.4727C15.5322 10.6185 15.0742 10.6914 14.5684 10.6914C13.5293 10.6914 12.7113 10.3792 12.1143 9.75488C11.5218 9.12598 11.2256 8.24414 11.2256 7.10938C11.221 5.99284 11.5173 5.09049 12.1143 4.40234C12.7158 3.70964 13.4928 3.36328 14.4453 3.36328C15.3659 3.36328 16.0791 3.65951 16.585 4.25195C17.0908 4.8444 17.3438 5.66471 17.3438 6.71289V7.27344ZM16.1953 6.35059C16.1908 5.71257 16.0312 5.21354 15.7168 4.85352C15.4069 4.49349 14.9762 4.31348 14.4248 4.31348C13.887 4.31348 13.4336 4.50033 13.0645 4.87402C12.6953 5.24316 12.472 5.73535 12.3945 6.35059H16.1953ZM23.8584 9.3584C23.5986 9.80046 23.2682 10.1331 22.8672 10.3564C22.4707 10.5798 22.0013 10.6914 21.459 10.6914C20.5658 10.6914 19.8548 10.3792 19.3262 9.75488C18.8021 9.12598 18.54 8.27148 18.54 7.19141C18.54 6.0293 18.8317 5.10189 19.415 4.40918C20.0029 3.71191 20.7822 3.36328 21.7529 3.36328C22.236 3.36328 22.653 3.45671 23.0039 3.64355C23.3548 3.8304 23.6396 4.1084 23.8584 4.47754H23.8857V0.164062H25.0068V10.5273H23.8857V9.3584H23.8584ZM19.6885 7.13672C19.6885 7.94336 19.8753 8.5791 20.249 9.04395C20.6227 9.50879 21.1263 9.74121 21.7598 9.74121C22.3978 9.74121 22.9105 9.5179 23.2979 9.07129C23.6898 8.62012 23.8857 8.05046 23.8857 7.3623V6.33008C23.8857 5.76497 23.6966 5.28874 23.3184 4.90137C22.9401 4.50944 22.4639 4.31348 21.8896 4.31348C21.2061 4.31348 20.6683 4.56185 20.2764 5.05859C19.8844 5.55534 19.6885 6.24805 19.6885 7.13672ZM27.8369 1.79785C27.6182 1.79785 27.4336 1.72493 27.2832 1.5791C27.1374 1.43327 27.0645 1.25326 27.0645 1.03906C27.0645 0.82487 27.1374 0.644857 27.2832 0.499023C27.4336 0.348633 27.6182 0.273438 27.8369 0.273438C28.0557 0.273438 28.238 0.348633 28.3838 0.499023C28.5342 0.644857 28.6094 0.82487 28.6094 1.03906C28.6094 1.25326 28.5342 1.43327 28.3838 1.5791C28.238 1.72493 28.0557 1.79785 27.8369 1.79785ZM28.3838 10.5273H27.2627V3.52734H28.3838V10.5273ZM34.0166 10.4248C33.8252 10.5114 33.6315 10.5775 33.4355 10.623C33.2441 10.6686 33.0277 10.6914 32.7861 10.6914C32.2256 10.6914 31.7881 10.5296 31.4736 10.2061C31.1592 9.87793 31.002 9.39486 31.002 8.75684V4.48438H29.7988V3.52734H31.002V1.8252L32.123 1.4834V3.52734H33.9004V4.48438H32.123V8.58594C32.123 9.00521 32.2028 9.30371 32.3623 9.48145C32.5218 9.65918 32.7451 9.74805 33.0322 9.74805C33.1598 9.74805 33.2829 9.72982 33.4014 9.69336C33.5244 9.6569 33.6315 9.61589 33.7227 9.57031L34.0166 10.4248ZM40.3809 10.5273H39.2598V9.4541H39.2324C38.9909 9.86426 38.6924 10.1742 38.3369 10.3838C37.9814 10.5889 37.5713 10.6914 37.1064 10.6914C36.4456 10.6914 35.9124 10.5023 35.5068 10.124C35.1058 9.74121 34.9053 9.23763 34.9053 8.61328C34.9053 8.00716 35.1104 7.51042 35.5205 7.12305C35.9307 6.73568 36.5094 6.4873 37.2568 6.37793L39.2598 6.11816V5.91992C39.2598 5.3457 39.123 4.93555 38.8496 4.68945C38.5762 4.4388 38.2116 4.31348 37.7559 4.31348C37.3822 4.31348 37.0312 4.38639 36.7031 4.53223C36.375 4.6735 36.0719 4.88997 35.7939 5.18164L35.0898 4.53906C35.4635 4.14258 35.8737 3.84863 36.3203 3.65723C36.7669 3.46126 37.2682 3.36328 37.8242 3.36328C38.6673 3.36328 39.3031 3.58203 39.7314 4.01953C40.1644 4.45247 40.3809 5.09733 40.3809 5.9541V10.5273ZM39.2598 7.68359V7.01367L37.5371 7.24609C37.0312 7.31445 36.6507 7.44434 36.3955 7.63574C36.1449 7.82259 36.0195 8.11198 36.0195 8.50391C36.0195 8.91406 36.1403 9.23079 36.3818 9.4541C36.6279 9.67285 36.9287 9.78223 37.2842 9.78223C37.8857 9.78223 38.3643 9.58398 38.7197 9.1875C39.0798 8.79102 39.2598 8.28971 39.2598 7.68359ZM43.6689 9.63184H43.6416V10.5273H42.5205V0.164062H43.6416V4.7373H43.6689C43.9424 4.28158 44.2796 3.93978 44.6807 3.71191C45.0863 3.47949 45.5534 3.36328 46.082 3.36328C46.9844 3.36328 47.6908 3.67773 48.2012 4.30664C48.7161 4.93099 48.9736 5.77181 48.9736 6.8291C48.9736 8.00033 48.6888 8.93685 48.1191 9.63867C47.5495 10.3405 46.7702 10.6914 45.7812 10.6914C45.3164 10.6914 44.9062 10.6025 44.5508 10.4248C44.1953 10.2471 43.9014 9.98275 43.6689 9.63184ZM43.6416 6.69238V7.66992C43.6416 8.2487 43.8285 8.73861 44.2021 9.13965C44.5804 9.54069 45.0635 9.74121 45.6514 9.74121C46.3304 9.74121 46.8613 9.48372 47.2441 8.96875C47.6315 8.45378 47.8252 7.73828 47.8252 6.82227C47.8252 6.03385 47.6452 5.41862 47.2852 4.97656C46.9251 4.53451 46.4375 4.31348 45.8223 4.31348C45.166 4.31348 44.6374 4.53906 44.2363 4.99023C43.8398 5.44141 43.6416 6.00879 43.6416 6.69238ZM50.751 10.5273V0.164062H51.8721V10.5273H50.751ZM59.7676 7.27344H54.8047C54.8184 8.07096 55.0257 8.68164 55.4268 9.10547C55.8278 9.5293 56.3792 9.74121 57.0811 9.74121C57.4092 9.74121 57.7305 9.68652 58.0449 9.57715C58.3639 9.46777 58.6738 9.29915 58.9746 9.07129L59.5488 9.82324C59.1706 10.1104 58.7764 10.3268 58.3662 10.4727C57.9561 10.6185 57.498 10.6914 56.9922 10.6914C55.9531 10.6914 55.1351 10.3792 54.5381 9.75488C53.9456 9.12598 53.6494 8.24414 53.6494 7.10938C53.6449 5.99284 53.9411 5.09049 54.5381 4.40234C55.1396 3.70964 55.9167 3.36328 56.8691 3.36328C57.7897 3.36328 58.5029 3.65951 59.0088 4.25195C59.5146 4.8444 59.7676 5.66471 59.7676 6.71289V7.27344ZM58.6191 6.35059C58.6146 5.71257 58.4551 5.21354 58.1406 4.85352C57.8307 4.49349 57.4001 4.31348 56.8486 4.31348C56.3109 4.31348 55.8574 4.50033 55.4883 4.87402C55.1191 5.24316 54.8958 5.73535 54.8184 6.35059H58.6191ZM62.4609 8.96875L61.374 12.332H60.5742L61.374 8.96875H62.4609ZM71.6006 10.4248C71.4092 10.5114 71.2155 10.5775 71.0195 10.623C70.8281 10.6686 70.6117 10.6914 70.3701 10.6914C69.8096 10.6914 69.3721 10.5296 69.0576 10.2061C68.7432 9.87793 68.5859 9.39486 68.5859 8.75684V4.48438H67.3828V3.52734H68.5859V1.8252L69.707 1.4834V3.52734H71.4844V4.48438H69.707V8.58594C69.707 9.00521 69.7868 9.30371 69.9463 9.48145C70.1058 9.65918 70.3291 9.74805 70.6162 9.74805C70.7438 9.74805 70.8669 9.72982 70.9854 9.69336C71.1084 9.6569 71.2155 9.61589 71.3066 9.57031L71.6006 10.4248ZM78.8193 10.5273H77.6982V6.48047C77.6982 5.75586 77.5615 5.21354 77.2881 4.85352C77.0192 4.49349 76.6159 4.31348 76.0781 4.31348C75.5221 4.31348 75.0573 4.52311 74.6836 4.94238C74.3145 5.36165 74.1299 5.90169 74.1299 6.5625V10.5273H73.0088V0.164062H74.1299V4.66895H74.1572C74.4215 4.23145 74.7451 3.9056 75.1279 3.69141C75.5107 3.47266 75.9528 3.36328 76.4541 3.36328C77.238 3.36328 77.8281 3.60254 78.2246 4.08105C78.6211 4.55501 78.8193 5.26823 78.8193 6.2207V10.5273ZM86.5508 7.27344H81.5879C81.6016 8.07096 81.8089 8.68164 82.21 9.10547C82.611 9.5293 83.1624 9.74121 83.8643 9.74121C84.1924 9.74121 84.5137 9.68652 84.8281 9.57715C85.1471 9.46777 85.457 9.29915 85.7578 9.07129L86.332 9.82324C85.9538 10.1104 85.5596 10.3268 85.1494 10.4727C84.7393 10.6185 84.2812 10.6914 83.7754 10.6914C82.7363 10.6914 81.9183 10.3792 81.3213 9.75488C80.7288 9.12598 80.4326 8.24414 80.4326 7.10938C80.4281 5.99284 80.7243 5.09049 81.3213 4.40234C81.9229 3.70964 82.6999 3.36328 83.6523 3.36328C84.5729 3.36328 85.2861 3.65951 85.792 4.25195C86.2979 4.8444 86.5508 5.66471 86.5508 6.71289V7.27344ZM85.4023 6.35059C85.3978 5.71257 85.2383 5.21354 84.9238 4.85352C84.6139 4.49349 84.1833 4.31348 83.6318 4.31348C83.0941 4.31348 82.6406 4.50033 82.2715 4.87402C81.9023 5.24316 81.679 5.73535 81.6016 6.35059H85.4023ZM94.0361 10.5273H92.915V6.51465C92.915 5.77637 92.7783 5.22493 92.5049 4.86035C92.236 4.49577 91.8327 4.31348 91.2949 4.31348C90.7298 4.31348 90.2627 4.52311 89.8936 4.94238C89.529 5.36165 89.3467 5.89258 89.3467 6.53516V10.5273H88.2256V3.52734H89.3467V4.66895H89.374C89.6383 4.23145 89.9619 3.9056 90.3447 3.69141C90.7275 3.47266 91.1696 3.36328 91.6709 3.36328C92.4365 3.36328 93.0221 3.61165 93.4277 4.1084C93.8333 4.60059 94.0361 5.3138 94.0361 6.24805V10.5273ZM96.5107 4.92871C96.292 4.92871 96.1051 4.85352 95.9502 4.70312C95.7952 4.54818 95.7178 4.36361 95.7178 4.14941C95.7178 3.93066 95.7952 3.74609 95.9502 3.5957C96.1051 3.44076 96.292 3.36328 96.5107 3.36328C96.7295 3.36328 96.9163 3.44076 97.0713 3.5957C97.2262 3.74609 97.3037 3.93066 97.3037 4.14941C97.3037 4.36361 97.2262 4.54818 97.0713 4.70312C96.9163 4.85352 96.7295 4.92871 96.5107 4.92871ZM96.5107 10.6641C96.2965 10.6641 96.1097 10.5889 95.9502 10.4385C95.7952 10.2835 95.7178 10.099 95.7178 9.88477C95.7178 9.67513 95.7952 9.49284 95.9502 9.33789C96.1097 9.18294 96.2965 9.10547 96.5107 9.10547C96.7295 9.10547 96.9163 9.18294 97.0713 9.33789C97.2262 9.49284 97.3037 9.67513 97.3037 9.88477C97.3037 10.099 97.2262 10.2835 97.0713 10.4385C96.9163 10.5889 96.7295 10.6641 96.5107 10.6641ZM11.0365 30.5273H5.65662V29.5225H7.85779V22.126C7.67095 22.2855 7.36333 22.4678 6.93494 22.6729C6.50656 22.8734 6.12602 23.0169 5.79334 23.1035L5.47889 22.126C6.00298 21.9893 6.55441 21.7682 7.13318 21.4629C7.71196 21.153 8.16997 20.834 8.50721 20.5059H8.97889V29.5225H11.0365V30.5273ZM13.5453 30.6641C13.3311 30.6641 13.1443 30.5889 12.9847 30.4385C12.8298 30.2835 12.7523 30.099 12.7523 29.8848C12.7523 29.6751 12.8298 29.4928 12.9847 29.3379C13.1443 29.1829 13.3311 29.1055 13.5453 29.1055C13.764 29.1055 13.9509 29.1829 14.1058 29.3379C14.2608 29.4928 14.3383 29.6751 14.3383 29.8848C14.3383 30.099 14.2608 30.2835 14.1058 30.4385C13.9509 30.5889 13.764 30.6641 13.5453 30.6641ZM25.9775 21.7637H22.1494V25.1543H25.6904V26.1865H22.1494V30.5273H21.001V20.7246H25.9775V21.7637ZM29.2383 30.6914C28.1947 30.6914 27.3652 30.3656 26.75 29.7139C26.1348 29.0576 25.8271 28.1895 25.8271 27.1094C25.8271 25.9427 26.1484 25.029 26.791 24.3682C27.4336 23.7028 28.3018 23.3678 29.3955 23.3633C30.4391 23.3587 31.2549 23.6823 31.8428 24.334C32.4352 24.9811 32.7314 25.8698 32.7314 27C32.7314 28.112 32.4147 29.0052 31.7812 29.6797C31.1523 30.3542 30.3047 30.6914 29.2383 30.6914ZM29.3203 29.7412C30.0404 29.7412 30.5964 29.5065 30.9883 29.0371C31.3848 28.5632 31.583 27.8978 31.583 27.041C31.583 26.1706 31.3848 25.4984 30.9883 25.0244C30.5918 24.5505 30.0358 24.3135 29.3203 24.3135C28.6003 24.3135 28.0283 24.5596 27.6045 25.0518C27.1852 25.5439 26.9756 26.2161 26.9756 27.0684C26.9756 27.9023 27.1875 28.5563 27.6113 29.0303C28.0397 29.5042 28.6094 29.7412 29.3203 29.7412ZM39.5332 30.0215C39.2096 30.2539 38.877 30.4225 38.5352 30.5273C38.1979 30.6367 37.8288 30.6914 37.4277 30.6914C36.4251 30.6914 35.6071 30.3838 34.9736 29.7686C34.3447 29.1488 34.0303 28.2829 34.0303 27.1709C34.0303 26.027 34.3493 25.1064 34.9873 24.4092C35.6253 23.7119 36.4935 23.3633 37.5918 23.3633C37.9792 23.3633 38.3438 23.4157 38.6855 23.5205C39.0319 23.6208 39.3691 23.7826 39.6973 24.0059L39.1777 24.7988C38.9134 24.6302 38.6514 24.5072 38.3916 24.4297C38.1364 24.3522 37.8561 24.3135 37.5508 24.3135C36.7943 24.3135 36.2087 24.571 35.7939 25.0859C35.3838 25.5964 35.1787 26.2503 35.1787 27.0479C35.1787 27.9137 35.3929 28.5791 35.8213 29.0439C36.2542 29.5042 36.8193 29.7344 37.5166 29.7344C37.749 29.7344 37.9906 29.6956 38.2412 29.6182C38.4964 29.5407 38.7448 29.4154 38.9863 29.2422L39.5332 30.0215ZM46.7451 30.5273H45.624V29.4336H45.5967C45.3643 29.8483 45.0658 30.1628 44.7012 30.377C44.3366 30.5866 43.915 30.6914 43.4365 30.6914C42.6025 30.6914 41.9759 30.4453 41.5566 29.9531C41.1419 29.4564 40.9346 28.7135 40.9346 27.7246V23.5273H42.0488V27.5537C42.0488 28.2874 42.1878 28.8366 42.4658 29.2012C42.7438 29.5612 43.1654 29.7412 43.7305 29.7412C44.2819 29.7412 44.7354 29.5407 45.0908 29.1396C45.4463 28.734 45.624 28.2054 45.624 27.5537V23.5273H46.7451V30.5273ZM48.3584 29.8848L48.9531 29.085C49.2357 29.3037 49.5205 29.4701 49.8076 29.584C50.0993 29.6934 50.4137 29.748 50.751 29.748C51.2249 29.748 51.5827 29.6569 51.8242 29.4746C52.0658 29.2878 52.1865 29.0166 52.1865 28.6611C52.1865 28.374 52.0794 28.1325 51.8652 27.9365C51.651 27.736 51.3092 27.5788 50.8398 27.4648C50.015 27.2552 49.4271 26.9863 49.0762 26.6582C48.7298 26.3255 48.5566 25.9017 48.5566 25.3867C48.5566 24.7988 48.7754 24.3158 49.2129 23.9375C49.6504 23.5547 50.2474 23.3633 51.0039 23.3633C51.3958 23.3633 51.765 23.4202 52.1113 23.5342C52.4577 23.6436 52.7995 23.8304 53.1367 24.0947L52.5762 24.8809C52.2799 24.6712 52.0065 24.5231 51.7559 24.4365C51.5098 24.3499 51.25 24.3066 50.9766 24.3066C50.5299 24.3066 50.1973 24.3932 49.9785 24.5664C49.7598 24.735 49.6504 24.9743 49.6504 25.2842C49.6504 25.5941 49.762 25.8288 49.9854 25.9883C50.2087 26.1478 50.5938 26.2936 51.1406 26.4258C51.8561 26.6035 52.3916 26.8656 52.7471 27.2119C53.1025 27.5537 53.2803 28.0117 53.2803 28.5859C53.2803 29.2285 53.0501 29.7412 52.5898 30.124C52.1341 30.5023 51.5098 30.6914 50.7168 30.6914C50.2656 30.6914 49.8395 30.623 49.4385 30.4863C49.0374 30.3496 48.6774 30.1491 48.3584 29.8848ZM65.6055 25.4414H59.1797V24.5391H65.6055V25.4414ZM65.6055 28.3535H59.1797V27.4512H65.6055V28.3535ZM71.4229 29.8848L72.0176 29.085C72.3001 29.3037 72.585 29.4701 72.8721 29.584C73.1637 29.6934 73.4782 29.748 73.8154 29.748C74.2894 29.748 74.6471 29.6569 74.8887 29.4746C75.1302 29.2878 75.251 29.0166 75.251 28.6611C75.251 28.374 75.1439 28.1325 74.9297 27.9365C74.7155 27.736 74.3737 27.5788 73.9043 27.4648C73.0794 27.2552 72.4915 26.9863 72.1406 26.6582C71.7943 26.3255 71.6211 25.9017 71.6211 25.3867C71.6211 24.7988 71.8398 24.3158 72.2773 23.9375C72.7148 23.5547 73.3118 23.3633 74.0684 23.3633C74.4603 23.3633 74.8294 23.4202 75.1758 23.5342C75.5221 23.6436 75.8639 23.8304 76.2012 24.0947L75.6406 24.8809C75.3444 24.6712 75.071 24.5231 74.8203 24.4365C74.5742 24.3499 74.3145 24.3066 74.041 24.3066C73.5944 24.3066 73.2617 24.3932 73.043 24.5664C72.8242 24.735 72.7148 24.9743 72.7148 25.2842C72.7148 25.5941 72.8265 25.8288 73.0498 25.9883C73.2731 26.1478 73.6582 26.2936 74.2051 26.4258C74.9206 26.6035 75.4561 26.8656 75.8115 27.2119C76.167 27.5537 76.3447 28.0117 76.3447 28.5859C76.3447 29.2285 76.1146 29.7412 75.6543 30.124C75.1986 30.5023 74.5742 30.6914 73.7812 30.6914C73.3301 30.6914 72.904 30.623 72.5029 30.4863C72.1019 30.3496 71.7419 30.1491 71.4229 29.8848ZM83.6797 27.2734H78.7168C78.7305 28.071 78.9378 28.6816 79.3389 29.1055C79.7399 29.5293 80.2913 29.7412 80.9932 29.7412C81.3213 29.7412 81.6426 29.6865 81.957 29.5771C82.276 29.4678 82.5859 29.2992 82.8867 29.0713L83.4609 29.8232C83.0827 30.1104 82.6885 30.3268 82.2783 30.4727C81.8682 30.6185 81.4102 30.6914 80.9043 30.6914C79.8652 30.6914 79.0472 30.3792 78.4502 29.7549C77.8577 29.126 77.5615 28.2441 77.5615 27.1094C77.557 25.9928 77.8532 25.0905 78.4502 24.4023C79.0518 23.7096 79.8288 23.3633 80.7812 23.3633C81.7018 23.3633 82.415 23.6595 82.9209 24.252C83.4268 24.8444 83.6797 25.6647 83.6797 26.7129V27.2734ZM82.5312 26.3506C82.5267 25.7126 82.3672 25.2135 82.0527 24.8535C81.7428 24.4935 81.3122 24.3135 80.7607 24.3135C80.223 24.3135 79.7695 24.5003 79.4004 24.874C79.0312 25.2432 78.8079 25.7354 78.7305 26.3506H82.5312ZM85.3545 30.5273V20.1641H86.4756V30.5273H85.3545ZM94.3711 27.2734H89.4082C89.4219 28.071 89.6292 28.6816 90.0303 29.1055C90.4313 29.5293 90.9827 29.7412 91.6846 29.7412C92.0127 29.7412 92.334 29.6865 92.6484 29.5771C92.9674 29.4678 93.2773 29.2992 93.5781 29.0713L94.1523 29.8232C93.7741 30.1104 93.3799 30.3268 92.9697 30.4727C92.5596 30.6185 92.1016 30.6914 91.5957 30.6914C90.5566 30.6914 89.7386 30.3792 89.1416 29.7549C88.5492 29.126 88.2529 28.2441 88.2529 27.1094C88.2484 25.9928 88.5446 25.0905 89.1416 24.4023C89.7432 23.7096 90.5202 23.3633 91.4727 23.3633C92.3932 23.3633 93.1064 23.6595 93.6123 24.252C94.1182 24.8444 94.3711 25.6647 94.3711 26.7129V27.2734ZM93.2227 26.3506C93.2181 25.7126 93.0586 25.2135 92.7441 24.8535C92.4342 24.4935 92.0036 24.3135 91.4521 24.3135C90.9144 24.3135 90.4609 24.5003 90.0918 24.874C89.7227 25.2432 89.4993 25.7354 89.4219 26.3506H93.2227ZM101.07 30.0215C100.747 30.2539 100.414 30.4225 100.072 30.5273C99.735 30.6367 99.3659 30.6914 98.9648 30.6914C97.9622 30.6914 97.1442 30.3838 96.5107 29.7686C95.8818 29.1488 95.5674 28.2829 95.5674 27.1709C95.5674 26.027 95.8864 25.1064 96.5244 24.4092C97.1624 23.7119 98.0306 23.3633 99.1289 23.3633C99.5163 23.3633 99.8809 23.4157 100.223 23.5205C100.569 23.6208 100.906 23.7826 101.234 24.0059L100.715 24.7988C100.451 24.6302 100.188 24.5072 99.9287 24.4297C99.6735 24.3522 99.3932 24.3135 99.0879 24.3135C98.3314 24.3135 97.7458 24.571 97.3311 25.0859C96.9209 25.5964 96.7158 26.2503 96.7158 27.0479C96.7158 27.9137 96.93 28.5791 97.3584 29.0439C97.7913 29.5042 98.3564 29.7344 99.0537 29.7344C99.2861 29.7344 99.5277 29.6956 99.7783 29.6182C100.034 29.5407 100.282 29.4154 100.523 29.2422L101.07 30.0215ZM105.999 30.4248C105.808 30.5114 105.614 30.5775 105.418 30.623C105.227 30.6686 105.01 30.6914 104.769 30.6914C104.208 30.6914 103.771 30.5296 103.456 30.2061C103.142 29.8779 102.984 29.3949 102.984 28.7568V24.4844H101.781V23.5273H102.984V21.8252L104.105 21.4834V23.5273H105.883V24.4844H104.105V28.5859C104.105 29.0052 104.185 29.3037 104.345 29.4814C104.504 29.6592 104.728 29.748 105.015 29.748C105.142 29.748 105.265 29.7298 105.384 29.6934C105.507 29.6569 105.614 29.6159 105.705 29.5703L105.999 30.4248ZM113.047 27.2734H108.084C108.098 28.071 108.305 28.6816 108.706 29.1055C109.107 29.5293 109.659 29.7412 110.36 29.7412C110.688 29.7412 111.01 29.6865 111.324 29.5771C111.643 29.4678 111.953 29.2992 112.254 29.0713L112.828 29.8232C112.45 30.1104 112.056 30.3268 111.646 30.4727C111.235 30.6185 110.777 30.6914 110.271 30.6914C109.232 30.6914 108.414 30.3792 107.817 29.7549C107.225 29.126 106.929 28.2441 106.929 27.1094C106.924 25.9928 107.22 25.0905 107.817 24.4023C108.419 23.7096 109.196 23.3633 110.148 23.3633C111.069 23.3633 111.782 23.6595 112.288 24.252C112.794 24.8444 113.047 25.6647 113.047 26.7129V27.2734ZM111.898 26.3506C111.894 25.7126 111.734 25.2135 111.42 24.8535C111.11 24.4935 110.679 24.3135 110.128 24.3135C109.59 24.3135 109.137 24.5003 108.768 24.874C108.398 25.2432 108.175 25.7354 108.098 26.3506H111.898ZM119.562 29.3584C119.302 29.8005 118.971 30.1331 118.57 30.3564C118.174 30.5798 117.704 30.6914 117.162 30.6914C116.269 30.6914 115.558 30.3792 115.029 29.7549C114.505 29.126 114.243 28.2715 114.243 27.1914C114.243 26.0293 114.535 25.1019 115.118 24.4092C115.706 23.7119 116.485 23.3633 117.456 23.3633C117.939 23.3633 118.356 23.4567 118.707 23.6436C119.058 23.8304 119.343 24.1084 119.562 24.4775H119.589V20.1641H120.71V30.5273H119.589V29.3584H119.562ZM115.392 27.1367C115.392 27.9434 115.578 28.5791 115.952 29.0439C116.326 29.5088 116.829 29.7412 117.463 29.7412C118.101 29.7412 118.614 29.5179 119.001 29.0713C119.393 28.6201 119.589 28.0505 119.589 27.3623V26.3301C119.589 25.765 119.4 25.2887 119.021 24.9014C118.643 24.5094 118.167 24.3135 117.593 24.3135C116.909 24.3135 116.371 24.5618 115.979 25.0586C115.588 25.5553 115.392 26.248 115.392 27.1367ZM130.103 30.4248C129.911 30.5114 129.717 30.5775 129.521 30.623C129.33 30.6686 129.114 30.6914 128.872 30.6914C128.312 30.6914 127.874 30.5296 127.56 30.2061C127.245 29.8779 127.088 29.3949 127.088 28.7568V24.4844H125.885V23.5273H127.088V21.8252L128.209 21.4834V23.5273H129.986V24.4844H128.209V28.5859C128.209 29.0052 128.289 29.3037 128.448 29.4814C128.608 29.6592 128.831 29.748 129.118 29.748C129.246 29.748 129.369 29.7298 129.487 29.6934C129.61 29.6569 129.717 29.6159 129.809 29.5703L130.103 30.4248ZM137.15 27.2734H132.188C132.201 28.071 132.409 28.6816 132.81 29.1055C133.211 29.5293 133.762 29.7412 134.464 29.7412C134.792 29.7412 135.113 29.6865 135.428 29.5771C135.747 29.4678 136.057 29.2992 136.357 29.0713L136.932 29.8232C136.553 30.1104 136.159 30.3268 135.749 30.4727C135.339 30.6185 134.881 30.6914 134.375 30.6914C133.336 30.6914 132.518 30.3792 131.921 29.7549C131.328 29.126 131.032 28.2441 131.032 27.1094C131.028 25.9928 131.324 25.0905 131.921 24.4023C132.522 23.7096 133.299 23.3633 134.252 23.3633C135.173 23.3633 135.886 23.6595 136.392 24.252C136.897 24.8444 137.15 25.6647 137.15 26.7129V27.2734ZM136.002 26.3506C135.997 25.7126 135.838 25.2135 135.523 24.8535C135.214 24.4935 134.783 24.3135 134.231 24.3135C133.694 24.3135 133.24 24.5003 132.871 24.874C132.502 25.2432 132.279 25.7354 132.201 26.3506H136.002ZM143.938 23.5273L141.587 27.0684L143.897 30.5273H142.592L141.218 28.2715C141.172 28.1986 141.124 28.1188 141.074 28.0322C141.024 27.9456 140.969 27.8477 140.91 27.7383H140.883C140.869 27.7565 140.835 27.8112 140.78 27.9023C140.73 27.9935 140.655 28.1165 140.555 28.2715L139.153 30.5273H137.868L140.254 27.0957L137.971 23.5273H139.27L140.63 25.8994C140.68 25.9906 140.728 26.0817 140.773 26.1729C140.824 26.264 140.874 26.3551 140.924 26.4463H140.951C141.006 26.3551 141.058 26.264 141.108 26.1729C141.163 26.0817 141.22 25.9906 141.279 25.8994L142.701 23.5273H143.938ZM148.614 30.4248C148.423 30.5114 148.229 30.5775 148.033 30.623C147.842 30.6686 147.625 30.6914 147.384 30.6914C146.823 30.6914 146.386 30.5296 146.071 30.2061C145.757 29.8779 145.6 29.3949 145.6 28.7568V24.4844H144.396V23.5273H145.6V21.8252L146.721 21.4834V23.5273H148.498V24.4844H146.721V28.5859C146.721 29.0052 146.8 29.3037 146.96 29.4814C147.119 29.6592 147.343 29.748 147.63 29.748C147.757 29.748 147.881 29.7298 147.999 29.6934C148.122 29.6569 148.229 29.6159 148.32 29.5703L148.614 30.4248ZM158.738 30.5273H157.617V29.4541H157.59C157.348 29.8643 157.05 30.1742 156.694 30.3838C156.339 30.5889 155.929 30.6914 155.464 30.6914C154.803 30.6914 154.27 30.5023 153.864 30.124C153.463 29.7412 153.263 29.2376 153.263 28.6133C153.263 28.0072 153.468 27.5104 153.878 27.123C154.288 26.7357 154.867 26.4873 155.614 26.3779L157.617 26.1182V25.9199C157.617 25.3457 157.48 24.9355 157.207 24.6895C156.934 24.4388 156.569 24.3135 156.113 24.3135C155.74 24.3135 155.389 24.3864 155.061 24.5322C154.732 24.6735 154.429 24.89 154.151 25.1816L153.447 24.5391C153.821 24.1426 154.231 23.8486 154.678 23.6572C155.124 23.4613 155.626 23.3633 156.182 23.3633C157.025 23.3633 157.66 23.582 158.089 24.0195C158.522 24.4525 158.738 25.0973 158.738 25.9541V30.5273ZM157.617 27.6836V27.0137L155.895 27.2461C155.389 27.3145 155.008 27.4443 154.753 27.6357C154.502 27.8226 154.377 28.112 154.377 28.5039C154.377 28.9141 154.498 29.2308 154.739 29.4541C154.985 29.6729 155.286 29.7822 155.642 29.7822C156.243 29.7822 156.722 29.584 157.077 29.1875C157.437 28.791 157.617 28.2897 157.617 27.6836ZM166.688 30.5273H165.567V26.5146C165.567 25.7764 165.431 25.2249 165.157 24.8604C164.888 24.4958 164.485 24.3135 163.947 24.3135C163.382 24.3135 162.915 24.5231 162.546 24.9424C162.181 25.3617 161.999 25.8926 161.999 26.5352V30.5273H160.878V23.5273H161.999V24.6689H162.026C162.291 24.2314 162.614 23.9056 162.997 23.6914C163.38 23.4727 163.822 23.3633 164.323 23.3633C165.089 23.3633 165.674 23.6117 166.08 24.1084C166.486 24.6006 166.688 25.3138 166.688 26.248V30.5273ZM173.62 29.3584C173.36 29.8005 173.03 30.1331 172.629 30.3564C172.232 30.5798 171.763 30.6914 171.221 30.6914C170.327 30.6914 169.617 30.3792 169.088 29.7549C168.564 29.126 168.302 28.2715 168.302 27.1914C168.302 26.0293 168.593 25.1019 169.177 24.4092C169.765 23.7119 170.544 23.3633 171.515 23.3633C171.998 23.3633 172.415 23.4567 172.766 23.6436C173.117 23.8304 173.401 24.1084 173.62 24.4775H173.647V20.1641H174.769V30.5273H173.647V29.3584H173.62ZM169.45 27.1367C169.45 27.9434 169.637 28.5791 170.011 29.0439C170.384 29.5088 170.888 29.7412 171.521 29.7412C172.16 29.7412 172.672 29.5179 173.06 29.0713C173.451 28.6201 173.647 28.0505 173.647 27.3623V26.3301C173.647 25.765 173.458 25.2887 173.08 24.9014C172.702 24.5094 172.226 24.3135 171.651 24.3135C170.968 24.3135 170.43 24.5618 170.038 25.0586C169.646 25.5553 169.45 26.248 169.45 27.1367ZM185.74 30.5273H184.619V29.4541H184.592C184.35 29.8643 184.052 30.1742 183.696 30.3838C183.341 30.5889 182.931 30.6914 182.466 30.6914C181.805 30.6914 181.272 30.5023 180.866 30.124C180.465 29.7412 180.265 29.2376 180.265 28.6133C180.265 28.0072 180.47 27.5104 180.88 27.123C181.29 26.7357 181.869 26.4873 182.616 26.3779L184.619 26.1182V25.9199C184.619 25.3457 184.482 24.9355 184.209 24.6895C183.936 24.4388 183.571 24.3135 183.115 24.3135C182.742 24.3135 182.391 24.3864 182.062 24.5322C181.734 24.6735 181.431 24.89 181.153 25.1816L180.449 24.5391C180.823 24.1426 181.233 23.8486 181.68 23.6572C182.126 23.4613 182.628 23.3633 183.184 23.3633C184.027 23.3633 184.662 23.582 185.091 24.0195C185.524 24.4525 185.74 25.0973 185.74 25.9541V30.5273ZM184.619 27.6836V27.0137L182.896 27.2461C182.391 27.3145 182.01 27.4443 181.755 27.6357C181.504 27.8226 181.379 28.112 181.379 28.5039C181.379 28.9141 181.5 29.2308 181.741 29.4541C181.987 29.6729 182.288 29.7822 182.644 29.7822C183.245 29.7822 183.724 29.584 184.079 29.1875C184.439 28.791 184.619 28.2897 184.619 27.6836ZM192.904 30.0215C192.581 30.2539 192.248 30.4225 191.906 30.5273C191.569 30.6367 191.2 30.6914 190.799 30.6914C189.796 30.6914 188.978 30.3838 188.345 29.7686C187.716 29.1488 187.401 28.2829 187.401 27.1709C187.401 26.027 187.72 25.1064 188.358 24.4092C188.996 23.7119 189.865 23.3633 190.963 23.3633C191.35 23.3633 191.715 23.4157 192.057 23.5205C192.403 23.6208 192.74 23.7826 193.068 24.0059L192.549 24.7988C192.285 24.6302 192.022 24.5072 191.763 24.4297C191.507 24.3522 191.227 24.3135 190.922 24.3135C190.165 24.3135 189.58 24.571 189.165 25.0859C188.755 25.5964 188.55 26.2503 188.55 27.0479C188.55 27.9137 188.764 28.5791 189.192 29.0439C189.625 29.5042 190.19 29.7344 190.888 29.7344C191.12 29.7344 191.362 29.6956 191.612 29.6182C191.868 29.5407 192.116 29.4154 192.357 29.2422L192.904 30.0215ZM197.833 30.4248C197.642 30.5114 197.448 30.5775 197.252 30.623C197.061 30.6686 196.844 30.6914 196.603 30.6914C196.042 30.6914 195.604 30.5296 195.29 30.2061C194.976 29.8779 194.818 29.3949 194.818 28.7568V24.4844H193.615V23.5273H194.818V21.8252L195.939 21.4834V23.5273H197.717V24.4844H195.939V28.5859C195.939 29.0052 196.019 29.3037 196.179 29.4814C196.338 29.6592 196.562 29.748 196.849 29.748C196.976 29.748 197.099 29.7298 197.218 29.6934C197.341 29.6569 197.448 29.6159 197.539 29.5703L197.833 30.4248ZM199.815 21.7979C199.597 21.7979 199.412 21.7249 199.262 21.5791C199.116 21.4333 199.043 21.2533 199.043 21.0391C199.043 20.8249 199.116 20.6449 199.262 20.499C199.412 20.3486 199.597 20.2734 199.815 20.2734C200.034 20.2734 200.216 20.3486 200.362 20.499C200.513 20.6449 200.588 20.8249 200.588 21.0391C200.588 21.2533 200.513 21.4333 200.362 21.5791C200.216 21.7249 200.034 21.7979 199.815 21.7979ZM200.362 30.5273H199.241V23.5273H200.362V30.5273ZM208.128 23.5273L205.339 30.5273H204.238L201.586 23.5273H202.816L204.594 28.5996C204.658 28.7819 204.708 28.9505 204.744 29.1055C204.785 29.2559 204.817 29.4017 204.84 29.543H204.867C204.895 29.3698 204.924 29.2103 204.956 29.0645C204.993 28.9141 205.036 28.7682 205.086 28.627L206.945 23.5273H208.128ZM214.971 27.2734H210.008C210.021 28.071 210.229 28.6816 210.63 29.1055C211.031 29.5293 211.582 29.7412 212.284 29.7412C212.612 29.7412 212.934 29.6865 213.248 29.5771C213.567 29.4678 213.877 29.2992 214.178 29.0713L214.752 29.8232C214.374 30.1104 213.979 30.3268 213.569 30.4727C213.159 30.6185 212.701 30.6914 212.195 30.6914C211.156 30.6914 210.338 30.3792 209.741 29.7549C209.149 29.126 208.853 28.2441 208.853 27.1094C208.848 25.9928 209.144 25.0905 209.741 24.4023C210.343 23.7096 211.12 23.3633 212.072 23.3633C212.993 23.3633 213.706 23.6595 214.212 24.252C214.718 24.8444 214.971 25.6647 214.971 26.7129V27.2734ZM213.822 26.3506C213.818 25.7126 213.658 25.2135 213.344 24.8535C213.034 24.4935 212.603 24.3135 212.052 24.3135C211.514 24.3135 211.061 24.5003 210.691 24.874C210.322 25.2432 210.099 25.7354 210.021 26.3506H213.822ZM5.36951 50.5273V50.042C5.36951 49.6227 5.41509 49.2536 5.50623 48.9346C5.59738 48.6156 5.74777 48.3125 5.9574 48.0254C6.16704 47.7383 6.44048 47.4512 6.77772 47.1641C7.11951 46.877 7.53651 46.5534 8.02869 46.1934C8.38416 45.9382 8.68039 45.6943 8.91736 45.4619C9.1589 45.2295 9.35259 44.9971 9.49842 44.7646C9.63058 44.5687 9.73084 44.3454 9.7992 44.0947C9.86756 43.8441 9.90174 43.5889 9.90174 43.3291C9.90174 42.7822 9.74679 42.3447 9.4369 42.0166C9.127 41.6839 8.70545 41.5176 8.17225 41.5176C7.7074 41.5176 7.2813 41.6201 6.89393 41.8252C6.50656 42.0303 6.16932 42.3379 5.88221 42.748L5.09608 42.2012C5.48345 41.6497 5.9369 41.2396 6.45643 40.9707C6.97596 40.6973 7.56841 40.5605 8.23377 40.5605C9.13156 40.5605 9.82427 40.8249 10.3119 41.3535C10.7995 41.8822 11.0433 42.5133 11.0433 43.2471C11.0433 43.598 10.9955 43.9398 10.8998 44.2725C10.8041 44.6051 10.6674 44.9014 10.4896 45.1611C10.3073 45.4482 10.084 45.7217 9.81971 45.9814C9.55994 46.2412 9.24549 46.5055 8.87635 46.7744C8.41606 47.098 8.03553 47.3737 7.73475 47.6016C7.43852 47.8249 7.20382 48.0345 7.03065 48.2305C6.85291 48.431 6.72759 48.6315 6.65467 48.832C6.58631 49.0326 6.55213 49.2627 6.55213 49.5225H11.4193V50.5273H5.36951ZM13.5453 50.6641C13.3311 50.6641 13.1443 50.5889 12.9847 50.4385C12.8298 50.2835 12.7523 50.099 12.7523 49.8848C12.7523 49.6751 12.8298 49.4928 12.9847 49.3379C13.1443 49.1829 13.3311 49.1055 13.5453 49.1055C13.764 49.1055 13.9509 49.1829 14.1058 49.3379C14.2608 49.4928 14.3383 49.6751 14.3383 49.8848C14.3383 50.099 14.2608 50.2835 14.1058 50.4385C13.9509 50.5889 13.764 50.6641 13.5453 50.6641ZM30.9951 50.5273H29.8535V43.9512C29.8535 43.6914 29.8604 43.4089 29.874 43.1035C29.8877 42.7936 29.9082 42.4564 29.9355 42.0918H29.9082C29.8581 42.2969 29.8102 42.4746 29.7646 42.625C29.7191 42.7708 29.6735 42.8939 29.6279 42.9941L26.2783 50.5273H25.7178L22.375 43.0488C22.3294 42.944 22.2816 42.8118 22.2314 42.6523C22.1813 42.4928 22.1312 42.306 22.0811 42.0918H22.0537C22.0719 42.2832 22.0856 42.5339 22.0947 42.8438C22.1038 43.1536 22.1084 43.5273 22.1084 43.9648V50.5273H21.001V40.7246H22.5186L25.5264 47.5605C25.6403 47.8203 25.7337 48.0459 25.8066 48.2373C25.8841 48.4287 25.9411 48.5928 25.9775 48.7295H26.0186C26.1143 48.4697 26.2008 48.2396 26.2783 48.0391C26.3558 47.8385 26.4264 47.6699 26.4902 47.5332L29.5596 40.7246H30.9951V50.5273ZM39.041 47.2734H34.0781C34.0918 48.071 34.2992 48.6816 34.7002 49.1055C35.1012 49.5293 35.6527 49.7412 36.3545 49.7412C36.6826 49.7412 37.0039 49.6865 37.3184 49.5771C37.6374 49.4678 37.9473 49.2992 38.248 49.0713L38.8223 49.8232C38.444 50.1104 38.0498 50.3268 37.6396 50.4727C37.2295 50.6185 36.7715 50.6914 36.2656 50.6914C35.2266 50.6914 34.4085 50.3792 33.8115 49.7549C33.2191 49.126 32.9229 48.2441 32.9229 47.1094C32.9183 45.9928 33.2145 45.0905 33.8115 44.4023C34.4131 43.7096 35.1901 43.3633 36.1426 43.3633C37.0632 43.3633 37.7764 43.6595 38.2822 44.252C38.7881 44.8444 39.041 45.6647 39.041 46.7129V47.2734ZM37.8926 46.3506C37.888 45.7126 37.7285 45.2135 37.4141 44.8535C37.1042 44.4935 36.6735 44.3135 36.1221 44.3135C35.5843 44.3135 35.1309 44.5003 34.7617 44.874C34.3926 45.2432 34.1693 45.7354 34.0918 46.3506H37.8926ZM46.5264 50.5273H45.4053V46.5146C45.4053 45.7764 45.2686 45.2249 44.9951 44.8604C44.7262 44.4958 44.3229 44.3135 43.7852 44.3135C43.2201 44.3135 42.7529 44.5231 42.3838 44.9424C42.0192 45.3617 41.8369 45.8926 41.8369 46.5352V50.5273H40.7158V43.5273H41.8369V44.6689H41.8643C42.1286 44.2314 42.4521 43.9056 42.835 43.6914C43.2178 43.4727 43.6598 43.3633 44.1611 43.3633C44.9268 43.3633 45.5124 43.6117 45.918 44.1084C46.3236 44.6006 46.5264 45.3138 46.5264 46.248V50.5273ZM54.2783 50.5273H53.1572V49.4336H53.1299C52.8975 49.8483 52.599 50.1628 52.2344 50.377C51.8698 50.5866 51.4482 50.6914 50.9697 50.6914C50.1357 50.6914 49.5091 50.4453 49.0898 49.9531C48.6751 49.4564 48.4678 48.7135 48.4678 47.7246V43.5273H49.582V47.5537C49.582 48.2874 49.721 48.8366 49.999 49.2012C50.277 49.5612 50.6986 49.7412 51.2637 49.7412C51.8151 49.7412 52.2686 49.5407 52.624 49.1396C52.9795 48.734 53.1572 48.2054 53.1572 47.5537V43.5273H54.2783V50.5273ZM65.1201 49.3584C64.8604 49.8005 64.5299 50.1331 64.1289 50.3564C63.7324 50.5798 63.263 50.6914 62.7207 50.6914C61.8275 50.6914 61.1165 50.3792 60.5879 49.7549C60.0638 49.126 59.8018 48.2715 59.8018 47.1914C59.8018 46.0293 60.0934 45.1019 60.6768 44.4092C61.2646 43.7119 62.0439 43.3633 63.0146 43.3633C63.4977 43.3633 63.9147 43.4567 64.2656 43.6436C64.6165 43.8304 64.9014 44.1084 65.1201 44.4775H65.1475V40.1641H66.2686V50.5273H65.1475V49.3584H65.1201ZM60.9502 47.1367C60.9502 47.9434 61.137 48.5791 61.5107 49.0439C61.8844 49.5088 62.388 49.7412 63.0215 49.7412C63.6595 49.7412 64.1722 49.5179 64.5596 49.0713C64.9515 48.6201 65.1475 48.0505 65.1475 47.3623V46.3301C65.1475 45.765 64.9583 45.2887 64.5801 44.9014C64.2018 44.5094 63.7256 44.3135 63.1514 44.3135C62.4678 44.3135 61.93 44.5618 61.5381 45.0586C61.1462 45.5553 60.9502 46.248 60.9502 47.1367ZM71.457 50.6914C70.4134 50.6914 69.584 50.3656 68.9688 49.7139C68.3535 49.0576 68.0459 48.1895 68.0459 47.1094C68.0459 45.9427 68.3672 45.029 69.0098 44.3682C69.6523 43.7028 70.5205 43.3678 71.6143 43.3633C72.6579 43.3587 73.4736 43.6823 74.0615 44.334C74.654 44.9811 74.9502 45.8698 74.9502 47C74.9502 48.112 74.6335 49.0052 74 49.6797C73.3711 50.3542 72.5234 50.6914 71.457 50.6914ZM71.5391 49.7412C72.2591 49.7412 72.8151 49.5065 73.207 49.0371C73.6035 48.5632 73.8018 47.8978 73.8018 47.041C73.8018 46.1706 73.6035 45.4984 73.207 45.0244C72.8105 44.5505 72.2546 44.3135 71.5391 44.3135C70.819 44.3135 70.2471 44.5596 69.8232 45.0518C69.404 45.5439 69.1943 46.2161 69.1943 47.0684C69.1943 47.9023 69.4062 48.5563 69.8301 49.0303C70.2585 49.5042 70.8281 49.7412 71.5391 49.7412ZM82.3672 47.2734H77.4043C77.418 48.071 77.6253 48.6816 78.0264 49.1055C78.4274 49.5293 78.9788 49.7412 79.6807 49.7412C80.0088 49.7412 80.3301 49.6865 80.6445 49.5771C80.9635 49.4678 81.2734 49.2992 81.5742 49.0713L82.1484 49.8232C81.7702 50.1104 81.376 50.3268 80.9658 50.4727C80.5557 50.6185 80.0977 50.6914 79.5918 50.6914C78.5527 50.6914 77.7347 50.3792 77.1377 49.7549C76.5452 49.126 76.249 48.2441 76.249 47.1094C76.2445 45.9928 76.5407 45.0905 77.1377 44.4023C77.7393 43.7096 78.5163 43.3633 79.4688 43.3633C80.3893 43.3633 81.1025 43.6595 81.6084 44.252C82.1143 44.8444 82.3672 45.6647 82.3672 46.7129V47.2734ZM81.2188 46.3506C81.2142 45.7126 81.0547 45.2135 80.7402 44.8535C80.4303 44.4935 79.9997 44.3135 79.4482 44.3135C78.9105 44.3135 78.457 44.5003 78.0879 44.874C77.7188 45.2432 77.4954 45.7354 77.418 46.3506H81.2188ZM83.4131 49.8848L84.0078 49.085C84.2904 49.3037 84.5752 49.4701 84.8623 49.584C85.154 49.6934 85.4684 49.748 85.8057 49.748C86.2796 49.748 86.6374 49.6569 86.8789 49.4746C87.1204 49.2878 87.2412 49.0166 87.2412 48.6611C87.2412 48.374 87.1341 48.1325 86.9199 47.9365C86.7057 47.736 86.3639 47.5788 85.8945 47.4648C85.0697 47.2552 84.4818 46.9863 84.1309 46.6582C83.7845 46.3255 83.6113 45.9017 83.6113 45.3867C83.6113 44.7988 83.8301 44.3158 84.2676 43.9375C84.7051 43.5547 85.3021 43.3633 86.0586 43.3633C86.4505 43.3633 86.8197 43.4202 87.166 43.5342C87.5124 43.6436 87.8542 43.8304 88.1914 44.0947L87.6309 44.8809C87.3346 44.6712 87.0612 44.5231 86.8105 44.4365C86.5645 44.3499 86.3047 44.3066 86.0312 44.3066C85.5846 44.3066 85.252 44.3932 85.0332 44.5664C84.8145 44.735 84.7051 44.9743 84.7051 45.2842C84.7051 45.5941 84.8167 45.8288 85.04 45.9883C85.2633 46.1478 85.6484 46.2936 86.1953 46.4258C86.9108 46.6035 87.4463 46.8656 87.8018 47.2119C88.1572 47.5537 88.335 48.0117 88.335 48.5859C88.335 49.2285 88.1048 49.7412 87.6445 50.124C87.1888 50.5023 86.5645 50.6914 85.7715 50.6914C85.3203 50.6914 84.8942 50.623 84.4932 50.4863C84.0921 50.3496 83.7321 50.1491 83.4131 49.8848ZM99.6006 50.5273H98.4795V46.5146C98.4795 45.7764 98.3428 45.2249 98.0693 44.8604C97.8005 44.4958 97.3971 44.3135 96.8594 44.3135C96.2943 44.3135 95.8271 44.5231 95.458 44.9424C95.0934 45.3617 94.9111 45.8926 94.9111 46.5352V50.5273H93.79V43.5273H94.9111V44.6689H94.9385C95.2028 44.2314 95.5264 43.9056 95.9092 43.6914C96.292 43.4727 96.734 43.3633 97.2354 43.3633C98.001 43.3633 98.5866 43.6117 98.9922 44.1084C99.3978 44.6006 99.6006 45.3138 99.6006 46.248V50.5273ZM104.625 50.6914C103.581 50.6914 102.752 50.3656 102.137 49.7139C101.521 49.0576 101.214 48.1895 101.214 47.1094C101.214 45.9427 101.535 45.029 102.178 44.3682C102.82 43.7028 103.688 43.3678 104.782 43.3633C105.826 43.3587 106.642 43.6823 107.229 44.334C107.822 44.9811 108.118 45.8698 108.118 47C108.118 48.112 107.801 49.0052 107.168 49.6797C106.539 50.3542 105.691 50.6914 104.625 50.6914ZM104.707 49.7412C105.427 49.7412 105.983 49.5065 106.375 49.0371C106.771 48.5632 106.97 47.8978 106.97 47.041C106.97 46.1706 106.771 45.4984 106.375 45.0244C105.979 44.5505 105.423 44.3135 104.707 44.3135C103.987 44.3135 103.415 44.5596 102.991 45.0518C102.572 45.5439 102.362 46.2161 102.362 47.0684C102.362 47.9023 102.574 48.5563 102.998 49.0303C103.426 49.5042 103.996 49.7412 104.707 49.7412ZM113.272 50.4248C113.081 50.5114 112.887 50.5775 112.691 50.623C112.5 50.6686 112.284 50.6914 112.042 50.6914C111.481 50.6914 111.044 50.5296 110.729 50.2061C110.415 49.8779 110.258 49.3949 110.258 48.7568V44.4844H109.055V43.5273H110.258V41.8252L111.379 41.4834V43.5273H113.156V44.4844H111.379V48.5859C111.379 49.0052 111.459 49.3037 111.618 49.4814C111.778 49.6592 112.001 49.748 112.288 49.748C112.416 49.748 112.539 49.7298 112.657 49.6934C112.78 49.6569 112.887 49.6159 112.979 49.5703L113.272 50.4248ZM121.373 50.6914C120.329 50.6914 119.5 50.3656 118.885 49.7139C118.27 49.0576 117.962 48.1895 117.962 47.1094C117.962 45.9427 118.283 45.029 118.926 44.3682C119.568 43.7028 120.437 43.3678 121.53 43.3633C122.574 43.3587 123.39 43.6823 123.978 44.334C124.57 44.9811 124.866 45.8698 124.866 47C124.866 48.112 124.549 49.0052 123.916 49.6797C123.287 50.3542 122.439 50.6914 121.373 50.6914ZM121.455 49.7412C122.175 49.7412 122.731 49.5065 123.123 49.0371C123.52 48.5632 123.718 47.8978 123.718 47.041C123.718 46.1706 123.52 45.4984 123.123 45.0244C122.727 44.5505 122.171 44.3135 121.455 44.3135C120.735 44.3135 120.163 44.5596 119.739 45.0518C119.32 45.5439 119.11 46.2161 119.11 47.0684C119.11 47.9023 119.322 48.5563 119.746 49.0303C120.174 49.5042 120.744 49.7412 121.455 49.7412ZM132.153 43.5273L129.364 50.5273H128.264L125.611 43.5273H126.842L128.619 48.5996C128.683 48.7819 128.733 48.9505 128.77 49.1055C128.811 49.2559 128.842 49.4017 128.865 49.543H128.893C128.92 49.3698 128.95 49.2103 128.981 49.0645C129.018 48.9141 129.061 48.7682 129.111 48.627L130.971 43.5273H132.153ZM138.996 47.2734H134.033C134.047 48.071 134.254 48.6816 134.655 49.1055C135.056 49.5293 135.608 49.7412 136.31 49.7412C136.638 49.7412 136.959 49.6865 137.273 49.5771C137.592 49.4678 137.902 49.2992 138.203 49.0713L138.777 49.8232C138.399 50.1104 138.005 50.3268 137.595 50.4727C137.185 50.6185 136.727 50.6914 136.221 50.6914C135.182 50.6914 134.364 50.3792 133.767 49.7549C133.174 49.126 132.878 48.2441 132.878 47.1094C132.873 45.9928 133.17 45.0905 133.767 44.4023C134.368 43.7096 135.145 43.3633 136.098 43.3633C137.018 43.3633 137.731 43.6595 138.237 44.252C138.743 44.8444 138.996 45.6647 138.996 46.7129V47.2734ZM137.848 46.3506C137.843 45.7126 137.684 45.2135 137.369 44.8535C137.059 44.4935 136.629 44.3135 136.077 44.3135C135.539 44.3135 135.086 44.5003 134.717 44.874C134.348 45.2432 134.124 45.7354 134.047 46.3506H137.848ZM144.137 44.498C144.05 44.4661 143.968 44.4434 143.891 44.4297C143.813 44.416 143.72 44.4092 143.61 44.4092C143.05 44.4092 142.605 44.653 142.277 45.1406C141.954 45.6237 141.792 46.2298 141.792 46.959V50.5273H140.671V43.5273H141.792V44.9014H141.819C141.979 44.4137 142.223 44.0423 142.551 43.7871C142.879 43.5319 143.255 43.4043 143.679 43.4043C143.825 43.4043 143.95 43.4134 144.055 43.4316C144.16 43.4453 144.26 43.4704 144.355 43.5068L144.137 44.498ZM145.565 50.5273V40.1641H146.687V50.5273H145.565ZM153.898 50.5273H152.777V49.4541H152.75C152.508 49.8643 152.21 50.1742 151.854 50.3838C151.499 50.5889 151.089 50.6914 150.624 50.6914C149.963 50.6914 149.43 50.5023 149.024 50.124C148.623 49.7412 148.423 49.2376 148.423 48.6133C148.423 48.0072 148.628 47.5104 149.038 47.123C149.448 46.7357 150.027 46.4873 150.774 46.3779L152.777 46.1182V45.9199C152.777 45.3457 152.641 44.9355 152.367 44.6895C152.094 44.4388 151.729 44.3135 151.273 44.3135C150.9 44.3135 150.549 44.3864 150.221 44.5322C149.893 44.6735 149.59 44.89 149.312 45.1816L148.607 44.5391C148.981 44.1426 149.391 43.8486 149.838 43.6572C150.285 43.4613 150.786 43.3633 151.342 43.3633C152.185 43.3633 152.821 43.582 153.249 44.0195C153.682 44.4525 153.898 45.0973 153.898 45.9541V50.5273ZM152.777 47.6836V47.0137L151.055 47.2461C150.549 47.3145 150.168 47.4443 149.913 47.6357C149.662 47.8226 149.537 48.112 149.537 48.5039C149.537 48.9141 149.658 49.2308 149.899 49.4541C150.146 49.6729 150.446 49.7822 150.802 49.7822C151.403 49.7822 151.882 49.584 152.237 49.1875C152.597 48.791 152.777 48.2897 152.777 47.6836ZM157.187 49.5361H157.159V53.7471H156.038V43.5273H157.159V44.7373H157.187C157.465 44.277 157.804 43.9329 158.205 43.7051C158.611 43.4772 159.076 43.3633 159.6 43.3633C160.511 43.3633 161.22 43.6777 161.726 44.3066C162.236 44.931 162.491 45.7718 162.491 46.8291C162.491 47.9958 162.206 48.9323 161.637 49.6387C161.067 50.3405 160.288 50.6914 159.299 50.6914C158.843 50.6914 158.44 50.5957 158.089 50.4043C157.738 50.2129 157.437 49.9235 157.187 49.5361ZM157.159 46.6924V47.6699C157.159 48.2487 157.348 48.7386 157.727 49.1396C158.105 49.5407 158.586 49.7412 159.169 49.7412C159.848 49.7412 160.379 49.4837 160.762 48.9688C161.149 48.4492 161.343 47.7337 161.343 46.8223C161.343 46.0293 161.163 45.4141 160.803 44.9766C160.443 44.5345 159.955 44.3135 159.34 44.3135C158.684 44.3135 158.155 44.5391 157.754 44.9902C157.357 45.4414 157.159 46.0088 157.159 46.6924ZM171.371 41.0938C171.248 41.0482 171.134 41.0163 171.029 40.998C170.924 40.9753 170.813 40.9639 170.694 40.9639C170.316 40.9639 170.034 41.0664 169.847 41.2715C169.66 41.4766 169.566 41.7796 169.566 42.1807V43.5273H171.207V44.4844H169.566V50.5273H168.452V44.4844H167.256V43.5273H168.452V42.126C168.452 41.4697 168.653 40.9525 169.054 40.5742C169.459 40.1914 170.015 40 170.722 40C170.899 40 171.063 40.0182 171.214 40.0547C171.364 40.0866 171.519 40.1299 171.679 40.1846L171.371 41.0938ZM177.373 50.5273H176.252V49.4541H176.225C175.983 49.8643 175.685 50.1742 175.329 50.3838C174.974 50.5889 174.563 50.6914 174.099 50.6914C173.438 50.6914 172.905 50.5023 172.499 50.124C172.098 49.7412 171.897 49.2376 171.897 48.6133C171.897 48.0072 172.103 47.5104 172.513 47.123C172.923 46.7357 173.502 46.4873 174.249 46.3779L176.252 46.1182V45.9199C176.252 45.3457 176.115 44.9355 175.842 44.6895C175.568 44.4388 175.204 44.3135 174.748 44.3135C174.374 44.3135 174.023 44.3864 173.695 44.5322C173.367 44.6735 173.064 44.89 172.786 45.1816L172.082 44.5391C172.456 44.1426 172.866 43.8486 173.312 43.6572C173.759 43.4613 174.26 43.3633 174.816 43.3633C175.66 43.3633 176.295 43.582 176.724 44.0195C177.157 44.4525 177.373 45.0973 177.373 45.9541V50.5273ZM176.252 47.6836V47.0137L174.529 47.2461C174.023 47.3145 173.643 47.4443 173.388 47.6357C173.137 47.8226 173.012 48.112 173.012 48.5039C173.012 48.9141 173.132 49.2308 173.374 49.4541C173.62 49.6729 173.921 49.7822 174.276 49.7822C174.878 49.7822 175.356 49.584 175.712 49.1875C176.072 48.791 176.252 48.2897 176.252 47.6836ZM184.537 50.0215C184.214 50.2539 183.881 50.4225 183.539 50.5273C183.202 50.6367 182.833 50.6914 182.432 50.6914C181.429 50.6914 180.611 50.3838 179.978 49.7686C179.349 49.1488 179.034 48.2829 179.034 47.1709C179.034 46.027 179.353 45.1064 179.991 44.4092C180.629 43.7119 181.497 43.3633 182.596 43.3633C182.983 43.3633 183.348 43.4157 183.689 43.5205C184.036 43.6208 184.373 43.7826 184.701 44.0059L184.182 44.7988C183.917 44.6302 183.655 44.5072 183.396 44.4297C183.14 44.3522 182.86 44.3135 182.555 44.3135C181.798 44.3135 181.213 44.571 180.798 45.0859C180.388 45.5964 180.183 46.2503 180.183 47.0479C180.183 47.9137 180.397 48.5791 180.825 49.0439C181.258 49.5042 181.823 49.7344 182.521 49.7344C182.753 49.7344 182.994 49.6956 183.245 49.6182C183.5 49.5407 183.749 49.4154 183.99 49.2422L184.537 50.0215ZM191.729 47.2734H186.766C186.779 48.071 186.987 48.6816 187.388 49.1055C187.789 49.5293 188.34 49.7412 189.042 49.7412C189.37 49.7412 189.691 49.6865 190.006 49.5771C190.325 49.4678 190.635 49.2992 190.936 49.0713L191.51 49.8232C191.132 50.1104 190.737 50.3268 190.327 50.4727C189.917 50.6185 189.459 50.6914 188.953 50.6914C187.914 50.6914 187.096 50.3792 186.499 49.7549C185.907 49.126 185.61 48.2441 185.61 47.1094C185.606 45.9928 185.902 45.0905 186.499 44.4023C187.101 43.7096 187.878 43.3633 188.83 43.3633C189.751 43.3633 190.464 43.6595 190.97 44.252C191.476 44.8444 191.729 45.6647 191.729 46.7129V47.2734ZM190.58 46.3506C190.576 45.7126 190.416 45.2135 190.102 44.8535C189.792 44.4935 189.361 44.3135 188.81 44.3135C188.272 44.3135 187.818 44.5003 187.449 44.874C187.08 45.2432 186.857 45.7354 186.779 46.3506H190.58ZM194.552 49.5361H194.524V53.7471H193.403V43.5273H194.524V44.7373H194.552C194.83 44.277 195.169 43.9329 195.57 43.7051C195.976 43.4772 196.441 43.3633 196.965 43.3633C197.876 43.3633 198.585 43.6777 199.091 44.3066C199.601 44.931 199.856 45.7718 199.856 46.8291C199.856 47.9958 199.572 48.9323 199.002 49.6387C198.432 50.3405 197.653 50.6914 196.664 50.6914C196.208 50.6914 195.805 50.5957 195.454 50.4043C195.103 50.2129 194.802 49.9235 194.552 49.5361ZM194.524 46.6924V47.6699C194.524 48.2487 194.714 48.7386 195.092 49.1396C195.47 49.5407 195.951 49.7412 196.534 49.7412C197.213 49.7412 197.744 49.4837 198.127 48.9688C198.514 48.4492 198.708 47.7337 198.708 46.8223C198.708 46.0293 198.528 45.4141 198.168 44.9766C197.808 44.5345 197.32 44.3135 196.705 44.3135C196.049 44.3135 195.52 44.5391 195.119 44.9902C194.723 45.4414 194.524 46.0088 194.524 46.6924ZM201.634 50.5273V40.1641H202.755V50.5273H201.634ZM209.967 50.5273H208.846V49.4541H208.818C208.577 49.8643 208.278 50.1742 207.923 50.3838C207.567 50.5889 207.157 50.6914 206.692 50.6914C206.032 50.6914 205.498 50.5023 205.093 50.124C204.692 49.7412 204.491 49.2376 204.491 48.6133C204.491 48.0072 204.696 47.5104 205.106 47.123C205.517 46.7357 206.095 46.4873 206.843 46.3779L208.846 46.1182V45.9199C208.846 45.3457 208.709 44.9355 208.436 44.6895C208.162 44.4388 207.798 44.3135 207.342 44.3135C206.968 44.3135 206.617 44.3864 206.289 44.5322C205.961 44.6735 205.658 44.89 205.38 45.1816L204.676 44.5391C205.049 44.1426 205.46 43.8486 205.906 43.6572C206.353 43.4613 206.854 43.3633 207.41 43.3633C208.253 43.3633 208.889 43.582 209.317 44.0195C209.75 44.4525 209.967 45.0973 209.967 45.9541V50.5273ZM208.846 47.6836V47.0137L207.123 47.2461C206.617 47.3145 206.237 47.4443 205.981 47.6357C205.731 47.8226 205.605 48.112 205.605 48.5039C205.605 48.9141 205.726 49.2308 205.968 49.4541C206.214 49.6729 206.515 49.7822 206.87 49.7822C207.472 49.7822 207.95 49.584 208.306 49.1875C208.666 48.791 208.846 48.2897 208.846 47.6836ZM215.483 50.4248C215.292 50.5114 215.098 50.5775 214.902 50.623C214.711 50.6686 214.494 50.6914 214.253 50.6914C213.692 50.6914 213.255 50.5296 212.94 50.2061C212.626 49.8779 212.469 49.3949 212.469 48.7568V44.4844H211.266V43.5273H212.469V41.8252L213.59 41.4834V43.5273H215.367V44.4844H213.59V48.5859C213.59 49.0052 213.67 49.3037 213.829 49.4814C213.989 49.6592 214.212 49.748 214.499 49.748C214.627 49.748 214.75 49.7298 214.868 49.6934C214.991 49.6569 215.098 49.6159 215.189 49.5703L215.483 50.4248ZM222.531 47.2734H217.568C217.582 48.071 217.789 48.6816 218.19 49.1055C218.591 49.5293 219.143 49.7412 219.845 49.7412C220.173 49.7412 220.494 49.6865 220.809 49.5771C221.128 49.4678 221.438 49.2992 221.738 49.0713L222.312 49.8232C221.934 50.1104 221.54 50.3268 221.13 50.4727C220.72 50.6185 220.262 50.6914 219.756 50.6914C218.717 50.6914 217.899 50.3792 217.302 49.7549C216.709 49.126 216.413 48.2441 216.413 47.1094C216.409 45.9928 216.705 45.0905 217.302 44.4023C217.903 43.7096 218.68 43.3633 219.633 43.3633C220.553 43.3633 221.267 43.6595 221.772 44.252C222.278 44.8444 222.531 45.6647 222.531 46.7129V47.2734ZM221.383 46.3506C221.378 45.7126 221.219 45.2135 220.904 44.8535C220.594 44.4935 220.164 44.3135 219.612 44.3135C219.075 44.3135 218.621 44.5003 218.252 44.874C217.883 45.2432 217.66 45.7354 217.582 46.3506H221.383Z" fill="black"/>
</svg>
