<svg width="181" height="11" viewBox="0 0 181 11" fill="none" xmlns="http://www.w3.org/2000/svg">
<path d="M12.7031 0.560547L9.94141 10.3633H8.6084L6.5918 3.21289C6.55078 3.0625 6.5166 2.90983 6.48926 2.75488C6.46191 2.59538 6.44368 2.42904 6.43457 2.25586H6.40723C6.39355 2.41992 6.37077 2.58171 6.33887 2.74121C6.31152 2.89616 6.27507 3.04883 6.22949 3.19922L4.19922 10.3633H2.87305L0.00195312 0.560547H1.25977L3.35156 8.05957C3.39714 8.21908 3.43359 8.3763 3.46094 8.53125C3.48828 8.68164 3.50879 8.84115 3.52246 9.00977H3.55664C3.57031 8.88672 3.5931 8.74772 3.625 8.59277C3.66146 8.43783 3.70703 8.26009 3.76172 8.05957L5.92188 0.560547H7.01562L9.09375 8.10742C9.13021 8.23958 9.16211 8.37858 9.18945 8.52441C9.2168 8.66569 9.23958 8.82292 9.25781 8.99609H9.28516C9.29883 8.87305 9.32161 8.73861 9.35352 8.59277C9.38542 8.44238 9.42415 8.27376 9.46973 8.08691L11.4795 0.560547H12.7031ZM14.6035 1.63379C14.3848 1.63379 14.2002 1.56087 14.0498 1.41504C13.904 1.26921 13.8311 1.08919 13.8311 0.875C13.8311 0.660807 13.904 0.480794 14.0498 0.334961C14.2002 0.18457 14.3848 0.109375 14.6035 0.109375C14.8223 0.109375 15.0046 0.18457 15.1504 0.334961C15.3008 0.480794 15.376 0.660807 15.376 0.875C15.376 1.08919 15.3008 1.26921 15.1504 1.41504C15.0046 1.56087 14.8223 1.63379 14.6035 1.63379ZM15.1504 10.3633H14.0293V3.36328H15.1504V10.3633ZM23.2168 10.3633H22.0957V6.35059C22.0957 5.6123 21.959 5.06087 21.6855 4.69629C21.4167 4.33171 21.0133 4.14941 20.4756 4.14941C19.9105 4.14941 19.4434 4.35905 19.0742 4.77832C18.7096 5.19759 18.5273 5.72852 18.5273 6.37109V10.3633H17.4062V3.36328H18.5273V4.50488H18.5547C18.819 4.06738 19.1426 3.74154 19.5254 3.52734C19.9082 3.30859 20.3503 3.19922 20.8516 3.19922C21.6172 3.19922 22.2028 3.44759 22.6084 3.94434C23.014 4.43652 23.2168 5.14974 23.2168 6.08398V10.3633ZM36.3896 6.41211C36.3896 7.76107 36.0775 8.78418 35.4531 9.48145C34.8333 10.1787 33.9036 10.5273 32.6641 10.5273C31.4746 10.5273 30.5814 10.1924 29.9844 9.52246C29.3919 8.85254 29.0957 7.86361 29.0957 6.55566V0.560547H30.2441V6.48047C30.2441 7.47852 30.4583 8.23047 30.8867 8.73633C31.3151 9.23763 31.9486 9.48828 32.7871 9.48828C33.5938 9.48828 34.2044 9.24674 34.6191 8.76367C35.0339 8.27604 35.2412 7.54915 35.2412 6.58301V0.560547H36.3896V6.41211ZM39.9648 10.3633H38.8164V0.560547H39.9648V10.3633ZM45.9805 6.9043V6.02246H49.7129V6.9043H45.9805ZM60.4248 10.3633H59.3037V9.29004H59.2764C59.0348 9.7002 58.7363 10.0101 58.3809 10.2197C58.0254 10.4248 57.6152 10.5273 57.1504 10.5273C56.4896 10.5273 55.9564 10.3382 55.5508 9.95996C55.1497 9.57715 54.9492 9.07357 54.9492 8.44922C54.9492 7.8431 55.1543 7.34635 55.5645 6.95898C55.9746 6.57161 56.5534 6.32324 57.3008 6.21387L59.3037 5.9541V5.75586C59.3037 5.18164 59.167 4.77148 58.8936 4.52539C58.6201 4.27474 58.2555 4.14941 57.7998 4.14941C57.4261 4.14941 57.0752 4.22233 56.7471 4.36816C56.4189 4.50944 56.1159 4.72591 55.8379 5.01758L55.1338 4.375C55.5075 3.97852 55.9176 3.68457 56.3643 3.49316C56.8109 3.2972 57.3122 3.19922 57.8682 3.19922C58.7113 3.19922 59.347 3.41797 59.7754 3.85547C60.2083 4.28841 60.4248 4.93327 60.4248 5.79004V10.3633ZM59.3037 7.51953V6.84961L57.5811 7.08203C57.0752 7.15039 56.6947 7.28027 56.4395 7.47168C56.1888 7.65853 56.0635 7.94792 56.0635 8.33984C56.0635 8.75 56.1842 9.06673 56.4258 9.29004C56.6719 9.50879 56.9727 9.61816 57.3281 9.61816C57.9297 9.61816 58.4082 9.41992 58.7637 9.02344C59.1237 8.62695 59.3037 8.12565 59.3037 7.51953ZM67.5889 9.85742C67.2653 10.0898 66.9326 10.2585 66.5908 10.3633C66.2536 10.4727 65.8844 10.5273 65.4834 10.5273C64.4808 10.5273 63.6628 10.2197 63.0293 9.60449C62.4004 8.9847 62.0859 8.11882 62.0859 7.00684C62.0859 5.86296 62.4049 4.94238 63.043 4.24512C63.681 3.54785 64.5492 3.19922 65.6475 3.19922C66.0348 3.19922 66.3994 3.25163 66.7412 3.35645C67.0876 3.45671 67.4248 3.61849 67.7529 3.8418L67.2334 4.63477C66.9691 4.46615 66.707 4.3431 66.4473 4.26562C66.1921 4.18815 65.9118 4.14941 65.6064 4.14941C64.8499 4.14941 64.2643 4.4069 63.8496 4.92188C63.4395 5.43229 63.2344 6.08626 63.2344 6.88379C63.2344 7.74967 63.4486 8.41504 63.877 8.87988C64.3099 9.34017 64.875 9.57031 65.5723 9.57031C65.8047 9.57031 66.0462 9.53158 66.2969 9.4541C66.5521 9.37663 66.8005 9.2513 67.042 9.07812L67.5889 9.85742ZM74.165 9.85742C73.8415 10.0898 73.5088 10.2585 73.167 10.3633C72.8298 10.4727 72.4606 10.5273 72.0596 10.5273C71.057 10.5273 70.2389 10.2197 69.6055 9.60449C68.9766 8.9847 68.6621 8.11882 68.6621 7.00684C68.6621 5.86296 68.9811 4.94238 69.6191 4.24512C70.2572 3.54785 71.1253 3.19922 72.2236 3.19922C72.611 3.19922 72.9756 3.25163 73.3174 3.35645C73.6637 3.45671 74.001 3.61849 74.3291 3.8418L73.8096 4.63477C73.5452 4.46615 73.2832 4.3431 73.0234 4.26562C72.7682 4.18815 72.488 4.14941 72.1826 4.14941C71.4261 4.14941 70.8405 4.4069 70.4258 4.92188C70.0156 5.43229 69.8105 6.08626 69.8105 6.88379C69.8105 7.74967 70.0247 8.41504 70.4531 8.87988C70.8861 9.34017 71.4512 9.57031 72.1484 9.57031C72.3809 9.57031 72.6224 9.53158 72.873 9.4541C73.1283 9.37663 73.3766 9.2513 73.6182 9.07812L74.165 9.85742ZM81.3564 7.10938H76.3936C76.4072 7.9069 76.6146 8.51758 77.0156 8.94141C77.4167 9.36523 77.9681 9.57715 78.6699 9.57715C78.998 9.57715 79.3193 9.52246 79.6338 9.41309C79.9528 9.30371 80.2627 9.13509 80.5635 8.90723L81.1377 9.65918C80.7594 9.94629 80.3652 10.1628 79.9551 10.3086C79.5449 10.4544 79.0869 10.5273 78.5811 10.5273C77.542 10.5273 76.724 10.2152 76.127 9.59082C75.5345 8.96191 75.2383 8.08008 75.2383 6.94531C75.2337 5.82878 75.5299 4.92643 76.127 4.23828C76.7285 3.54557 77.5055 3.19922 78.458 3.19922C79.3786 3.19922 80.0918 3.49544 80.5977 4.08789C81.1035 4.68034 81.3564 5.50065 81.3564 6.54883V7.10938ZM80.208 6.18652C80.2035 5.5485 80.0439 5.04948 79.7295 4.68945C79.4196 4.32943 78.9889 4.14941 78.4375 4.14941C77.8997 4.14941 77.4463 4.33626 77.0771 4.70996C76.708 5.0791 76.4847 5.57129 76.4072 6.18652H80.208ZM88.8418 10.3633H87.7207V6.35059C87.7207 5.6123 87.584 5.06087 87.3105 4.69629C87.0417 4.33171 86.6383 4.14941 86.1006 4.14941C85.5355 4.14941 85.0684 4.35905 84.6992 4.77832C84.3346 5.19759 84.1523 5.72852 84.1523 6.37109V10.3633H83.0312V3.36328H84.1523V4.50488H84.1797C84.444 4.06738 84.7676 3.74154 85.1504 3.52734C85.5332 3.30859 85.9753 3.19922 86.4766 3.19922C87.2422 3.19922 87.8278 3.44759 88.2334 3.94434C88.639 4.43652 88.8418 5.14974 88.8418 6.08398V10.3633ZM94.3105 10.2607C94.1191 10.3473 93.9255 10.4134 93.7295 10.459C93.5381 10.5046 93.3216 10.5273 93.0801 10.5273C92.5195 10.5273 92.082 10.3656 91.7676 10.042C91.4531 9.71387 91.2959 9.23079 91.2959 8.59277V4.32031H90.0928V3.36328H91.2959V1.66113L92.417 1.31934V3.36328H94.1943V4.32031H92.417V8.42188C92.417 8.84115 92.4967 9.13965 92.6562 9.31738C92.8158 9.49512 93.0391 9.58398 93.3262 9.58398C93.4538 9.58398 93.5768 9.56576 93.6953 9.5293C93.8184 9.49284 93.9255 9.45182 94.0166 9.40625L94.3105 10.2607ZM98.8496 9.7207L99.4443 8.9209C99.7269 9.13965 100.012 9.30599 100.299 9.41992C100.59 9.5293 100.905 9.58398 101.242 9.58398C101.716 9.58398 102.074 9.49284 102.315 9.31055C102.557 9.1237 102.678 8.85254 102.678 8.49707C102.678 8.20996 102.571 7.96842 102.356 7.77246C102.142 7.57194 101.8 7.41471 101.331 7.30078C100.506 7.09115 99.9183 6.82227 99.5674 6.49414C99.221 6.16146 99.0479 5.73763 99.0479 5.22266C99.0479 4.63477 99.2666 4.15169 99.7041 3.77344C100.142 3.39062 100.739 3.19922 101.495 3.19922C101.887 3.19922 102.256 3.25618 102.603 3.37012C102.949 3.47949 103.291 3.66634 103.628 3.93066L103.067 4.7168C102.771 4.50716 102.498 4.35905 102.247 4.27246C102.001 4.18587 101.741 4.14258 101.468 4.14258C101.021 4.14258 100.688 4.22917 100.47 4.40234C100.251 4.57096 100.142 4.81022 100.142 5.12012C100.142 5.43001 100.253 5.66471 100.477 5.82422C100.7 5.98372 101.085 6.12956 101.632 6.26172C102.347 6.43945 102.883 6.7015 103.238 7.04785C103.594 7.38965 103.771 7.84766 103.771 8.42188C103.771 9.06445 103.541 9.57715 103.081 9.95996C102.625 10.3382 102.001 10.5273 101.208 10.5273C100.757 10.5273 100.331 10.459 99.9297 10.3223C99.5286 10.1855 99.1686 9.98503 98.8496 9.7207ZM111.127 10.3633H110.006V9.26953H109.979C109.746 9.68424 109.448 9.9987 109.083 10.2129C108.718 10.4225 108.297 10.5273 107.818 10.5273C106.984 10.5273 106.358 10.2812 105.938 9.78906C105.524 9.29232 105.316 8.54948 105.316 7.56055V3.36328H106.431V7.38965C106.431 8.12337 106.57 8.67253 106.848 9.03711C107.126 9.39714 107.547 9.57715 108.112 9.57715C108.664 9.57715 109.117 9.37663 109.473 8.97559C109.828 8.56999 110.006 8.04134 110.006 7.38965V3.36328H111.127V10.3633ZM114.518 9.46777H114.49V10.3633H113.369V0H114.49V4.57324H114.518C114.791 4.11751 115.128 3.77572 115.529 3.54785C115.935 3.31543 116.402 3.19922 116.931 3.19922C117.833 3.19922 118.539 3.51367 119.05 4.14258C119.565 4.76693 119.822 5.60775 119.822 6.66504C119.822 7.83626 119.537 8.77279 118.968 9.47461C118.398 10.1764 117.619 10.5273 116.63 10.5273C116.165 10.5273 115.755 10.4385 115.399 10.2607C115.044 10.083 114.75 9.81868 114.518 9.46777ZM114.49 6.52832V7.50586C114.49 8.08464 114.677 8.57454 115.051 8.97559C115.429 9.37663 115.912 9.57715 116.5 9.57715C117.179 9.57715 117.71 9.31966 118.093 8.80469C118.48 8.28971 118.674 7.57422 118.674 6.6582C118.674 5.86979 118.494 5.25456 118.134 4.8125C117.774 4.37044 117.286 4.14941 116.671 4.14941C116.015 4.14941 115.486 4.375 115.085 4.82617C114.688 5.27734 114.49 5.84473 114.49 6.52832ZM124.977 10.2607C124.785 10.3473 124.591 10.4134 124.396 10.459C124.204 10.5046 123.988 10.5273 123.746 10.5273C123.186 10.5273 122.748 10.3656 122.434 10.042C122.119 9.71387 121.962 9.23079 121.962 8.59277V4.32031H120.759V3.36328H121.962V1.66113L123.083 1.31934V3.36328H124.86V4.32031H123.083V8.42188C123.083 8.84115 123.163 9.13965 123.322 9.31738C123.482 9.49512 123.705 9.58398 123.992 9.58398C124.12 9.58398 124.243 9.56576 124.361 9.5293C124.484 9.49284 124.591 9.45182 124.683 9.40625L124.977 10.2607ZM126.385 10.3633V0H127.506V10.3633H126.385ZM135.401 7.10938H130.438C130.452 7.9069 130.66 8.51758 131.061 8.94141C131.462 9.36523 132.013 9.57715 132.715 9.57715C133.043 9.57715 133.364 9.52246 133.679 9.41309C133.998 9.30371 134.308 9.13509 134.608 8.90723L135.183 9.65918C134.804 9.94629 134.41 10.1628 134 10.3086C133.59 10.4544 133.132 10.5273 132.626 10.5273C131.587 10.5273 130.769 10.2152 130.172 9.59082C129.579 8.96191 129.283 8.08008 129.283 6.94531C129.279 5.82878 129.575 4.92643 130.172 4.23828C130.773 3.54557 131.55 3.19922 132.503 3.19922C133.424 3.19922 134.137 3.49544 134.643 4.08789C135.148 4.68034 135.401 5.50065 135.401 6.54883V7.10938ZM134.253 6.18652C134.248 5.5485 134.089 5.04948 133.774 4.68945C133.465 4.32943 133.034 4.14941 132.482 4.14941C131.945 4.14941 131.491 4.33626 131.122 4.70996C130.753 5.0791 130.53 5.57129 130.452 6.18652H134.253ZM141.984 9.46777H141.957V10.3633H140.836V0H141.957V4.57324H141.984C142.258 4.11751 142.595 3.77572 142.996 3.54785C143.402 3.31543 143.869 3.19922 144.397 3.19922C145.3 3.19922 146.006 3.51367 146.517 4.14258C147.032 4.76693 147.289 5.60775 147.289 6.66504C147.289 7.83626 147.004 8.77279 146.435 9.47461C145.865 10.1764 145.086 10.5273 144.097 10.5273C143.632 10.5273 143.222 10.4385 142.866 10.2607C142.511 10.083 142.217 9.81868 141.984 9.46777ZM141.957 6.52832V7.50586C141.957 8.08464 142.144 8.57454 142.518 8.97559C142.896 9.37663 143.379 9.57715 143.967 9.57715C144.646 9.57715 145.177 9.31966 145.56 8.80469C145.947 8.28971 146.141 7.57422 146.141 6.6582C146.141 5.86979 145.961 5.25456 145.601 4.8125C145.241 4.37044 144.753 4.14941 144.138 4.14941C143.481 4.14941 142.953 4.375 142.552 4.82617C142.155 5.27734 141.957 5.84473 141.957 6.52832ZM154.727 10.3633H153.605V9.26953H153.578C153.346 9.68424 153.047 9.9987 152.683 10.2129C152.318 10.4225 151.896 10.5273 151.418 10.5273C150.584 10.5273 149.957 10.2812 149.538 9.78906C149.123 9.29232 148.916 8.54948 148.916 7.56055V3.36328H150.03V7.38965C150.03 8.12337 150.169 8.67253 150.447 9.03711C150.725 9.39714 151.147 9.57715 151.712 9.57715C152.263 9.57715 152.717 9.37663 153.072 8.97559C153.428 8.56999 153.605 8.04134 153.605 7.38965V3.36328H154.727V10.3633ZM160.346 10.2607C160.154 10.3473 159.961 10.4134 159.765 10.459C159.573 10.5046 159.357 10.5273 159.115 10.5273C158.555 10.5273 158.117 10.3656 157.803 10.042C157.488 9.71387 157.331 9.23079 157.331 8.59277V4.32031H156.128V3.36328H157.331V1.66113L158.452 1.31934V3.36328H160.229V4.32031H158.452V8.42188C158.452 8.84115 158.532 9.13965 158.691 9.31738C158.851 9.49512 159.074 9.58398 159.361 9.58398C159.489 9.58398 159.612 9.56576 159.73 9.5293C159.854 9.49284 159.961 9.45182 160.052 9.40625L160.346 10.2607ZM165.131 10.2607C164.939 10.3473 164.746 10.4134 164.55 10.459C164.358 10.5046 164.142 10.5273 163.9 10.5273C163.34 10.5273 162.902 10.3656 162.588 10.042C162.273 9.71387 162.116 9.23079 162.116 8.59277V4.32031H160.913V3.36328H162.116V1.66113L163.237 1.31934V3.36328H165.015V4.32031H163.237V8.42188C163.237 8.84115 163.317 9.13965 163.477 9.31738C163.636 9.49512 163.859 9.58398 164.146 9.58398C164.274 9.58398 164.397 9.56576 164.516 9.5293C164.639 9.49284 164.746 9.45182 164.837 9.40625L165.131 10.2607ZM169.472 10.5273C168.428 10.5273 167.599 10.2015 166.983 9.5498C166.368 8.89355 166.061 8.02539 166.061 6.94531C166.061 5.77865 166.382 4.86491 167.024 4.2041C167.667 3.53874 168.535 3.20378 169.629 3.19922C170.673 3.19466 171.488 3.51823 172.076 4.16992C172.669 4.81706 172.965 5.70573 172.965 6.83594C172.965 7.94792 172.648 8.84115 172.015 9.51562C171.386 10.1901 170.538 10.5273 169.472 10.5273ZM169.554 9.57715C170.274 9.57715 170.83 9.34245 171.222 8.87305C171.618 8.39909 171.816 7.73372 171.816 6.87695C171.816 6.00651 171.618 5.33431 171.222 4.86035C170.825 4.38639 170.269 4.14941 169.554 4.14941C168.834 4.14941 168.262 4.39551 167.838 4.8877C167.419 5.37988 167.209 6.05208 167.209 6.9043C167.209 7.73828 167.421 8.39225 167.845 8.86621C168.273 9.34017 168.843 9.57715 169.554 9.57715ZM180.553 10.3633H179.432V6.35059C179.432 5.6123 179.295 5.06087 179.021 4.69629C178.753 4.33171 178.349 4.14941 177.812 4.14941C177.246 4.14941 176.779 4.35905 176.41 4.77832C176.046 5.19759 175.863 5.72852 175.863 6.37109V10.3633H174.742V3.36328H175.863V4.50488H175.891C176.155 4.06738 176.479 3.74154 176.861 3.52734C177.244 3.30859 177.686 3.19922 178.188 3.19922C178.953 3.19922 179.539 3.44759 179.944 3.94434C180.35 4.43652 180.553 5.14974 180.553 6.08398V10.3633Z" fill="black"/>
</svg>
