<svg width="258" height="31" viewBox="0 0 258 31" fill="none" xmlns="http://www.w3.org/2000/svg">
<path d="M12.6992 0.560547L9.9375 10.3633H8.60449L6.58789 3.21289C6.54688 3.0625 6.5127 2.90983 6.48535 2.75488C6.45801 2.59538 6.43978 2.42904 6.43066 2.25586H6.40332C6.38965 2.41992 6.36686 2.58171 6.33496 2.74121C6.30762 2.89616 6.27116 3.04883 6.22559 3.19922L4.19531 10.3633H2.86914L-0.00195312 0.560547H1.25586L3.34766 8.05957C3.39323 8.21908 3.42969 8.3763 3.45703 8.53125C3.48438 8.68164 3.50488 8.84115 3.51855 9.00977H3.55273C3.56641 8.88672 3.58919 8.74772 3.62109 8.59277C3.65755 8.43783 3.70312 8.26009 3.75781 8.05957L5.91797 0.560547H7.01172L9.08984 8.10742C9.1263 8.23958 9.1582 8.37858 9.18555 8.52441C9.21289 8.66569 9.23568 8.82292 9.25391 8.99609H9.28125C9.29492 8.87305 9.31771 8.73861 9.34961 8.59277C9.38151 8.44238 9.42025 8.27376 9.46582 8.08691L11.4756 0.560547H12.6992ZM14.5996 1.63379C14.3809 1.63379 14.1963 1.56087 14.0459 1.41504C13.9001 1.26921 13.8271 1.08919 13.8271 0.875C13.8271 0.660807 13.9001 0.480794 14.0459 0.334961C14.1963 0.18457 14.3809 0.109375 14.5996 0.109375C14.8184 0.109375 15.0007 0.18457 15.1465 0.334961C15.2969 0.480794 15.3721 0.660807 15.3721 0.875C15.3721 1.08919 15.2969 1.26921 15.1465 1.41504C15.0007 1.56087 14.8184 1.63379 14.5996 1.63379ZM15.1465 10.3633H14.0254V3.36328H15.1465V10.3633ZM23.2129 10.3633H22.0918V6.35059C22.0918 5.6123 21.9551 5.06087 21.6816 4.69629C21.4128 4.33171 21.0094 4.14941 20.4717 4.14941C19.9066 4.14941 19.4395 4.35905 19.0703 4.77832C18.7057 5.19759 18.5234 5.72852 18.5234 6.37109V10.3633H17.4023V3.36328H18.5234V4.50488H18.5508C18.8151 4.06738 19.1387 3.74154 19.5215 3.52734C19.9043 3.30859 20.3464 3.19922 20.8477 3.19922C21.6133 3.19922 22.1989 3.44759 22.6045 3.94434C23.0101 4.43652 23.2129 5.14974 23.2129 6.08398V10.3633ZM32.626 6.41211C32.626 7.76107 32.3138 8.78418 31.6895 9.48145C31.0697 10.1787 30.14 10.5273 28.9004 10.5273C27.7109 10.5273 26.8177 10.1924 26.2207 9.52246C25.6283 8.85254 25.332 7.86361 25.332 6.55566V0.560547H26.4805V6.48047C26.4805 7.47852 26.6947 8.23047 27.123 8.73633C27.5514 9.23763 28.1849 9.48828 29.0234 9.48828C29.8301 9.48828 30.4408 9.24674 30.8555 8.76367C31.2702 8.27604 31.4775 7.54915 31.4775 6.58301V0.560547H32.626V6.41211ZM36.2012 10.3633H35.0527V0.560547H36.2012V10.3633ZM42.2168 6.9043V6.02246H45.9492V6.9043H42.2168ZM55.082 10.2607C54.8906 10.3473 54.6969 10.4134 54.501 10.459C54.3096 10.5046 54.0931 10.5273 53.8516 10.5273C53.291 10.5273 52.8535 10.3656 52.5391 10.042C52.2246 9.71387 52.0674 9.23079 52.0674 8.59277V4.32031H50.8643V3.36328H52.0674V1.66113L53.1885 1.31934V3.36328H54.9658V4.32031H53.1885V8.42188C53.1885 8.84115 53.2682 9.13965 53.4277 9.31738C53.5872 9.49512 53.8105 9.58398 54.0977 9.58398C54.2253 9.58398 54.3483 9.56576 54.4668 9.5293C54.5898 9.49284 54.6969 9.45182 54.7881 9.40625L55.082 10.2607ZM59.9561 4.33398C59.8695 4.30208 59.7874 4.2793 59.71 4.26562C59.6325 4.25195 59.5391 4.24512 59.4297 4.24512C58.8691 4.24512 58.4248 4.48893 58.0967 4.97656C57.7731 5.45964 57.6113 6.06576 57.6113 6.79492V10.3633H56.4902V3.36328H57.6113V4.7373H57.6387C57.7982 4.24967 58.042 3.87826 58.3701 3.62305C58.6982 3.36784 59.0742 3.24023 59.498 3.24023C59.6439 3.24023 59.7692 3.24935 59.874 3.26758C59.9788 3.28125 60.0791 3.30632 60.1748 3.34277L59.9561 4.33398ZM66.3408 10.3633H65.2197V9.29004H65.1924C64.9508 9.7002 64.6523 10.0101 64.2969 10.2197C63.9414 10.4248 63.5312 10.5273 63.0664 10.5273C62.4056 10.5273 61.8724 10.3382 61.4668 9.95996C61.0658 9.57715 60.8652 9.07357 60.8652 8.44922C60.8652 7.8431 61.0703 7.34635 61.4805 6.95898C61.8906 6.57161 62.4694 6.32324 63.2168 6.21387L65.2197 5.9541V5.75586C65.2197 5.18164 65.083 4.77148 64.8096 4.52539C64.5361 4.27474 64.1715 4.14941 63.7158 4.14941C63.3421 4.14941 62.9912 4.22233 62.6631 4.36816C62.335 4.50944 62.0319 4.72591 61.7539 5.01758L61.0498 4.375C61.4235 3.97852 61.8337 3.68457 62.2803 3.49316C62.7269 3.2972 63.2282 3.19922 63.7842 3.19922C64.6273 3.19922 65.263 3.41797 65.6914 3.85547C66.1243 4.28841 66.3408 4.93327 66.3408 5.79004V10.3633ZM65.2197 7.51953V6.84961L63.4971 7.08203C62.9912 7.15039 62.6107 7.28027 62.3555 7.47168C62.1048 7.65853 61.9795 7.94792 61.9795 8.33984C61.9795 8.75 62.1003 9.06673 62.3418 9.29004C62.5879 9.50879 62.8887 9.61816 63.2441 9.61816C63.8457 9.61816 64.3242 9.41992 64.6797 9.02344C65.0397 8.62695 65.2197 8.12565 65.2197 7.51953ZM74.291 10.3633H73.1699V6.35059C73.1699 5.6123 73.0332 5.06087 72.7598 4.69629C72.4909 4.33171 72.0876 4.14941 71.5498 4.14941C70.9847 4.14941 70.5176 4.35905 70.1484 4.77832C69.7839 5.19759 69.6016 5.72852 69.6016 6.37109V10.3633H68.4805V3.36328H69.6016V4.50488H69.6289C69.8932 4.06738 70.2168 3.74154 70.5996 3.52734C70.9824 3.30859 71.4245 3.19922 71.9258 3.19922C72.6914 3.19922 73.277 3.44759 73.6826 3.94434C74.0882 4.43652 74.291 5.14974 74.291 6.08398V10.3633ZM75.7539 9.7207L76.3486 8.9209C76.6312 9.13965 76.916 9.30599 77.2031 9.41992C77.4948 9.5293 77.8092 9.58398 78.1465 9.58398C78.6204 9.58398 78.9782 9.49284 79.2197 9.31055C79.4613 9.1237 79.582 8.85254 79.582 8.49707C79.582 8.20996 79.4749 7.96842 79.2607 7.77246C79.0465 7.57194 78.7048 7.41471 78.2354 7.30078C77.4105 7.09115 76.8226 6.82227 76.4717 6.49414C76.1253 6.16146 75.9521 5.73763 75.9521 5.22266C75.9521 4.63477 76.1709 4.15169 76.6084 3.77344C77.0459 3.39062 77.6429 3.19922 78.3994 3.19922C78.7913 3.19922 79.1605 3.25618 79.5068 3.37012C79.8532 3.47949 80.195 3.66634 80.5322 3.93066L79.9717 4.7168C79.6755 4.50716 79.402 4.35905 79.1514 4.27246C78.9053 4.18587 78.6455 4.14258 78.3721 4.14258C77.9255 4.14258 77.5928 4.22917 77.374 4.40234C77.1553 4.57096 77.0459 4.81022 77.0459 5.12012C77.0459 5.43001 77.1576 5.66471 77.3809 5.82422C77.6042 5.98372 77.9893 6.12956 78.5361 6.26172C79.2516 6.43945 79.7871 6.7015 80.1426 7.04785C80.498 7.38965 80.6758 7.84766 80.6758 8.42188C80.6758 9.06445 80.4456 9.57715 79.9854 9.95996C79.5296 10.3382 78.9053 10.5273 78.1123 10.5273C77.6611 10.5273 77.235 10.459 76.834 10.3223C76.4329 10.1855 76.0729 9.98503 75.7539 9.7207ZM83.5195 9.37207H83.4922V13.583H82.3711V3.36328H83.4922V4.57324H83.5195C83.7975 4.11296 84.137 3.76888 84.5381 3.54102C84.9437 3.31315 85.4085 3.19922 85.9326 3.19922C86.8441 3.19922 87.5527 3.51367 88.0586 4.14258C88.569 4.76693 88.8242 5.60775 88.8242 6.66504C88.8242 7.83171 88.5394 8.76823 87.9697 9.47461C87.4001 10.1764 86.6208 10.5273 85.6318 10.5273C85.1761 10.5273 84.7728 10.4316 84.4219 10.2402C84.071 10.0488 83.7702 9.75944 83.5195 9.37207ZM83.4922 6.52832V7.50586C83.4922 8.08464 83.6813 8.57454 84.0596 8.97559C84.4378 9.37663 84.9186 9.57715 85.502 9.57715C86.181 9.57715 86.7119 9.31966 87.0947 8.80469C87.4821 8.28516 87.6758 7.56966 87.6758 6.6582C87.6758 5.86523 87.4958 5.25 87.1357 4.8125C86.7757 4.37044 86.2881 4.14941 85.6729 4.14941C85.0166 4.14941 84.488 4.375 84.0869 4.82617C83.6904 5.27734 83.4922 5.84473 83.4922 6.52832ZM95.5576 10.3633H94.4365V9.29004H94.4092C94.1676 9.7002 93.8691 10.0101 93.5137 10.2197C93.1582 10.4248 92.748 10.5273 92.2832 10.5273C91.6224 10.5273 91.0892 10.3382 90.6836 9.95996C90.2826 9.57715 90.082 9.07357 90.082 8.44922C90.082 7.8431 90.2871 7.34635 90.6973 6.95898C91.1074 6.57161 91.6862 6.32324 92.4336 6.21387L94.4365 5.9541V5.75586C94.4365 5.18164 94.2998 4.77148 94.0264 4.52539C93.7529 4.27474 93.3883 4.14941 92.9326 4.14941C92.5589 4.14941 92.208 4.22233 91.8799 4.36816C91.5518 4.50944 91.2487 4.72591 90.9707 5.01758L90.2666 4.375C90.6403 3.97852 91.0505 3.68457 91.4971 3.49316C91.9437 3.2972 92.445 3.19922 93.001 3.19922C93.8441 3.19922 94.4798 3.41797 94.9082 3.85547C95.3411 4.28841 95.5576 4.93327 95.5576 5.79004V10.3633ZM94.4365 7.51953V6.84961L92.7139 7.08203C92.208 7.15039 91.8275 7.28027 91.5723 7.47168C91.3216 7.65853 91.1963 7.94792 91.1963 8.33984C91.1963 8.75 91.3171 9.06673 91.5586 9.29004C91.8047 9.50879 92.1055 9.61816 92.4609 9.61816C93.0625 9.61816 93.541 9.41992 93.8965 9.02344C94.2565 8.62695 94.4365 8.12565 94.4365 7.51953ZM101.163 4.33398C101.076 4.30208 100.994 4.2793 100.917 4.26562C100.84 4.25195 100.746 4.24512 100.637 4.24512C100.076 4.24512 99.6318 4.48893 99.3037 4.97656C98.9801 5.45964 98.8184 6.06576 98.8184 6.79492V10.3633H97.6973V3.36328H98.8184V4.7373H98.8457C99.0052 4.24967 99.249 3.87826 99.5771 3.62305C99.9053 3.36784 100.281 3.24023 100.705 3.24023C100.851 3.24023 100.976 3.24935 101.081 3.26758C101.186 3.28125 101.286 3.30632 101.382 3.34277L101.163 4.33398ZM108.231 7.10938H103.269C103.282 7.9069 103.49 8.51758 103.891 8.94141C104.292 9.36523 104.843 9.57715 105.545 9.57715C105.873 9.57715 106.194 9.52246 106.509 9.41309C106.828 9.30371 107.138 9.13509 107.438 8.90723L108.013 9.65918C107.634 9.94629 107.24 10.1628 106.83 10.3086C106.42 10.4544 105.962 10.5273 105.456 10.5273C104.417 10.5273 103.599 10.2152 103.002 9.59082C102.41 8.96191 102.113 8.08008 102.113 6.94531C102.109 5.82878 102.405 4.92643 103.002 4.23828C103.604 3.54557 104.381 3.19922 105.333 3.19922C106.254 3.19922 106.967 3.49544 107.473 4.08789C107.979 4.68034 108.231 5.50065 108.231 6.54883V7.10938ZM107.083 6.18652C107.078 5.5485 106.919 5.04948 106.604 4.68945C106.295 4.32943 105.864 4.14941 105.312 4.14941C104.775 4.14941 104.321 4.33626 103.952 4.70996C103.583 5.0791 103.36 5.57129 103.282 6.18652H107.083ZM115.717 10.3633H114.596V6.35059C114.596 5.6123 114.459 5.06087 114.186 4.69629C113.917 4.33171 113.513 4.14941 112.976 4.14941C112.41 4.14941 111.943 4.35905 111.574 4.77832C111.21 5.19759 111.027 5.72852 111.027 6.37109V10.3633H109.906V3.36328H111.027V4.50488H111.055C111.319 4.06738 111.643 3.74154 112.025 3.52734C112.408 3.30859 112.85 3.19922 113.352 3.19922C114.117 3.19922 114.703 3.44759 115.108 3.94434C115.514 4.43652 115.717 5.14974 115.717 6.08398V10.3633ZM121.186 10.2607C120.994 10.3473 120.8 10.4134 120.604 10.459C120.413 10.5046 120.197 10.5273 119.955 10.5273C119.395 10.5273 118.957 10.3656 118.643 10.042C118.328 9.71387 118.171 9.23079 118.171 8.59277V4.32031H116.968V3.36328H118.171V1.66113L119.292 1.31934V3.36328H121.069V4.32031H119.292V8.42188C119.292 8.84115 119.372 9.13965 119.531 9.31738C119.691 9.49512 119.914 9.58398 120.201 9.58398C120.329 9.58398 120.452 9.56576 120.57 9.5293C120.693 9.49284 120.8 9.45182 120.892 9.40625L121.186 10.2607ZM127.502 9.46777H127.475V10.3633H126.354V0H127.475V4.57324H127.502C127.775 4.11751 128.113 3.77572 128.514 3.54785C128.919 3.31543 129.386 3.19922 129.915 3.19922C130.817 3.19922 131.524 3.51367 132.034 4.14258C132.549 4.76693 132.807 5.60775 132.807 6.66504C132.807 7.83626 132.522 8.77279 131.952 9.47461C131.382 10.1764 130.603 10.5273 129.614 10.5273C129.149 10.5273 128.739 10.4385 128.384 10.2607C128.028 10.083 127.734 9.81868 127.502 9.46777ZM127.475 6.52832V7.50586C127.475 8.08464 127.661 8.57454 128.035 8.97559C128.413 9.37663 128.896 9.57715 129.484 9.57715C130.163 9.57715 130.694 9.31966 131.077 8.80469C131.465 8.28971 131.658 7.57422 131.658 6.6582C131.658 5.86979 131.478 5.25456 131.118 4.8125C130.758 4.37044 130.271 4.14941 129.655 4.14941C128.999 4.14941 128.47 4.375 128.069 4.82617C127.673 5.27734 127.475 5.84473 127.475 6.52832ZM140.244 10.3633H139.123V9.26953H139.096C138.863 9.68424 138.565 9.9987 138.2 10.2129C137.836 10.4225 137.414 10.5273 136.936 10.5273C136.102 10.5273 135.475 10.2812 135.056 9.78906C134.641 9.29232 134.434 8.54948 134.434 7.56055V3.36328H135.548V7.38965C135.548 8.12337 135.687 8.67253 135.965 9.03711C136.243 9.39714 136.664 9.57715 137.229 9.57715C137.781 9.57715 138.234 9.37663 138.59 8.97559C138.945 8.56999 139.123 8.04134 139.123 7.38965V3.36328H140.244V10.3633ZM145.863 10.2607C145.672 10.3473 145.478 10.4134 145.282 10.459C145.091 10.5046 144.874 10.5273 144.633 10.5273C144.072 10.5273 143.635 10.3656 143.32 10.042C143.006 9.71387 142.849 9.23079 142.849 8.59277V4.32031H141.646V3.36328H142.849V1.66113L143.97 1.31934V3.36328H145.747V4.32031H143.97V8.42188C143.97 8.84115 144.049 9.13965 144.209 9.31738C144.368 9.49512 144.592 9.58398 144.879 9.58398C145.007 9.58398 145.13 9.56576 145.248 9.5293C145.371 9.49284 145.478 9.45182 145.569 9.40625L145.863 10.2607ZM150.648 10.2607C150.457 10.3473 150.263 10.4134 150.067 10.459C149.876 10.5046 149.66 10.5273 149.418 10.5273C148.857 10.5273 148.42 10.3656 148.105 10.042C147.791 9.71387 147.634 9.23079 147.634 8.59277V4.32031H146.431V3.36328H147.634V1.66113L148.755 1.31934V3.36328H150.532V4.32031H148.755V8.42188C148.755 8.84115 148.835 9.13965 148.994 9.31738C149.154 9.49512 149.377 9.58398 149.664 9.58398C149.792 9.58398 149.915 9.56576 150.033 9.5293C150.156 9.49284 150.263 9.45182 150.354 9.40625L150.648 10.2607ZM154.989 10.5273C153.946 10.5273 153.116 10.2015 152.501 9.5498C151.886 8.89355 151.578 8.02539 151.578 6.94531C151.578 5.77865 151.899 4.86491 152.542 4.2041C153.185 3.53874 154.053 3.20378 155.146 3.19922C156.19 3.19466 157.006 3.51823 157.594 4.16992C158.186 4.81706 158.482 5.70573 158.482 6.83594C158.482 7.94792 158.166 8.84115 157.532 9.51562C156.903 10.1901 156.056 10.5273 154.989 10.5273ZM155.071 9.57715C155.791 9.57715 156.347 9.34245 156.739 8.87305C157.136 8.39909 157.334 7.73372 157.334 6.87695C157.334 6.00651 157.136 5.33431 156.739 4.86035C156.343 4.38639 155.787 4.14941 155.071 4.14941C154.351 4.14941 153.779 4.39551 153.355 4.8877C152.936 5.37988 152.727 6.05208 152.727 6.9043C152.727 7.73828 152.938 8.39225 153.362 8.86621C153.791 9.34017 154.36 9.57715 155.071 9.57715ZM166.07 10.3633H164.949V6.35059C164.949 5.6123 164.812 5.06087 164.539 4.69629C164.27 4.33171 163.867 4.14941 163.329 4.14941C162.764 4.14941 162.297 4.35905 161.928 4.77832C161.563 5.19759 161.381 5.72852 161.381 6.37109V10.3633H160.26V3.36328H161.381V4.50488H161.408C161.673 4.06738 161.996 3.74154 162.379 3.52734C162.762 3.30859 163.204 3.19922 163.705 3.19922C164.471 3.19922 165.056 3.44759 165.462 3.94434C165.868 4.43652 166.07 5.14974 166.07 6.08398V10.3633ZM180.74 3.36328L178.642 10.3633H177.479L176.037 5.33887C176.001 5.21126 175.976 5.10645 175.962 5.02441C175.953 4.94238 175.941 4.84212 175.928 4.72363H175.9C175.891 4.84212 175.875 4.94238 175.853 5.02441C175.83 5.10645 175.798 5.21126 175.757 5.33887L174.191 10.3633H173.07L170.951 3.36328H172.127L173.576 8.61328C173.599 8.69076 173.617 8.77962 173.631 8.87988C173.649 8.98014 173.663 9.09408 173.672 9.22168H173.727C173.736 9.12142 173.749 9.02116 173.768 8.9209C173.786 8.81608 173.813 8.70898 173.85 8.59961L175.463 3.36328H176.488L177.938 8.62695C177.96 8.71354 177.979 8.80697 177.992 8.90723C178.01 9.00293 178.029 9.1123 178.047 9.23535H178.095C178.104 9.14421 178.118 9.05078 178.136 8.95508C178.154 8.85482 178.179 8.74544 178.211 8.62695L179.633 3.36328H180.74ZM186.428 0.560547L181.8 11.8398H180.863L185.491 0.560547H186.428ZM196.251 10.3633H195.13V9.29004H195.103C194.861 9.7002 194.562 10.0101 194.207 10.2197C193.852 10.4248 193.441 10.5273 192.977 10.5273C192.316 10.5273 191.783 10.3382 191.377 9.95996C190.976 9.57715 190.775 9.07357 190.775 8.44922C190.775 7.8431 190.98 7.34635 191.391 6.95898C191.801 6.57161 192.38 6.32324 193.127 6.21387L195.13 5.9541V5.75586C195.13 5.18164 194.993 4.77148 194.72 4.52539C194.446 4.27474 194.082 4.14941 193.626 4.14941C193.252 4.14941 192.901 4.22233 192.573 4.36816C192.245 4.50944 191.942 4.72591 191.664 5.01758L190.96 4.375C191.334 3.97852 191.744 3.68457 192.19 3.49316C192.637 3.2972 193.138 3.19922 193.694 3.19922C194.537 3.19922 195.173 3.41797 195.602 3.85547C196.035 4.28841 196.251 4.93327 196.251 5.79004V10.3633ZM195.13 7.51953V6.84961L193.407 7.08203C192.901 7.15039 192.521 7.28027 192.266 7.47168C192.015 7.65853 191.89 7.94792 191.89 8.33984C191.89 8.75 192.01 9.06673 192.252 9.29004C192.498 9.50879 192.799 9.61816 193.154 9.61816C193.756 9.61816 194.234 9.41992 194.59 9.02344C194.95 8.62695 195.13 8.12565 195.13 7.51953ZM203.415 9.85742C203.091 10.0898 202.759 10.2585 202.417 10.3633C202.08 10.4727 201.711 10.5273 201.31 10.5273C200.307 10.5273 199.489 10.2197 198.855 9.60449C198.227 8.9847 197.912 8.11882 197.912 7.00684C197.912 5.86296 198.231 4.94238 198.869 4.24512C199.507 3.54785 200.375 3.19922 201.474 3.19922C201.861 3.19922 202.226 3.25163 202.567 3.35645C202.914 3.45671 203.251 3.61849 203.579 3.8418L203.06 4.63477C202.795 4.46615 202.533 4.3431 202.273 4.26562C202.018 4.18815 201.738 4.14941 201.433 4.14941C200.676 4.14941 200.09 4.4069 199.676 4.92188C199.266 5.43229 199.061 6.08626 199.061 6.88379C199.061 7.74967 199.275 8.41504 199.703 8.87988C200.136 9.34017 200.701 9.57031 201.398 9.57031C201.631 9.57031 201.872 9.53158 202.123 9.4541C202.378 9.37663 202.627 9.2513 202.868 9.07812L203.415 9.85742ZM209.991 9.85742C209.668 10.0898 209.335 10.2585 208.993 10.3633C208.656 10.4727 208.287 10.5273 207.886 10.5273C206.883 10.5273 206.065 10.2197 205.432 9.60449C204.803 8.9847 204.488 8.11882 204.488 7.00684C204.488 5.86296 204.807 4.94238 205.445 4.24512C206.083 3.54785 206.951 3.19922 208.05 3.19922C208.437 3.19922 208.802 3.25163 209.144 3.35645C209.49 3.45671 209.827 3.61849 210.155 3.8418L209.636 4.63477C209.371 4.46615 209.109 4.3431 208.85 4.26562C208.594 4.18815 208.314 4.14941 208.009 4.14941C207.252 4.14941 206.667 4.4069 206.252 4.92188C205.842 5.43229 205.637 6.08626 205.637 6.88379C205.637 7.74967 205.851 8.41504 206.279 8.87988C206.712 9.34017 207.277 9.57031 207.975 9.57031C208.207 9.57031 208.449 9.53158 208.699 9.4541C208.954 9.37663 209.203 9.2513 209.444 9.07812L209.991 9.85742ZM217.183 7.10938H212.22C212.233 7.9069 212.441 8.51758 212.842 8.94141C213.243 9.36523 213.794 9.57715 214.496 9.57715C214.824 9.57715 215.146 9.52246 215.46 9.41309C215.779 9.30371 216.089 9.13509 216.39 8.90723L216.964 9.65918C216.586 9.94629 216.191 10.1628 215.781 10.3086C215.371 10.4544 214.913 10.5273 214.407 10.5273C213.368 10.5273 212.55 10.2152 211.953 9.59082C211.361 8.96191 211.064 8.08008 211.064 6.94531C211.06 5.82878 211.356 4.92643 211.953 4.23828C212.555 3.54557 213.332 3.19922 214.284 3.19922C215.205 3.19922 215.918 3.49544 216.424 4.08789C216.93 4.68034 217.183 5.50065 217.183 6.54883V7.10938ZM216.034 6.18652C216.03 5.5485 215.87 5.04948 215.556 4.68945C215.246 4.32943 214.815 4.14941 214.264 4.14941C213.726 4.14941 213.272 4.33626 212.903 4.70996C212.534 5.0791 212.311 5.57129 212.233 6.18652H216.034ZM224.668 10.3633H223.547V6.35059C223.547 5.6123 223.41 5.06087 223.137 4.69629C222.868 4.33171 222.465 4.14941 221.927 4.14941C221.362 4.14941 220.895 4.35905 220.525 4.77832C220.161 5.19759 219.979 5.72852 219.979 6.37109V10.3633H218.857V3.36328H219.979V4.50488H220.006C220.27 4.06738 220.594 3.74154 220.977 3.52734C221.359 3.30859 221.801 3.19922 222.303 3.19922C223.068 3.19922 223.654 3.44759 224.06 3.94434C224.465 4.43652 224.668 5.14974 224.668 6.08398V10.3633ZM230.137 10.2607C229.945 10.3473 229.752 10.4134 229.556 10.459C229.364 10.5046 229.148 10.5273 228.906 10.5273C228.346 10.5273 227.908 10.3656 227.594 10.042C227.279 9.71387 227.122 9.23079 227.122 8.59277V4.32031H225.919V3.36328H227.122V1.66113L228.243 1.31934V3.36328H230.021V4.32031H228.243V8.42188C228.243 8.84115 228.323 9.13965 228.482 9.31738C228.642 9.49512 228.865 9.58398 229.152 9.58398C229.28 9.58398 229.403 9.56576 229.521 9.5293C229.645 9.49284 229.752 9.45182 229.843 9.40625L230.137 10.2607ZM238.682 10.2607C238.49 10.3473 238.297 10.4134 238.101 10.459C237.909 10.5046 237.693 10.5273 237.451 10.5273C236.891 10.5273 236.453 10.3656 236.139 10.042C235.824 9.71387 235.667 9.23079 235.667 8.59277V4.32031H234.464V3.36328H235.667V1.66113L236.788 1.31934V3.36328H238.565V4.32031H236.788V8.42188C236.788 8.84115 236.868 9.13965 237.027 9.31738C237.187 9.49512 237.41 9.58398 237.697 9.58398C237.825 9.58398 237.948 9.56576 238.066 9.5293C238.189 9.49284 238.297 9.45182 238.388 9.40625L238.682 10.2607ZM245.729 7.10938H240.767C240.78 7.9069 240.988 8.51758 241.389 8.94141C241.79 9.36523 242.341 9.57715 243.043 9.57715C243.371 9.57715 243.692 9.52246 244.007 9.41309C244.326 9.30371 244.636 9.13509 244.937 8.90723L245.511 9.65918C245.132 9.94629 244.738 10.1628 244.328 10.3086C243.918 10.4544 243.46 10.5273 242.954 10.5273C241.915 10.5273 241.097 10.2152 240.5 9.59082C239.908 8.96191 239.611 8.08008 239.611 6.94531C239.607 5.82878 239.903 4.92643 240.5 4.23828C241.102 3.54557 241.879 3.19922 242.831 3.19922C243.752 3.19922 244.465 3.49544 244.971 4.08789C245.477 4.68034 245.729 5.50065 245.729 6.54883V7.10938ZM244.581 6.18652C244.576 5.5485 244.417 5.04948 244.103 4.68945C243.793 4.32943 243.362 4.14941 242.811 4.14941C242.273 4.14941 241.819 4.33626 241.45 4.70996C241.081 5.0791 240.858 5.57129 240.78 6.18652H244.581ZM252.518 3.36328L250.166 6.9043L252.477 10.3633H251.171L249.797 8.10742C249.751 8.03451 249.703 7.95475 249.653 7.86816C249.603 7.78158 249.549 7.68359 249.489 7.57422H249.462C249.448 7.59245 249.414 7.64714 249.359 7.73828C249.309 7.82943 249.234 7.95247 249.134 8.10742L247.732 10.3633H246.447L248.833 6.93164L246.55 3.36328H247.849L249.209 5.73535C249.259 5.8265 249.307 5.91764 249.353 6.00879C249.403 6.09993 249.453 6.19108 249.503 6.28223H249.53C249.585 6.19108 249.637 6.09993 249.688 6.00879C249.742 5.91764 249.799 5.8265 249.858 5.73535L251.28 3.36328H252.518ZM257.193 10.2607C257.002 10.3473 256.808 10.4134 256.612 10.459C256.421 10.5046 256.204 10.5273 255.963 10.5273C255.402 10.5273 254.965 10.3656 254.65 10.042C254.336 9.71387 254.179 9.23079 254.179 8.59277V4.32031H252.976V3.36328H254.179V1.66113L255.3 1.31934V3.36328H257.077V4.32031H255.3V8.42188C255.3 8.84115 255.38 9.13965 255.539 9.31738C255.699 9.49512 255.922 9.58398 256.209 9.58398C256.337 9.58398 256.46 9.56576 256.578 9.5293C256.701 9.49284 256.808 9.45182 256.899 9.40625L257.193 10.2607ZM38.7236 29.4678L39.3525 28.6543C39.7262 28.9414 40.1113 29.1533 40.5078 29.29C40.9043 29.4222 41.3691 29.4883 41.9023 29.4883C42.5039 29.4883 42.9893 29.347 43.3584 29.0645C43.7321 28.7819 43.9189 28.374 43.9189 27.8408C43.9189 27.3532 43.7617 26.9658 43.4473 26.6787C43.1328 26.3916 42.6042 26.1182 41.8613 25.8584C40.9316 25.5394 40.2458 25.1702 39.8037 24.751C39.3617 24.3317 39.1406 23.778 39.1406 23.0898C39.1406 22.2786 39.43 21.627 40.0088 21.1348C40.5921 20.6426 41.3441 20.3965 42.2646 20.3965C42.7295 20.3965 43.1784 20.458 43.6113 20.5811C44.0443 20.7041 44.4749 20.9001 44.9033 21.1689L44.3906 22.0234C44.0397 21.8138 43.6888 21.6634 43.3379 21.5723C42.987 21.4766 42.6042 21.4287 42.1895 21.4287C41.6016 21.4287 41.1413 21.5677 40.8086 21.8457C40.4805 22.1191 40.3164 22.4974 40.3164 22.9805C40.3164 23.4134 40.4668 23.7575 40.7676 24.0127C41.0684 24.2679 41.5856 24.5231 42.3193 24.7783C43.3128 25.1247 44.0238 25.5189 44.4521 25.9609C44.8805 26.3984 45.0947 26.9909 45.0947 27.7383C45.0947 28.5312 44.8099 29.1943 44.2402 29.7275C43.6706 30.2607 42.8708 30.5273 41.8408 30.5273C41.221 30.5273 40.6605 30.4408 40.1592 30.2676C39.6579 30.0944 39.1794 29.8278 38.7236 29.4678ZM52.5254 30.3633H51.4043V29.2695H51.377C51.1445 29.6842 50.846 29.9987 50.4814 30.2129C50.1169 30.4225 49.6953 30.5273 49.2168 30.5273C48.3828 30.5273 47.7562 30.2812 47.3369 29.7891C46.9222 29.2923 46.7148 28.5495 46.7148 27.5605V23.3633H47.8291V27.3896C47.8291 28.1234 47.9681 28.6725 48.2461 29.0371C48.5241 29.3971 48.9456 29.5771 49.5107 29.5771C50.0622 29.5771 50.5156 29.3766 50.8711 28.9756C51.2266 28.57 51.4043 28.0413 51.4043 27.3896V23.3633H52.5254V30.3633ZM55.916 29.4678H55.8887V30.3633H54.7676V20H55.8887V24.5732H55.916C56.1895 24.1175 56.5267 23.7757 56.9277 23.5479C57.3333 23.3154 57.8005 23.1992 58.3291 23.1992C59.2314 23.1992 59.9378 23.5137 60.4482 24.1426C60.9632 24.7669 61.2207 25.6077 61.2207 26.665C61.2207 27.8363 60.9359 28.7728 60.3662 29.4746C59.7965 30.1764 59.0173 30.5273 58.0283 30.5273C57.5635 30.5273 57.1533 30.4385 56.7979 30.2607C56.4424 30.083 56.1484 29.8187 55.916 29.4678ZM55.8887 26.5283V27.5059C55.8887 28.0846 56.0755 28.5745 56.4492 28.9756C56.8275 29.3766 57.3105 29.5771 57.8984 29.5771C58.5775 29.5771 59.1084 29.3197 59.4912 28.8047C59.8786 28.2897 60.0723 27.5742 60.0723 26.6582C60.0723 25.8698 59.8923 25.2546 59.5322 24.8125C59.1722 24.3704 58.6846 24.1494 58.0693 24.1494C57.4131 24.1494 56.8844 24.375 56.4834 24.8262C56.0869 25.2773 55.8887 25.8447 55.8887 26.5283ZM66.375 30.2607C66.1836 30.3473 65.9899 30.4134 65.7939 30.459C65.6025 30.5046 65.3861 30.5273 65.1445 30.5273C64.584 30.5273 64.1465 30.3656 63.832 30.042C63.5176 29.7139 63.3604 29.2308 63.3604 28.5928V24.3203H62.1572V23.3633H63.3604V21.6611L64.4814 21.3193V23.3633H66.2588V24.3203H64.4814V28.4219C64.4814 28.8411 64.5612 29.1396 64.7207 29.3174C64.8802 29.4951 65.1035 29.584 65.3906 29.584C65.5182 29.584 65.6413 29.5658 65.7598 29.5293C65.8828 29.4928 65.9899 29.4518 66.0811 29.4062L66.375 30.2607ZM67.7832 30.3633V20H68.9043V30.3633H67.7832ZM76.7998 27.1094H71.8369C71.8506 27.9069 72.0579 28.5176 72.459 28.9414C72.86 29.3652 73.4115 29.5771 74.1133 29.5771C74.4414 29.5771 74.7627 29.5225 75.0771 29.4131C75.3962 29.3037 75.7061 29.1351 76.0068 28.9072L76.5811 29.6592C76.2028 29.9463 75.8086 30.1628 75.3984 30.3086C74.9883 30.4544 74.5303 30.5273 74.0244 30.5273C72.9854 30.5273 72.1673 30.2152 71.5703 29.5908C70.9779 28.9619 70.6816 28.0801 70.6816 26.9453C70.6771 25.8288 70.9733 24.9264 71.5703 24.2383C72.1719 23.5456 72.9489 23.1992 73.9014 23.1992C74.8219 23.1992 75.5352 23.4954 76.041 24.0879C76.5469 24.6803 76.7998 25.5007 76.7998 26.5488V27.1094ZM75.6514 26.1865C75.6468 25.5485 75.4873 25.0495 75.1729 24.6895C74.863 24.3294 74.4323 24.1494 73.8809 24.1494C73.3431 24.1494 72.8896 24.3363 72.5205 24.71C72.1514 25.0791 71.9281 25.5713 71.8506 26.1865H75.6514ZM83.3828 29.4678H83.3555V30.3633H82.2344V20H83.3555V24.5732H83.3828C83.6562 24.1175 83.9935 23.7757 84.3945 23.5479C84.8001 23.3154 85.2673 23.1992 85.7959 23.1992C86.6982 23.1992 87.4046 23.5137 87.915 24.1426C88.43 24.7669 88.6875 25.6077 88.6875 26.665C88.6875 27.8363 88.4027 28.7728 87.833 29.4746C87.2633 30.1764 86.484 30.5273 85.4951 30.5273C85.0303 30.5273 84.6201 30.4385 84.2646 30.2607C83.9092 30.083 83.6152 29.8187 83.3828 29.4678ZM83.3555 26.5283V27.5059C83.3555 28.0846 83.5423 28.5745 83.916 28.9756C84.2943 29.3766 84.7773 29.5771 85.3652 29.5771C86.0443 29.5771 86.5752 29.3197 86.958 28.8047C87.3454 28.2897 87.5391 27.5742 87.5391 26.6582C87.5391 25.8698 87.359 25.2546 86.999 24.8125C86.639 24.3704 86.1514 24.1494 85.5361 24.1494C84.8799 24.1494 84.3512 24.375 83.9502 24.8262C83.5537 25.2773 83.3555 25.8447 83.3555 26.5283ZM96.125 30.3633H95.0039V29.2695H94.9766C94.7441 29.6842 94.4456 29.9987 94.0811 30.2129C93.7165 30.4225 93.2949 30.5273 92.8164 30.5273C91.9824 30.5273 91.3558 30.2812 90.9365 29.7891C90.5218 29.2923 90.3145 28.5495 90.3145 27.5605V23.3633H91.4287V27.3896C91.4287 28.1234 91.5677 28.6725 91.8457 29.0371C92.1237 29.3971 92.5452 29.5771 93.1104 29.5771C93.6618 29.5771 94.1152 29.3766 94.4707 28.9756C94.8262 28.57 95.0039 28.0413 95.0039 27.3896V23.3633H96.125V30.3633ZM101.744 30.2607C101.553 30.3473 101.359 30.4134 101.163 30.459C100.972 30.5046 100.755 30.5273 100.514 30.5273C99.9531 30.5273 99.5156 30.3656 99.2012 30.042C98.8867 29.7139 98.7295 29.2308 98.7295 28.5928V24.3203H97.5264V23.3633H98.7295V21.6611L99.8506 21.3193V23.3633H101.628V24.3203H99.8506V28.4219C99.8506 28.8411 99.9303 29.1396 100.09 29.3174C100.249 29.4951 100.473 29.584 100.76 29.584C100.887 29.584 101.01 29.5658 101.129 29.5293C101.252 29.4928 101.359 29.4518 101.45 29.4062L101.744 30.2607ZM106.529 30.2607C106.338 30.3473 106.144 30.4134 105.948 30.459C105.757 30.5046 105.54 30.5273 105.299 30.5273C104.738 30.5273 104.301 30.3656 103.986 30.042C103.672 29.7139 103.515 29.2308 103.515 28.5928V24.3203H102.312V23.3633H103.515V21.6611L104.636 21.3193V23.3633H106.413V24.3203H104.636V28.4219C104.636 28.8411 104.715 29.1396 104.875 29.3174C105.035 29.4951 105.258 29.584 105.545 29.584C105.673 29.584 105.796 29.5658 105.914 29.5293C106.037 29.4928 106.144 29.4518 106.235 29.4062L106.529 30.2607ZM108.512 21.6338C108.293 21.6338 108.108 21.5609 107.958 21.415C107.812 21.2692 107.739 21.0892 107.739 20.875C107.739 20.6608 107.812 20.4808 107.958 20.335C108.108 20.1846 108.293 20.1094 108.512 20.1094C108.73 20.1094 108.913 20.1846 109.059 20.335C109.209 20.4808 109.284 20.6608 109.284 20.875C109.284 21.0892 109.209 21.2692 109.059 21.415C108.913 21.5609 108.73 21.6338 108.512 21.6338ZM109.059 30.3633H107.938V23.3633H109.059V30.3633ZM117.125 30.3633H116.004V26.3506C116.004 25.6123 115.867 25.0609 115.594 24.6963C115.325 24.3317 114.922 24.1494 114.384 24.1494C113.819 24.1494 113.352 24.359 112.982 24.7783C112.618 25.1976 112.436 25.7285 112.436 26.3711V30.3633H111.314V23.3633H112.436V24.5049H112.463C112.727 24.0674 113.051 23.7415 113.434 23.5273C113.816 23.3086 114.258 23.1992 114.76 23.1992C115.525 23.1992 116.111 23.4476 116.517 23.9443C116.922 24.4365 117.125 25.1497 117.125 26.084V30.3633ZM131.795 23.3633L129.696 30.3633H128.534L127.092 25.3389C127.055 25.2113 127.03 25.1064 127.017 25.0244C127.007 24.9424 126.996 24.8421 126.982 24.7236H126.955C126.946 24.8421 126.93 24.9424 126.907 25.0244C126.884 25.1064 126.853 25.2113 126.812 25.3389L125.246 30.3633H124.125L122.006 23.3633H123.182L124.631 28.6133C124.654 28.6908 124.672 28.7796 124.686 28.8799C124.704 28.9801 124.717 29.0941 124.727 29.2217H124.781C124.79 29.1214 124.804 29.0212 124.822 28.9209C124.84 28.8161 124.868 28.709 124.904 28.5996L126.518 23.3633H127.543L128.992 28.627C129.015 28.7135 129.033 28.807 129.047 28.9072C129.065 29.0029 129.083 29.1123 129.102 29.2354H129.149C129.159 29.1442 129.172 29.0508 129.19 28.9551C129.209 28.8548 129.234 28.7454 129.266 28.627L130.688 23.3633H131.795ZM133.654 21.6338C133.436 21.6338 133.251 21.5609 133.101 21.415C132.955 21.2692 132.882 21.0892 132.882 20.875C132.882 20.6608 132.955 20.4808 133.101 20.335C133.251 20.1846 133.436 20.1094 133.654 20.1094C133.873 20.1094 134.055 20.1846 134.201 20.335C134.352 20.4808 134.427 20.6608 134.427 20.875C134.427 21.0892 134.352 21.2692 134.201 21.415C134.055 21.5609 133.873 21.6338 133.654 21.6338ZM134.201 30.3633H133.08V23.3633H134.201V30.3633ZM139.834 30.2607C139.643 30.3473 139.449 30.4134 139.253 30.459C139.062 30.5046 138.845 30.5273 138.604 30.5273C138.043 30.5273 137.605 30.3656 137.291 30.042C136.977 29.7139 136.819 29.2308 136.819 28.5928V24.3203H135.616V23.3633H136.819V21.6611L137.94 21.3193V23.3633H139.718V24.3203H137.94V28.4219C137.94 28.8411 138.02 29.1396 138.18 29.3174C138.339 29.4951 138.562 29.584 138.85 29.584C138.977 29.584 139.1 29.5658 139.219 29.5293C139.342 29.4928 139.449 29.4518 139.54 29.4062L139.834 30.2607ZM147.053 30.3633H145.932V26.3164C145.932 25.5918 145.795 25.0495 145.521 24.6895C145.253 24.3294 144.849 24.1494 144.312 24.1494C143.756 24.1494 143.291 24.359 142.917 24.7783C142.548 25.1976 142.363 25.7376 142.363 26.3984V30.3633H141.242V20H142.363V24.5049H142.391C142.655 24.0674 142.979 23.7415 143.361 23.5273C143.744 23.3086 144.186 23.1992 144.688 23.1992C145.471 23.1992 146.062 23.4385 146.458 23.917C146.854 24.391 147.053 25.1042 147.053 26.0566V30.3633ZM157.86 30.3633H156.739V29.29H156.712C156.47 29.7002 156.172 30.0101 155.816 30.2197C155.461 30.4248 155.051 30.5273 154.586 30.5273C153.925 30.5273 153.392 30.3382 152.986 29.96C152.585 29.5771 152.385 29.0736 152.385 28.4492C152.385 27.8431 152.59 27.3464 153 26.959C153.41 26.5716 153.989 26.3232 154.736 26.2139L156.739 25.9541V25.7559C156.739 25.1816 156.603 24.7715 156.329 24.5254C156.056 24.2747 155.691 24.1494 155.235 24.1494C154.862 24.1494 154.511 24.2223 154.183 24.3682C153.854 24.5094 153.551 24.7259 153.273 25.0176L152.569 24.375C152.943 23.9785 153.353 23.6846 153.8 23.4932C154.246 23.2972 154.748 23.1992 155.304 23.1992C156.147 23.1992 156.783 23.418 157.211 23.8555C157.644 24.2884 157.86 24.9333 157.86 25.79V30.3633ZM156.739 27.5195V26.8496L155.017 27.082C154.511 27.1504 154.13 27.2803 153.875 27.4717C153.624 27.6585 153.499 27.9479 153.499 28.3398C153.499 28.75 153.62 29.0667 153.861 29.29C154.107 29.5088 154.408 29.6182 154.764 29.6182C155.365 29.6182 155.844 29.4199 156.199 29.0234C156.559 28.627 156.739 28.1257 156.739 27.5195ZM165.024 29.8574C164.701 30.0898 164.368 30.2585 164.026 30.3633C163.689 30.4727 163.32 30.5273 162.919 30.5273C161.916 30.5273 161.098 30.2197 160.465 29.6045C159.836 28.9847 159.521 28.1188 159.521 27.0068C159.521 25.863 159.84 24.9424 160.479 24.2451C161.117 23.5479 161.985 23.1992 163.083 23.1992C163.47 23.1992 163.835 23.2516 164.177 23.3564C164.523 23.4567 164.86 23.6185 165.188 23.8418L164.669 24.6348C164.405 24.4661 164.143 24.3431 163.883 24.2656C163.628 24.1882 163.347 24.1494 163.042 24.1494C162.285 24.1494 161.7 24.4069 161.285 24.9219C160.875 25.4323 160.67 26.0863 160.67 26.8838C160.67 27.7497 160.884 28.415 161.312 28.8799C161.745 29.3402 162.311 29.5703 163.008 29.5703C163.24 29.5703 163.482 29.5316 163.732 29.4541C163.988 29.3766 164.236 29.2513 164.478 29.0781L165.024 29.8574ZM171.601 29.8574C171.277 30.0898 170.944 30.2585 170.603 30.3633C170.265 30.4727 169.896 30.5273 169.495 30.5273C168.493 30.5273 167.674 30.2197 167.041 29.6045C166.412 28.9847 166.098 28.1188 166.098 27.0068C166.098 25.863 166.417 24.9424 167.055 24.2451C167.693 23.5479 168.561 23.1992 169.659 23.1992C170.047 23.1992 170.411 23.2516 170.753 23.3564C171.099 23.4567 171.437 23.6185 171.765 23.8418L171.245 24.6348C170.981 24.4661 170.719 24.3431 170.459 24.2656C170.204 24.1882 169.924 24.1494 169.618 24.1494C168.862 24.1494 168.276 24.4069 167.861 24.9219C167.451 25.4323 167.246 26.0863 167.246 26.8838C167.246 27.7497 167.46 28.415 167.889 28.8799C168.322 29.3402 168.887 29.5703 169.584 29.5703C169.816 29.5703 170.058 29.5316 170.309 29.4541C170.564 29.3766 170.812 29.2513 171.054 29.0781L171.601 29.8574ZM178.792 27.1094H173.829C173.843 27.9069 174.05 28.5176 174.451 28.9414C174.852 29.3652 175.404 29.5771 176.105 29.5771C176.434 29.5771 176.755 29.5225 177.069 29.4131C177.388 29.3037 177.698 29.1351 177.999 28.9072L178.573 29.6592C178.195 29.9463 177.801 30.1628 177.391 30.3086C176.98 30.4544 176.522 30.5273 176.017 30.5273C174.978 30.5273 174.16 30.2152 173.562 29.5908C172.97 28.9619 172.674 28.0801 172.674 26.9453C172.669 25.8288 172.965 24.9264 173.562 24.2383C174.164 23.5456 174.941 23.1992 175.894 23.1992C176.814 23.1992 177.527 23.4954 178.033 24.0879C178.539 24.6803 178.792 25.5007 178.792 26.5488V27.1094ZM177.644 26.1865C177.639 25.5485 177.479 25.0495 177.165 24.6895C176.855 24.3294 176.424 24.1494 175.873 24.1494C175.335 24.1494 174.882 24.3363 174.513 24.71C174.144 25.0791 173.92 25.5713 173.843 26.1865H177.644ZM186.277 30.3633H185.156V26.3506C185.156 25.6123 185.02 25.0609 184.746 24.6963C184.477 24.3317 184.074 24.1494 183.536 24.1494C182.971 24.1494 182.504 24.359 182.135 24.7783C181.77 25.1976 181.588 25.7285 181.588 26.3711V30.3633H180.467V23.3633H181.588V24.5049H181.615C181.88 24.0674 182.203 23.7415 182.586 23.5273C182.969 23.3086 183.411 23.1992 183.912 23.1992C184.678 23.1992 185.263 23.4476 185.669 23.9443C186.075 24.4365 186.277 25.1497 186.277 26.084V30.3633ZM191.746 30.2607C191.555 30.3473 191.361 30.4134 191.165 30.459C190.974 30.5046 190.757 30.5273 190.516 30.5273C189.955 30.5273 189.518 30.3656 189.203 30.042C188.889 29.7139 188.731 29.2308 188.731 28.5928V24.3203H187.528V23.3633H188.731V21.6611L189.853 21.3193V23.3633H191.63V24.3203H189.853V28.4219C189.853 28.8411 189.932 29.1396 190.092 29.3174C190.251 29.4951 190.475 29.584 190.762 29.584C190.889 29.584 191.012 29.5658 191.131 29.5293C191.254 29.4928 191.361 29.4518 191.452 29.4062L191.746 30.2607ZM200.291 30.2607C200.1 30.3473 199.906 30.4134 199.71 30.459C199.519 30.5046 199.302 30.5273 199.061 30.5273C198.5 30.5273 198.062 30.3656 197.748 30.042C197.434 29.7139 197.276 29.2308 197.276 28.5928V24.3203H196.073V23.3633H197.276V21.6611L198.397 21.3193V23.3633H200.175V24.3203H198.397V28.4219C198.397 28.8411 198.477 29.1396 198.637 29.3174C198.796 29.4951 199.02 29.584 199.307 29.584C199.434 29.584 199.557 29.5658 199.676 29.5293C199.799 29.4928 199.906 29.4518 199.997 29.4062L200.291 30.2607ZM207.339 27.1094H202.376C202.39 27.9069 202.597 28.5176 202.998 28.9414C203.399 29.3652 203.951 29.5771 204.652 29.5771C204.98 29.5771 205.302 29.5225 205.616 29.4131C205.935 29.3037 206.245 29.1351 206.546 28.9072L207.12 29.6592C206.742 29.9463 206.348 30.1628 205.938 30.3086C205.527 30.4544 205.069 30.5273 204.563 30.5273C203.524 30.5273 202.706 30.2152 202.109 29.5908C201.517 28.9619 201.221 28.0801 201.221 26.9453C201.216 25.8288 201.512 24.9264 202.109 24.2383C202.711 23.5456 203.488 23.1992 204.44 23.1992C205.361 23.1992 206.074 23.4954 206.58 24.0879C207.086 24.6803 207.339 25.5007 207.339 26.5488V27.1094ZM206.19 26.1865C206.186 25.5485 206.026 25.0495 205.712 24.6895C205.402 24.3294 204.971 24.1494 204.42 24.1494C203.882 24.1494 203.429 24.3363 203.06 24.71C202.69 25.0791 202.467 25.5713 202.39 26.1865H206.19ZM214.127 23.3633L211.775 26.9043L214.086 30.3633H212.78L211.406 28.1074C211.361 28.0345 211.313 27.9548 211.263 27.8682C211.213 27.7816 211.158 27.6836 211.099 27.5742H211.071C211.058 27.5924 211.023 27.6471 210.969 27.7383C210.919 27.8294 210.843 27.9525 210.743 28.1074L209.342 30.3633H208.057L210.442 26.9316L208.159 23.3633H209.458L210.818 25.7354C210.868 25.8265 210.916 25.9176 210.962 26.0088C211.012 26.0999 211.062 26.1911 211.112 26.2822H211.14C211.194 26.1911 211.247 26.0999 211.297 26.0088C211.352 25.9176 211.409 25.8265 211.468 25.7354L212.89 23.3633H214.127ZM218.803 30.2607C218.611 30.3473 218.418 30.4134 218.222 30.459C218.03 30.5046 217.814 30.5273 217.572 30.5273C217.012 30.5273 216.574 30.3656 216.26 30.042C215.945 29.7139 215.788 29.2308 215.788 28.5928V24.3203H214.585V23.3633H215.788V21.6611L216.909 21.3193V23.3633H218.687V24.3203H216.909V28.4219C216.909 28.8411 216.989 29.1396 217.148 29.3174C217.308 29.4951 217.531 29.584 217.818 29.584C217.946 29.584 218.069 29.5658 218.188 29.5293C218.311 29.4928 218.418 29.4518 218.509 29.4062L218.803 30.2607Z" fill="black"/>
</svg>
