<svg width="128" height="32" viewBox="0 0 128 32" fill="none" xmlns="http://www.w3.org/2000/svg">
<g clip-path="url(#clip0_107610_281748)">
<rect x="1" y="1" width="126" height="30" rx="3" fill="white"/>
<rect x="0.5" y="0.5" width="127" height="31" rx="3.5" stroke="black" stroke-opacity="0.0578"/>
<path d="M19.0479 13.2363H16.2178V22H15.0693V13.2363H12.2461V12.1973H19.0479V13.2363ZM24.7148 18.7461H19.752C19.7656 19.5436 19.973 20.1543 20.374 20.5781C20.7751 21.002 21.3265 21.2139 22.0283 21.2139C22.3564 21.2139 22.6777 21.1592 22.9922 21.0498C23.3112 20.9404 23.6211 20.7718 23.9219 20.5439L24.4961 21.2959C24.1178 21.583 23.7236 21.7995 23.3135 21.9453C22.9033 22.0911 22.4453 22.1641 21.9395 22.1641C20.9004 22.1641 20.0824 21.8519 19.4854 21.2275C18.8929 20.5986 18.5967 19.7168 18.5967 18.582C18.5921 17.4655 18.8883 16.5632 19.4854 15.875C20.0869 15.1823 20.8639 14.8359 21.8164 14.8359C22.737 14.8359 23.4502 15.1322 23.9561 15.7246C24.4619 16.3171 24.7148 17.1374 24.7148 18.1855V18.7461ZM23.5664 17.8232C23.5618 17.1852 23.4023 16.6862 23.0879 16.3262C22.778 15.9661 22.3473 15.7861 21.7959 15.7861C21.2581 15.7861 20.8047 15.973 20.4355 16.3467C20.0664 16.7158 19.8431 17.208 19.7656 17.8232H23.5664ZM31.5029 15L29.1514 18.541L31.4619 22H30.1562L28.7822 19.7441C28.7367 19.6712 28.6888 19.5915 28.6387 19.5049C28.5885 19.4183 28.5339 19.3203 28.4746 19.2109H28.4473C28.4336 19.2292 28.3994 19.2839 28.3447 19.375C28.2946 19.4661 28.2194 19.5892 28.1191 19.7441L26.7178 22H25.4326L27.8184 18.5684L25.5352 15H26.834L28.1943 17.3721C28.2445 17.4632 28.2923 17.5544 28.3379 17.6455C28.388 17.7367 28.4382 17.8278 28.4883 17.9189H28.5156C28.5703 17.8278 28.6227 17.7367 28.6729 17.6455C28.7275 17.5544 28.7845 17.4632 28.8438 17.3721L30.2656 15H31.5029ZM36.1787 21.8975C35.9873 21.984 35.7936 22.0501 35.5977 22.0957C35.4062 22.1413 35.1898 22.1641 34.9482 22.1641C34.3877 22.1641 33.9502 22.0023 33.6357 21.6787C33.3213 21.3506 33.1641 20.8675 33.1641 20.2295V15.957H31.9609V15H33.1641V13.2979L34.2852 12.9561V15H36.0625V15.957H34.2852V20.0586C34.2852 20.4779 34.3649 20.7764 34.5244 20.9541C34.6839 21.1318 34.9072 21.2207 35.1943 21.2207C35.3219 21.2207 35.445 21.2025 35.5635 21.166C35.6865 21.1296 35.7936 21.0885 35.8848 21.043L36.1787 21.8975Z" fill="black" fill-opacity="0.8956"/>
<path d="M103.998 14.5C103.998 14.4297 104.012 14.3652 104.039 14.3066C104.066 14.2441 104.102 14.1914 104.145 14.1484C104.191 14.1016 104.244 14.0645 104.303 14.0371C104.365 14.0098 104.432 13.9961 104.502 13.9961C104.576 13.9961 104.641 14.0098 104.695 14.0371C104.75 14.0605 104.803 14.0977 104.854 14.1484L108 17.2949L111.146 14.1484C111.248 14.0469 111.365 13.9961 111.498 13.9961C111.568 13.9961 111.633 14.0098 111.691 14.0371C111.754 14.0645 111.807 14.1016 111.85 14.1484C111.896 14.1914 111.934 14.2441 111.961 14.3066C111.988 14.3652 112.002 14.4297 112.002 14.5C112.002 14.6367 111.953 14.7539 111.855 14.8516L108.352 18.3555C108.254 18.4531 108.137 18.502 108 18.502C107.863 18.502 107.746 18.4531 107.648 18.3555L104.145 14.8516C104.047 14.7539 103.998 14.6367 103.998 14.5Z" fill="black" fill-opacity="0.6063"/>
</g>
<g clip-path="url(#clip1_107610_281748)">
<path d="M124 0.5C125.933 0.5 127.5 2.067 127.5 4V28C127.5 29.933 125.933 31.5 124 31.5H4C2.06701 31.5 0.5 29.933 0.5 28V4L0.504883 3.82031C0.598422 1.97083 2.12727 0.5 4 0.5H124Z" fill="#005FB8"/>
<path d="M124 0.5C125.933 0.5 127.5 2.067 127.5 4V28C127.5 29.933 125.933 31.5 124 31.5H4C2.06701 31.5 0.5 29.933 0.5 28V4L0.504883 3.82031C0.598422 1.97083 2.12727 0.5 4 0.5H124Z" stroke="#005FB8"/>
</g>
<defs>
<clipPath id="clip0_107610_281748">
<rect width="128" height="30" fill="white"/>
</clipPath>
<clipPath id="clip1_107610_281748">
<rect width="128" height="2" fill="white" transform="translate(0 30)"/>
</clipPath>
</defs>
</svg>
